<?xml version="1.0" standalone="no"?>
<!DOCTYPE svg PUBLIC "-//W3C//DTD SVG 20010904//EN"
 "http://www.w3.org/TR/2001/REC-SVG-20010904/DTD/svg10.dtd">
<svg version="1.0" xmlns="http://www.w3.org/2000/svg"
 width="700.000000pt" height="700.000000pt" viewBox="0 0 700.000000 700.000000"
 preserveAspectRatio="xMidYMid meet">
<metadata>
Created by potrace 1.14, written by Peter Selinger 2001-2017
</metadata>
<g transform="translate(0.000000,700.000000) scale(0.100000,-0.100000)"
fill="#000000" stroke="none">
<path d="M3279 6996 c-2 -2 -43 -6 -90 -10 -47 -4 -95 -8 -106 -10 -11 -3 -44
-7 -74 -11 -102 -12 -217 -34 -344 -67 -44 -11 -89 -22 -101 -24 -91 -17 -415
-140 -579 -220 -180 -87 -448 -247 -555 -331 -8 -6 -51 -40 -95 -74 -340 -264
-650 -624 -875 -1014 -47 -83 -170 -327 -170 -340 0 -3 -9 -24 -20 -48 -57
-123 -157 -435 -186 -582 -2 -11 -10 -54 -19 -95 -22 -115 -30 -160 -41 -255
-26 -230 -26 -667 1 -826 2 -13 6 -46 9 -74 9 -78 23 -156 51 -285 23 -107 88
-333 114 -395 5 -11 25 -65 46 -120 64 -170 213 -461 314 -615 271 -411 605
-747 1008 -1016 77 -52 145 -94 149 -94 4 0 15 -6 23 -14 26 -22 298 -158 408
-204 260 -107 566 -195 798 -228 22 -3 47 -7 55 -9 8 -2 47 -7 85 -11 39 -3
84 -8 100 -10 17 -2 94 -6 173 -10 l142 -6 0 3496 c0 1923 2 3496 5 3496 3 0
788 -783 1745 -1740 957 -957 1742 -1740 1745 -1740 3 0 5 785 5 1745 l0 1745
-1859 0 c-1022 -1 -1860 -2 -1862 -4z"/>
<path d="M5250 1750 l-1745 -1745 1744 -3 c959 -1 1746 -1 1748 1 2 2 2 789 1
1748 l-3 1744 -1745 -1745z"/>
</g>
</svg>
