<svg width="24" height="24" viewBox="0 0 24 24" fill="none" xmlns="http://www.w3.org/2000/svg">
<path d="M7.99996 7C7.99996 5.93914 8.42138 4.92172 9.17153 4.17157C9.92167 3.42143 10.9391 3 12 3C13.033 3 14.0249 3.3996 14.7688 4.1132M13.6764 6.99997C13.6764 5.93911 13.3919 4.2669 14.8284 4.17157C14.4 4.2 14.7888 4.13243 14.7688 4.1132M13.6764 6.99997C14.576 6.99997 12.8042 7.8 13.8 7.8L16.4983 10.4619H19C19 13.2745 19 15.5932 19 19H4.99996V6.99997C8.44521 6.99997 10.9366 6.99997 13.6764 6.99997ZM13.6764 6.99997L13.8 4.8L14.7688 4.1132" stroke="black" stroke-linecap="square"/>
<path fill-rule="evenodd" clip-rule="evenodd" d="M24 6C24 9.31371 21.3137 12 18 12C14.6863 12 12 9.31371 12 6C12 2.68629 14.6863 0 18 0C21.3137 0 24 2.68629 24 6ZM18.5 2.5V3V5.5H21H21.5V6.5H21H18.5V9V9.5H17.5V9V6.5H15H14.5V5.5H15H17.5V3V2.5H18.5Z" fill="black"/>
</svg>
