<svg width="34" height="24" viewBox="0 0 34 24" fill="none" xmlns="http://www.w3.org/2000/svg">
<rect x="0.5" y="0.5" width="33" height="23" rx="3.5" fill="white" stroke="#E5E5E5"/>
<path d="M16.8134 12.7083C16.8134 12.3486 16.5188 12.0496 16.1721 12.0496C15.8255 12.0496 15.5308 12.3486 15.5308 12.7083C15.5308 13.0593 15.8255 13.3669 16.1721 13.3669C16.5188 13.3669 16.8134 13.0636 16.8134 12.7083ZM17.0908 11.7896C17.3334 12.041 17.4721 12.366 17.4721 12.7083C17.4721 13.0506 17.3378 13.3756 17.0908 13.6269C16.8481 13.8696 16.5188 13.9996 16.1721 13.9996C15.9425 13.9996 15.7388 13.9173 15.5568 13.7569L15.5308 13.7353V15.1869L14.8765 15.3949V11.4646H15.5351V11.6596L15.5611 11.6336C15.7561 11.443 15.9771 11.417 16.1765 11.417C16.5145 11.417 16.8438 11.547 17.0908 11.7896ZM18.3604 12.7083C18.3604 13.0679 18.6551 13.3669 19.0017 13.3669C19.3484 13.3669 19.6431 13.0679 19.6431 12.7083C19.6431 12.3573 19.3484 12.0496 19.0017 12.0496C18.6551 12.054 18.3604 12.3573 18.3604 12.7083ZM18.0874 13.6269C17.8448 13.3756 17.7061 13.0506 17.7061 12.7083C17.7061 12.366 17.8404 12.041 18.0874 11.7896C18.3301 11.547 18.6594 11.417 19.0061 11.417C19.2357 11.417 19.4394 11.4993 19.6214 11.6596L19.6474 11.6813V11.4646H20.3061V13.9519H19.6474V13.7569L19.6214 13.7829C19.4264 13.9736 19.2054 13.9996 19.0061 13.9996C18.6594 13.9996 18.3301 13.8653 18.0874 13.6269ZM20.956 15.3949L21.5497 13.9563L20.5574 11.4646H21.2854L21.905 13.0116L22.5333 11.4646H23.257L21.671 15.3949H20.956ZM5.26964 11.8373C4.79299 11.8373 4.40299 12.2273 4.40299 12.7126C4.40299 13.1936 4.79299 13.5879 5.26964 13.5879C5.7463 13.5879 6.1363 13.1979 6.1363 12.7126C6.14063 12.2273 5.75064 11.8373 5.26964 11.8373ZM5.26964 13.9736C4.93165 13.9736 4.61099 13.8436 4.36833 13.6096C4.13 13.3713 4 13.0463 4 12.7083C4 12.3703 4.13 12.054 4.37266 11.807C4.61099 11.573 4.93598 11.4386 5.27398 11.443C5.61631 11.443 5.90663 11.625 6.08863 11.7766L6.14063 11.82V11.495H6.54362V13.9173H6.14063V13.5923L6.08863 13.6356C5.9023 13.7916 5.61631 13.9736 5.26964 13.9736ZM7.27161 13.9216V11.8806H6.90328V11.4993H7.27161V10.7843C7.27161 10.3467 7.61827 10 8.0646 10H8.57159L8.46759 10.3813H8.07326C7.86093 10.3813 7.67027 10.572 7.67027 10.793V11.4993H8.43726V11.8806H7.67027V13.9216H7.27161ZM9.95823 13.9216C9.52057 13.9216 9.16525 13.5663 9.16525 13.1286V11.8806H8.79692V11.4993H9.16525V10H9.56824V11.4993H10.3352V11.8806H9.56824V13.1199C9.56824 13.3409 9.7589 13.5446 9.97123 13.5446H10.3656L10.4696 13.9259H9.95823V13.9216ZM11.6959 11.8503C11.3839 11.8503 11.0935 12.0756 10.9765 12.4093L10.9722 12.418L10.9505 12.4656H12.4455L12.4152 12.4093C12.2982 12.0756 12.0122 11.8503 11.6959 11.8503ZM11.6915 13.9649C11.3795 13.9649 11.0805 13.8306 10.8725 13.5966C10.6776 13.3886 10.5649 13.1199 10.5432 12.834C10.5389 12.795 10.5389 12.7603 10.5389 12.7213C10.5389 12.626 10.5476 12.5306 10.5692 12.4353C10.6169 12.2143 10.7209 12.015 10.8725 11.846C11.0805 11.6163 11.3795 11.482 11.6915 11.482C12.0035 11.482 12.2939 11.612 12.5149 11.846C12.6709 12.0193 12.7748 12.223 12.8182 12.431C12.8485 12.6173 12.8485 12.73 12.8485 12.7906H10.9289V12.834C10.9852 13.2629 11.3102 13.5879 11.6829 13.5923C11.9125 13.5793 12.1379 13.4883 12.2939 13.3409L12.6319 13.5403C12.5452 13.6356 12.4455 13.7136 12.3329 13.7829C12.1552 13.8913 11.9342 13.9519 11.6915 13.9649ZM13.2428 13.9216V11.4993H13.6458V11.807L13.7022 11.7463C13.8452 11.5903 14.2655 11.4603 14.5428 11.4473L14.4432 11.8503C14.0012 11.8633 13.6458 12.21 13.6458 12.6303V13.9216H13.2428Z" fill="#31322F"/>
<path d="M26.7323 12.1539L27.4386 11.7466C27.3606 11.6079 27.3779 11.6426 27.3086 11.5126C27.2349 11.3739 27.2609 11.3219 27.4169 11.3219C27.8676 11.3176 28.3226 11.3176 28.7732 11.3219C28.9075 11.3219 28.9422 11.3783 28.8729 11.4996C28.6475 11.8939 28.4222 12.2839 28.1926 12.6782C28.1189 12.8039 28.0539 12.8039 27.9802 12.6826C27.9022 12.5569 27.9239 12.5873 27.8372 12.4443L27.1352 12.8516C27.1482 12.8862 27.1656 12.9122 27.1829 12.9382C27.3562 13.2416 27.4342 13.3846 27.6162 13.6879C27.8286 14.0432 28.2749 14.0649 28.5306 13.7356C28.5609 13.7009 28.5826 13.6619 28.6086 13.6186C29.0375 12.8776 29.4622 12.1409 29.8869 11.3956C29.9302 11.3219 29.9692 11.2396 29.9865 11.1529C30.0515 10.8669 29.8739 10.581 29.5879 10.516C29.5489 10.5073 29.5055 10.503 29.4665 10.503C28.5522 10.4986 27.6336 10.4986 26.7193 10.5073C26.3033 10.5116 26.0519 10.9276 26.2339 11.2959C26.2946 11.4173 26.3639 11.5299 26.4333 11.6426C26.5589 11.8549 26.5936 11.9113 26.7323 12.1539Z" fill="#306E9A"/>
<path d="M24.6954 14.4373V13.6269C24.6954 13.6269 24.5828 13.6269 24.4311 13.6269C24.2751 13.6269 24.2448 13.5706 24.3228 13.4363C24.5438 13.0463 24.7691 12.6563 24.9987 12.2706C25.0681 12.1536 25.1244 12.145 25.1981 12.275C25.4234 12.6649 25.6487 13.0506 25.8697 13.4449C25.9391 13.5706 25.9087 13.6226 25.7657 13.6269H25.4927V14.4416H26.4461C26.8577 14.4372 27.096 14.0646 26.9444 13.6833C26.927 13.6399 26.9054 13.6009 26.8837 13.5576C26.4634 12.8209 26.0387 12.0886 25.6141 11.352C25.5707 11.2783 25.5187 11.2046 25.4581 11.144C25.2457 10.9446 24.9121 10.9576 24.7128 11.17C24.6868 11.2003 24.6608 11.2306 24.6391 11.2653C24.1798 12.0496 23.7204 12.8339 23.2741 13.6226C23.0704 13.9823 23.3044 14.4069 23.7074 14.4329C23.8418 14.4416 24.4051 14.4373 24.6954 14.4373Z" fill="#1F4066"/>
</svg>
