<svg width="24" height="24" viewBox="0 0 24 24" fill="none" xmlns="http://www.w3.org/2000/svg">
<path d="M15.9298 17.09C15.7498 17.25 15.4998 17.26 15.2998 17.15C14.4098 16.41 14.2498 16.07 13.7598 15.36C12.2898 16.86 11.2498 17.31 9.33979 17.31C7.08979 17.31 5.32979 15.92 5.32979 13.14C5.32979 10.96 6.49979 9.5 8.18979 8.76C9.64979 8.12 11.6798 8 13.2298 7.83V7.5C13.2298 6.84 13.2798 6.09 12.8998 5.54C12.5798 5.05 11.9498 4.84 11.3998 4.84C10.3798 4.84 9.46979 5.37 9.24979 6.45C9.19979 6.69 8.99979 6.93 8.77979 6.94L6.17979 6.66C5.95979 6.61 5.71979 6.44 5.77979 6.1C6.37979 2.95 9.22979 2 11.7798 2C13.0798 2 14.7798 2.35 15.8098 3.33C17.1098 4.55 16.9998 6.18 16.9998 7.95V12.12C16.9998 13.37 17.4998 13.93 17.9998 14.6C18.1698 14.85 18.2098 15.14 17.9998 15.31L15.9398 17.09H15.9298ZM13.2298 10.56V10C11.2898 10 9.23979 10.39 9.23979 12.67C9.23979 13.83 9.84979 14.62 10.8698 14.62C11.6298 14.62 12.2998 14.15 12.7298 13.4C13.2498 12.47 13.2298 11.6 13.2298 10.56ZM20.1598 19.54C17.9998 21.14 14.8198 22 12.0998 22C8.28979 22 4.84979 20.59 2.24979 18.24C2.04979 18.06 2.22979 17.81 2.49979 17.95C5.27979 19.58 8.74979 20.56 12.3298 20.56C14.7398 20.56 17.3998 20.06 19.8398 19.03C20.2098 18.87 20.4998 19.27 20.1598 19.54ZM21.0698 18.5C20.7898 18.14 19.2198 18.33 18.4998 18.42C18.3098 18.44 18.2798 18.26 18.4698 18.12C19.7098 17.24 21.7598 17.5 21.9998 17.79C22.2398 18.09 21.9298 20.14 20.7598 21.11C20.5798 21.27 20.4098 21.18 20.4998 21C20.7598 20.33 21.3498 18.86 21.0698 18.5Z" fill="black"/>
</svg>
