<svg width="34" height="24" viewBox="0 0 34 24" fill="none" xmlns="http://www.w3.org/2000/svg">
<rect x="0.5" y="0.5" width="33" height="23" rx="3.5" fill="white" stroke="#E5E5E5"/>
<g clip-path="url(#clip0_32_1447)">
<path d="M28.9467 23.9467H5V0H28.9467V23.9467Z" fill="white"/>
<path d="M28.9467 12.9707V0.0106659H5V23.9573H28.9467V16.9707C28.8933 16.9707 28.9467 12.9707 28.9467 12.9707Z" fill="#006FCF"/>
<path d="M26.0133 11.6373H27.8267V7.424H25.8533V8.01066L25.48 7.424H23.7733V8.17066L23.4533 7.424H20.3067C20.2 7.424 20.0933 7.47733 19.9867 7.47733C19.88 7.47733 19.8267 7.53066 19.72 7.584C19.6133 7.63733 19.56 7.63733 19.4533 7.69066V7.424H10.44L10.1733 8.11733L9.90667 7.424H7.77333V8.17066L7.45333 7.424H5.74667L5 9.23733V11.6373H6.22667L6.44 11.0507H6.86667L7.08 11.6373H16.4667V11.104L16.84 11.6373H19.4533V11.3173C19.5067 11.3707 19.6133 11.3707 19.6667 11.424C19.72 11.4773 19.8267 11.4773 19.88 11.5307C19.9867 11.584 20.0933 11.584 20.2 11.584H22.12L22.3333 10.9973H22.76L22.9733 11.584H25.5867V11.0507L26.0133 11.6373ZM28.9467 16.9707V13.024H14.28L13.9067 13.5573L13.5333 13.024H9.26667V17.2373H13.5333L13.9067 16.704L14.28 17.2373H16.9467V16.3307H16.84C17.2133 16.3307 17.5333 16.2773 17.8 16.1707V17.2907H19.72V16.7573L20.0933 17.2907H28.04C28.36 17.184 28.68 17.1307 28.9467 16.9707Z" fill="white"/>
<path d="M28.04 15.9573H26.6V16.544H27.9867C28.5733 16.544 28.9467 16.1707 28.9467 15.6373C28.9467 15.104 28.6267 14.8373 28.0933 14.8373H27.4533C27.2933 14.8373 27.1867 14.7307 27.1867 14.5707C27.1867 14.4107 27.2933 14.304 27.4533 14.304H28.68L28.9467 13.7173H27.5067C26.92 13.7173 26.5467 14.0907 26.5467 14.5707C26.5467 15.104 26.8667 15.3707 27.4 15.3707H28.04C28.2 15.3707 28.3067 15.4773 28.3067 15.6373C28.36 15.8507 28.2533 15.9573 28.04 15.9573ZM25.4267 15.9573H23.9867V16.544H25.3733C25.96 16.544 26.3333 16.1707 26.3333 15.6373C26.3333 15.104 26.0133 14.8373 25.48 14.8373H24.84C24.68 14.8373 24.5733 14.7307 24.5733 14.5707C24.5733 14.4107 24.68 14.304 24.84 14.304H26.0667L26.3333 13.7173H24.8933C24.3067 13.7173 23.9333 14.0907 23.9333 14.5707C23.9333 15.104 24.2533 15.3707 24.7867 15.3707H25.4267C25.5867 15.3707 25.6933 15.4773 25.6933 15.6373C25.7467 15.8507 25.5867 15.9573 25.4267 15.9573ZM23.56 14.2507V13.664H21.32V16.4907H23.56V15.904H21.96V15.3173H23.5067V14.7307H21.96V14.1973H23.56V14.2507ZM19.9333 14.2507C20.2 14.2507 20.3067 14.4107 20.3067 14.5707C20.3067 14.7307 20.2 14.8907 19.9333 14.8907H19.1333V14.1973L19.9333 14.2507ZM19.1333 15.4773H19.4533L20.3067 16.4907H21.1067L20.1467 15.424C20.6267 15.3173 20.8933 14.9973 20.8933 14.5707C20.8933 14.0373 20.52 13.664 19.9333 13.664H18.44V16.4907H19.08L19.1333 15.4773ZM17.4267 14.624C17.4267 14.8373 17.32 14.9973 17.0533 14.9973H16.2V14.2507H17C17.2667 14.2507 17.4267 14.4107 17.4267 14.624ZM15.56 13.664V16.4907H16.2V15.5307H17.0533C17.64 15.5307 18.0667 15.1573 18.0667 14.5707C18.0667 14.0373 17.6933 13.6107 17.1067 13.6107L15.56 13.664ZM14.6 16.4907H15.4L14.28 15.0507L15.4 13.664H14.6L13.9067 14.5707L13.2133 13.664H12.4133L13.5333 15.0507L12.4133 16.4373H13.2133L13.9067 15.5307L14.6 16.4907ZM12.2 14.2507V13.664H9.96V16.4907H12.2V15.904H10.6V15.3173H12.1467V14.7307H10.6V14.1973H12.2V14.2507ZM25.16 9.23733L26.28 10.944H27.08V8.11733H26.44V9.984L26.28 9.71733L25.2667 8.11733H24.4133V10.944H25.0533V9.024L25.16 9.23733ZM22.3867 9.184L22.6 8.59733L22.8133 9.184L23.08 9.824H22.12L22.3867 9.184ZM23.5067 10.944H24.2L22.9733 8.11733H22.12L20.8933 10.944H21.5867L21.8533 10.3573H23.24L23.5067 10.944ZM20.52 10.944L20.7867 10.3573H20.6267C20.1467 10.3573 19.88 10.0373 19.88 9.55733V9.504C19.88 9.024 20.1467 8.704 20.6267 8.704H21.32V8.11733H20.5733C19.72 8.11733 19.24 8.704 19.24 9.504V9.55733C19.24 10.4107 19.72 10.944 20.52 10.944ZM18.12 10.944H18.76V8.17067H18.12V10.944ZM16.7333 8.704C17 8.704 17.1067 8.864 17.1067 9.024C17.1067 9.184 17 9.344 16.7333 9.344H15.9333V8.65067L16.7333 8.704ZM15.9333 9.93067H16.2533L17.1067 10.944H17.9067L16.9467 9.87733C17.4267 9.77067 17.6933 9.45067 17.6933 9.024C17.6933 8.49067 17.32 8.11733 16.7333 8.11733H15.24V10.944H15.88L15.9333 9.93067ZM14.76 8.704V8.11733H12.52V10.944H14.76V10.3573H13.16V9.77067H14.7067V9.184H13.16V8.65067H14.76V8.704ZM9.90667 10.944H10.4933L11.2933 8.65067V10.944H11.9333V8.11733H10.8667L10.2267 10.0373L9.58667 8.11733H8.52V10.944H9.16V8.65067L9.90667 10.944ZM6.44 9.184L6.65333 8.59733L6.86667 9.184L7.13333 9.824H6.17333L6.44 9.184ZM7.56 10.944H8.25333L7.02667 8.11733H6.22667L5 10.944H5.69333L5.96 10.3573H7.34667L7.56 10.944Z" fill="#006FCF"/>
</g>
<defs>
<clipPath id="clip0_32_1447">
<rect width="24" height="24" fill="white" transform="translate(5)"/>
</clipPath>
</defs>
</svg>
