<svg width="34" height="24" viewBox="0 0 34 24" fill="none" xmlns="http://www.w3.org/2000/svg">
<rect x="0.5" y="0.5" width="33" height="23" rx="3.5" fill="white" stroke="#E5E5E5"/>
<g clip-path="url(#clip0_32_1408)">
<path d="M27.7612 4H7.23887C7.15339 4 7.06777 4 6.98245 4.0005C6.91033 4.00101 6.83837 4.00181 6.76642 4.00377C6.60949 4.00802 6.45122 4.01727 6.29625 4.04512C6.13881 4.07344 5.9923 4.11965 5.84937 4.1924C5.70886 4.26383 5.58022 4.35726 5.46874 4.46876C5.35722 4.58025 5.26375 4.70864 5.19231 4.84926C5.11953 4.99215 5.07328 5.13865 5.04514 5.29617C5.01714 5.45113 5.00782 5.60933 5.00359 5.76605C5.00166 5.83798 5.00083 5.90991 5.00036 5.98183C4.99986 6.06731 5.00003 6.15272 5.00003 6.23835V17.7618C5.00003 17.8474 4.99986 17.9327 5.00036 18.0184C5.00083 18.0903 5.00166 18.1622 5.00359 18.2341C5.00782 18.3907 5.01714 18.5489 5.04514 18.7038C5.07328 18.8614 5.11953 19.0079 5.19231 19.1508C5.26375 19.2914 5.35722 19.4199 5.46874 19.5313C5.58022 19.6429 5.70886 19.7364 5.84937 19.8076C5.9923 19.8805 6.13881 19.9268 6.29625 19.9551C6.45122 19.9827 6.60949 19.9922 6.76642 19.9964C6.83837 19.998 6.91033 19.999 6.98245 19.9993C7.06777 20 7.15339 20 7.23887 20H27.7612C27.8465 20 27.9321 20 28.0174 19.9993C28.0894 19.999 28.1613 19.998 28.2336 19.9964C28.3902 19.9922 28.5484 19.9827 28.7038 19.9551C28.861 19.9268 29.0076 19.8805 29.1505 19.8076C29.2912 19.7364 29.4194 19.6429 29.5311 19.5313C29.6425 19.4199 29.7359 19.2914 29.8076 19.1508C29.8805 19.0079 29.9267 18.8614 29.9547 18.7038C29.9827 18.5489 29.9918 18.3907 29.9961 18.2341C29.998 18.1622 29.999 18.0903 29.9993 18.0184C30 17.9327 30 17.8474 30 17.7618V6.23835C30 6.15272 30 6.06731 29.9993 5.98183C29.999 5.90991 29.998 5.83798 29.9961 5.76605C29.9918 5.60933 29.9827 5.45113 29.9547 5.29617C29.9267 5.13865 29.8805 4.99215 29.8076 4.84926C29.7359 4.70864 29.6425 4.58025 29.5311 4.46876C29.4194 4.35726 29.2912 4.26383 29.1505 4.1924C29.0076 4.11965 28.861 4.07344 28.7038 4.04512C28.5484 4.01727 28.3902 4.00802 28.2336 4.00377C28.1613 4.00181 28.0894 4.00101 28.0174 4.0005C27.9321 4 27.8465 4 27.7612 4Z" fill="#010000"/>
<path d="M27.7614 4.53331L28.0138 4.53379C28.0822 4.53428 28.1506 4.53502 28.2194 4.53689C28.339 4.54012 28.4789 4.5466 28.6094 4.56997C28.7228 4.59039 28.8179 4.62143 28.9091 4.66788C28.9992 4.71364 29.0818 4.77362 29.1538 4.84556C29.2262 4.918 29.2862 5.00065 29.3326 5.09171C29.3788 5.18223 29.4097 5.27685 29.43 5.39103C29.4533 5.52 29.4598 5.66028 29.463 5.7806C29.4649 5.84852 29.4658 5.91644 29.4661 5.98597C29.4668 6.07006 29.4667 6.1541 29.4667 6.23835V17.7618C29.4667 17.8461 29.4668 17.93 29.4661 18.0158C29.4658 18.0837 29.4649 18.1517 29.463 18.2197C29.4597 18.3398 29.4533 18.48 29.4297 18.6105C29.4097 18.7232 29.3788 18.8178 29.3324 18.9088C29.2861 18.9996 29.2262 19.0822 29.1541 19.1541C29.0816 19.2266 28.9994 19.2864 28.9082 19.3326C28.8176 19.3788 28.7227 19.4098 28.6104 19.43C28.4774 19.4537 28.3316 19.4603 28.2218 19.4632C28.1527 19.4648 28.0839 19.4657 28.0135 19.4661C27.9296 19.4667 27.8453 19.4667 27.7614 19.4667H7.23908C7.23796 19.4667 7.23687 19.4667 7.23574 19.4667C7.15276 19.4667 7.06961 19.4667 6.98512 19.466C6.91623 19.4657 6.8475 19.4648 6.78104 19.4633C6.66873 19.4603 6.52284 19.4538 6.39085 19.4302C6.27762 19.4098 6.18269 19.3788 6.09092 19.332C6.00061 19.2862 5.9184 19.2265 5.84589 19.1539C5.77393 19.0821 5.71414 18.9997 5.6679 18.9088C5.62163 18.8179 5.59066 18.723 5.5703 18.609C5.54677 18.4788 5.54031 18.3391 5.53708 18.2198C5.53523 18.1515 5.53446 18.0832 5.53402 18.0153L5.53369 17.8148L5.53371 17.7618V6.23835L5.53369 6.18542L5.53401 5.98534C5.53446 5.91701 5.53523 5.8487 5.53708 5.78044C5.54031 5.66099 5.54677 5.52129 5.5705 5.38995C5.59068 5.27703 5.62163 5.18211 5.66815 5.09078C5.71402 5.0005 5.77392 4.91809 5.84625 4.84579C5.9183 4.77374 6.00078 4.71384 6.09166 4.66763C6.18245 4.62141 6.27755 4.59039 6.39079 4.57002C6.52125 4.54658 6.66128 4.54012 6.78121 4.53687C6.84957 4.53502 6.91793 4.53428 6.98577 4.53381L7.23908 4.53331H27.7614Z" fill="white"/>
<path d="M11.8249 9.38148C12.0389 9.11382 12.1842 8.75443 12.1459 8.38718C11.8325 8.40275 11.4502 8.59384 11.2288 8.86171C11.03 9.0911 10.8541 9.46554 10.8999 9.81739C11.2517 9.84789 11.6031 9.64162 11.8249 9.38148Z" fill="#010000"/>
<path d="M12.1419 9.88609C11.6311 9.85567 11.1968 10.1759 10.9528 10.1759C10.7087 10.1759 10.3352 9.90142 9.93113 9.90882C9.40525 9.91654 8.9173 10.2138 8.65044 10.6866C8.10155 11.6323 8.50558 13.0352 9.03935 13.8055C9.29856 14.1866 9.61095 14.6061 10.0226 14.5911C10.4115 14.5758 10.5639 14.3393 11.0367 14.3393C11.5091 14.3393 11.6464 14.5911 12.0581 14.5834C12.485 14.5758 12.7519 14.2022 13.0111 13.8207C13.3085 13.3863 13.4302 12.9669 13.4379 12.9438C13.4302 12.9362 12.6146 12.6234 12.607 11.6855C12.5994 10.9002 13.2474 10.5267 13.2779 10.5035C12.9119 9.96243 12.3401 9.90142 12.1419 9.88609Z" fill="#010000"/>
<path d="M16.5896 8.8233C17.6999 8.8233 18.473 9.58839 18.473 10.7023C18.473 11.8202 17.684 12.5893 16.5618 12.5893H15.3325V14.5436H14.4443V8.8233L16.5896 8.8233ZM15.3325 11.844H16.3516C17.1249 11.844 17.565 11.4278 17.565 10.7063C17.565 9.98485 17.1249 9.57256 16.3556 9.57256H15.3325V11.844Z" fill="#010000"/>
<path d="M18.7051 13.3584C18.7051 12.6289 19.2642 12.181 20.2556 12.1255L21.3976 12.0581V11.737C21.3976 11.2732 21.0843 10.9957 20.5609 10.9957C20.0652 10.9957 19.7558 11.2335 19.6806 11.6062H18.8717C18.9192 10.8529 19.5616 10.298 20.5926 10.298C21.6038 10.298 22.2501 10.8331 22.2501 11.6696V14.5436H21.4292V13.8578H21.4095C21.1676 14.3216 20.6402 14.615 20.093 14.615C19.2761 14.615 18.7051 14.1075 18.7051 13.3584ZM21.3976 12.9818V12.6527L20.3705 12.7161C19.859 12.7518 19.5695 12.9778 19.5695 13.3346C19.5695 13.6992 19.8709 13.9371 20.3309 13.9371C20.9296 13.9371 21.3976 13.5248 21.3976 12.9818Z" fill="#010000"/>
<path d="M23.0252 16.0778V15.384C23.0885 15.3999 23.2313 15.3999 23.3027 15.3999C23.6992 15.3999 23.9134 15.2334 24.0442 14.8053C24.0442 14.7973 24.1196 14.5516 24.1196 14.5476L22.6128 10.3733H23.5406L24.5955 13.7667H24.6112L25.6661 10.3733H26.5702L25.0077 14.7616C24.651 15.7725 24.2386 16.0976 23.3741 16.0976C23.3027 16.0976 23.0885 16.0896 23.0252 16.0778Z" fill="#010000"/>
</g>
<defs>
<clipPath id="clip0_32_1408">
<rect width="25" height="16" fill="white" transform="translate(5 4)"/>
</clipPath>
</defs>
</svg>
