<svg width="34" height="24" viewBox="0 0 34 24" fill="none" xmlns="http://www.w3.org/2000/svg">
<rect x="0.5" y="0.5" width="33" height="23" rx="3.5" fill="white" stroke="#E5E5E5"/>
<path d="M4 13.0019C4 13.5646 4.45261 14.0172 5.01531 14.0172H9.45574V13.0019V9.57675C9.45574 9.02017 8.99701 8.56145 8.44043 8.56145H5.01531C4.45261 8.56145 4 9.02017 4 9.57675V13.0019Z" fill="#CE0E4A"/>
<path d="M5.25244 10.5311C5.25244 10.3415 5.387 10.1458 5.63777 10.1458H7.80905C8.05982 10.1458 8.19438 10.3476 8.19438 10.5311C8.19438 10.7207 8.05982 10.9164 7.80905 10.9164H5.63777C5.387 10.9164 5.25244 10.7207 5.25244 10.5311Z" fill="white"/>
<path d="M5.25195 12.0539C5.25195 11.8643 5.38651 11.6685 5.63728 11.6685H7.80857C8.05933 11.6685 8.19389 11.8704 8.19389 12.0539C8.19389 12.2435 8.05933 12.4392 7.80857 12.4392H5.63728C5.38651 12.4392 5.25195 12.2435 5.25195 12.0539Z" fill="white"/>
<path d="M12.74 14.0167H11.3821C11.1742 14.0167 11.0029 13.8454 11.0029 13.6374V8.94624C11.0029 8.73829 11.1742 8.56703 11.3821 8.56703H12.74C13.5718 8.56703 14.2446 9.23982 14.2446 10.0655C14.2446 10.4937 14.0672 10.8912 13.7553 11.1787C14.1284 11.4845 14.3424 11.9371 14.3424 12.4142C14.3424 13.2949 13.6207 14.0167 12.74 14.0167ZM11.7614 13.2582H12.74C13.2048 13.2582 13.5901 12.879 13.5901 12.4142C13.5901 11.9493 13.2109 11.564 12.74 11.564H11.7614V13.2582ZM11.7614 10.8117H12.74C13.1497 10.8117 13.4861 10.4753 13.4861 10.0594V9.96766C13.4372 9.60069 13.1253 9.31934 12.74 9.31934H11.7614V10.8117Z" fill="#425C6C"/>
<path d="M16.3 14.0849C15.4743 14.0849 14.7832 13.4182 14.7832 12.6292V11.4243C14.7832 10.6231 15.4376 9.96861 16.2389 9.96861C17.0401 9.96861 17.6946 10.6231 17.6946 11.4243V11.883C17.6946 12.091 17.5233 12.2622 17.3154 12.2622H15.5416V12.6353C15.5416 13.0023 15.9025 13.3326 16.3062 13.3326C16.5569 13.3326 16.7465 13.2592 16.8994 13.1063C16.979 12.9962 17.0829 12.935 17.1991 12.935C17.401 12.935 17.5906 13.1124 17.5906 13.3142C17.5906 13.3937 17.5661 13.461 17.5172 13.5344C17.5172 13.5344 17.4866 13.5833 17.4254 13.6445C17.1563 13.9197 16.7527 14.0849 16.3 14.0849ZM15.5416 11.4977H16.9361V11.4182C16.9361 11.0267 16.6303 10.7209 16.2389 10.7209C15.8474 10.7209 15.5416 11.0267 15.5416 11.4182V11.4977Z" fill="#425C6C"/>
<path d="M18.6546 14.0167C18.465 14.0167 18.2754 13.8882 18.2754 13.6374V8.94624C18.2754 8.69547 18.465 8.56703 18.6546 8.56703C18.8442 8.56703 19.0338 8.69547 19.0338 8.94624V13.6374C19.0338 13.8882 18.8442 14.0167 18.6546 14.0167Z" fill="#425C6C"/>
<path d="M20.5019 14.0169C20.3123 14.0169 20.1227 13.8885 20.1227 13.6377V10.7875H19.8353C19.5845 10.7875 19.4561 10.5979 19.4561 10.4083C19.4561 10.2187 19.5845 10.0291 19.8353 10.0291H20.1227V9.60093C20.1227 8.97095 20.6304 8.5 21.2971 8.5C21.8781 8.5 22.1411 8.77523 22.1411 9.05047C22.1411 9.2523 22.0004 9.41133 21.8169 9.41133C21.7374 9.41133 21.664 9.38686 21.5906 9.34405C21.5478 9.31958 21.4316 9.25842 21.2971 9.25842C20.9912 9.25842 20.8812 9.44191 20.8812 9.60093V10.0291H21.6763C21.927 10.0291 22.0555 10.2187 22.0555 10.4083C22.0555 10.5979 21.927 10.7875 21.6763 10.7875H20.8812V13.6377C20.8812 13.8885 20.6915 14.0169 20.5019 14.0169Z" fill="#425C6C"/>
<path d="M22.9109 14.0167C22.7213 14.0167 22.5317 13.8882 22.5317 13.6374V10.408C22.5317 10.1573 22.7213 10.0288 22.9109 10.0288C23.1006 10.0288 23.2902 10.1573 23.2902 10.408V13.6374C23.284 13.8882 23.0944 14.0167 22.9109 14.0167ZM22.9109 9.59457C22.7213 9.59457 22.5317 9.46613 22.5317 9.21536V8.94624C22.5317 8.69547 22.7213 8.56703 22.9109 8.56703C23.1006 8.56703 23.2902 8.69547 23.2902 8.94624V9.21536C23.284 9.46613 23.0944 9.59457 22.9109 9.59457Z" fill="#425C6C"/>
<path d="M25.4313 14.0836C24.63 14.0836 23.9756 13.4292 23.9756 12.628V10.4077C23.9756 10.157 24.1652 10.0285 24.3548 10.0285C24.5444 10.0285 24.734 10.157 24.734 10.4077V12.6218C24.734 13.0133 25.0398 13.3191 25.4313 13.3191C25.8227 13.3191 26.1285 13.0133 26.1285 12.6218V10.4077C26.1285 10.157 26.3181 10.0285 26.5077 10.0285C26.6973 10.0285 26.8869 10.157 26.8869 10.4077V12.6218C26.8869 13.4292 26.2325 14.0836 25.4313 14.0836Z" fill="#425C6C"/>
<path d="M28.6053 14.0849C28.2078 14.0849 27.6879 13.9014 27.4616 13.5589C27.4126 13.4916 27.3882 13.4121 27.3882 13.3326C27.3882 13.1369 27.5778 12.9534 27.7796 12.9534C27.8958 12.9534 28.0059 13.0145 28.0854 13.1185L28.0977 13.1369C28.2078 13.2592 28.3974 13.3265 28.6114 13.3265C29.0335 13.3265 29.2475 13.094 29.2475 12.8677C29.2475 12.5497 28.9111 12.4212 28.5258 12.2683C28.0304 12.0726 27.4188 11.8341 27.4188 11.0818C27.4188 10.3478 28.0426 9.96861 28.6604 9.96861C29.1069 9.96861 29.5778 10.2133 29.8041 10.568C29.8469 10.6292 29.8653 10.6965 29.8653 10.7821C29.8653 10.99 29.6879 11.1613 29.4738 11.1613C29.3454 11.1613 29.2414 11.1001 29.168 10.9839C29.0151 10.8065 28.8561 10.7331 28.6543 10.7331C28.3607 10.7331 28.1711 10.8738 28.1711 11.094C28.1711 11.3387 28.4708 11.4549 28.8194 11.5894C29.3454 11.7974 29.9998 12.0543 29.9998 12.88C29.9998 13.6567 29.2842 14.0849 28.6053 14.0849Z" fill="#425C6C"/>
<path d="M11.4986 16.737H11.0949C11.0399 16.737 10.9971 16.6942 10.9971 16.6392V15.2446C10.9971 15.1896 11.0399 15.1468 11.0949 15.1468H11.4986C11.7371 15.1468 11.9329 15.3425 11.9329 15.5749C11.9329 15.7095 11.8717 15.8257 11.78 15.9052C11.89 15.9908 11.9634 16.1193 11.9634 16.2722C11.9634 16.5291 11.7555 16.737 11.4986 16.737ZM11.7371 15.581C11.7371 15.4465 11.6332 15.3425 11.4986 15.3425H11.1928V15.8135H11.4986C11.6332 15.8135 11.7371 15.7095 11.7371 15.581ZM11.4986 16.0092H11.1928V16.5413H11.4986C11.6454 16.5413 11.7677 16.419 11.7677 16.2783C11.7677 16.1315 11.6454 16.0092 11.4986 16.0092Z" fill="#92A2AD"/>
<path d="M12.5516 16.7571C12.3559 16.7571 12.1602 16.6409 12.1602 16.4085C12.1602 16.1944 12.3375 16.0843 12.521 16.0476L12.7412 15.9987V15.9376C12.7412 15.8275 12.6862 15.7602 12.5516 15.7602C12.4109 15.7602 12.3926 15.8764 12.3008 15.8764C12.2458 15.8764 12.203 15.8336 12.203 15.7785C12.203 15.7479 12.2213 15.7174 12.2397 15.699C12.3192 15.6073 12.4354 15.5645 12.5516 15.5645C12.7901 15.5645 12.9369 15.7174 12.9369 15.9376V16.384C12.9369 16.6103 12.7534 16.7571 12.5516 16.7571ZM12.7473 16.1883L12.5455 16.2373C12.417 16.2617 12.3559 16.3351 12.3559 16.4085C12.3559 16.5003 12.4232 16.5675 12.5516 16.5675C12.6678 16.5675 12.7473 16.488 12.7473 16.3902V16.1883Z" fill="#92A2AD"/>
<path d="M13.9092 16.7388C13.8603 16.7388 13.8114 16.7082 13.8114 16.6409V15.9804C13.8114 15.858 13.7135 15.7602 13.5912 15.7602C13.4689 15.7602 13.371 15.858 13.371 15.9804V16.6409C13.371 16.7021 13.3221 16.7388 13.2732 16.7388C13.2242 16.7388 13.1753 16.7082 13.1753 16.6409V15.9804C13.1753 15.7479 13.3588 15.5645 13.5912 15.5645C13.8236 15.5645 14.0071 15.7479 14.0071 15.9804V16.6409C14.0071 16.7021 13.9582 16.7388 13.9092 16.7388Z" fill="#92A2AD"/>
<path d="M14.9788 16.7388C14.9543 16.7388 14.9237 16.7266 14.9054 16.696L14.569 16.2495L14.4589 16.3841V16.6409C14.4589 16.7021 14.41 16.7388 14.361 16.7388C14.3121 16.7388 14.2632 16.7082 14.2632 16.6409V15.2464C14.2632 15.1853 14.3121 15.1486 14.361 15.1486C14.41 15.1486 14.4589 15.1791 14.4589 15.2464V16.0905L14.8565 15.6195C14.8748 15.595 14.9054 15.5828 14.9299 15.5828C14.9849 15.5828 15.0277 15.6317 15.0277 15.6807C15.0277 15.699 15.0216 15.7235 15.0033 15.7418L14.6974 16.1027L15.0583 16.5798C15.0767 16.5981 15.0767 16.6226 15.0767 16.6348C15.0767 16.696 15.0277 16.7388 14.9788 16.7388Z" fill="#92A2AD"/>
<path d="M16.7528 16.7394C16.7284 16.7394 16.6978 16.7271 16.6794 16.7027L16.5877 16.5926C16.502 16.6843 16.392 16.7516 16.2452 16.7516C15.976 16.7516 15.7559 16.562 15.7559 16.2806C15.7559 16.0849 15.8598 15.9626 15.9822 15.8709C15.9149 15.7852 15.8293 15.6629 15.8293 15.5406C15.8293 15.3326 15.9577 15.1308 16.2023 15.1308C16.392 15.1308 16.5571 15.2837 16.5571 15.4855C16.5571 15.6935 16.4042 15.8097 16.2635 15.9076L16.5693 16.2684C16.5938 16.2073 16.606 16.1522 16.606 16.1461C16.6183 16.091 16.6611 16.0727 16.7039 16.0727C16.7467 16.0727 16.8017 16.1033 16.8017 16.1644C16.8017 16.1767 16.8017 16.1828 16.7956 16.1889C16.7956 16.195 16.7834 16.2256 16.7712 16.2745C16.7528 16.3235 16.7345 16.3785 16.71 16.4274L16.8384 16.5803C16.8568 16.5987 16.8629 16.6232 16.8629 16.6415C16.8507 16.6966 16.8079 16.7394 16.7528 16.7394ZM16.0984 16.0176C16.0066 16.091 15.9455 16.1706 15.9455 16.2806C15.9455 16.4458 16.0678 16.562 16.2452 16.562C16.3369 16.562 16.4042 16.5131 16.4592 16.4458L16.0984 16.0176ZM16.1962 15.3265C16.0923 15.3265 16.0189 15.3999 16.0189 15.5345C16.0189 15.5834 16.0556 15.6751 16.1228 15.7546L16.1351 15.7669C16.2329 15.6996 16.3553 15.6201 16.3553 15.4855C16.3553 15.3999 16.2819 15.3265 16.1962 15.3265Z" fill="#92A2AD"/>
<path d="M18.5509 15.277L18.0861 16.6838C18.0677 16.7388 18.031 16.7694 17.9943 16.7694C17.9576 16.7694 17.9209 16.7388 17.9026 16.6838L17.4378 15.277C17.4316 15.2648 17.4316 15.2525 17.4316 15.2403C17.4316 15.1853 17.4806 15.1486 17.5295 15.1486C17.5662 15.1486 17.6029 15.1669 17.6212 15.2158L17.9943 16.3474L18.3674 15.2158C18.3858 15.1669 18.4225 15.1486 18.4592 15.1486C18.5081 15.1486 18.557 15.1853 18.557 15.2403C18.557 15.2525 18.5509 15.2648 18.5509 15.277Z" fill="#92A2AD"/>
<path d="M19.4498 16.2128H18.9054V16.3412C18.9054 16.4574 19.0155 16.5614 19.1501 16.5614C19.2235 16.5614 19.2846 16.5431 19.3397 16.488C19.358 16.4574 19.3886 16.4452 19.4192 16.4452C19.4681 16.4452 19.5171 16.488 19.5171 16.5431C19.5171 16.5614 19.5109 16.5798 19.4987 16.5981C19.4987 16.5981 19.4926 16.6103 19.4742 16.6287C19.3947 16.7143 19.2724 16.7571 19.1501 16.7571C18.9299 16.7571 18.7158 16.5798 18.7158 16.3412V15.9804C18.7158 15.7479 18.8993 15.5645 19.1317 15.5645C19.3641 15.5645 19.5476 15.7479 19.5476 15.9804V16.1149C19.5415 16.17 19.4987 16.2128 19.4498 16.2128ZM19.3519 15.9804C19.3519 15.858 19.2541 15.7602 19.1317 15.7602C19.0094 15.7602 18.9115 15.858 18.9115 15.9804V16.0171H19.358V15.9804H19.3519Z" fill="#92A2AD"/>
<path d="M20.3369 15.8407C20.3124 15.8407 20.288 15.8285 20.2696 15.8101L20.2635 15.804C20.2268 15.7734 20.184 15.7612 20.1351 15.7612C20.025 15.7612 19.9516 15.8346 19.9516 15.9997V16.6419C19.9516 16.7031 19.9027 16.7398 19.8537 16.7398C19.8048 16.7398 19.7559 16.7092 19.7559 16.6419V15.9997C19.7559 15.7734 19.8782 15.5716 20.1351 15.5716C20.2268 15.5716 20.3369 15.6083 20.4042 15.6755C20.4225 15.6939 20.4348 15.7184 20.4348 15.7428C20.4348 15.7918 20.3858 15.8407 20.3369 15.8407Z" fill="#92A2AD"/>
<path d="M21.2728 16.7392H20.6489C20.5816 16.7392 20.5449 16.7025 20.5449 16.6597C20.5449 16.6413 20.551 16.6169 20.5633 16.5924L21.0832 15.7851H20.6978C20.6306 15.7851 20.6 15.7361 20.6 15.6872C20.6 15.6383 20.6306 15.5893 20.6978 15.5893H21.2666C21.3278 15.5893 21.3706 15.626 21.3706 15.6689C21.3706 15.6872 21.3645 15.7117 21.3523 15.7361L20.8324 16.5435H21.2789C21.34 16.5435 21.3767 16.5924 21.3767 16.6413C21.3706 16.6903 21.3339 16.7392 21.2728 16.7392Z" fill="#92A2AD"/>
<path d="M22.3004 16.2128H21.756V16.3412C21.756 16.4574 21.8661 16.5614 22.0007 16.5614C22.0741 16.5614 22.1352 16.5431 22.1903 16.488C22.2086 16.4574 22.2392 16.4452 22.2698 16.4452C22.3187 16.4452 22.3676 16.488 22.3676 16.5431C22.3676 16.5614 22.3615 16.5798 22.3493 16.5981C22.3493 16.5981 22.3432 16.6103 22.3248 16.6287C22.2453 16.7143 22.123 16.7571 22.0007 16.7571C21.7805 16.7571 21.5664 16.5798 21.5664 16.3412V15.9804C21.5664 15.7479 21.7499 15.5645 21.9823 15.5645C22.2147 15.5645 22.3982 15.7479 22.3982 15.9804V16.1149C22.3982 16.17 22.3554 16.2128 22.3004 16.2128ZM22.2025 15.9804C22.2025 15.858 22.1046 15.7602 21.9823 15.7602C21.86 15.7602 21.7621 15.858 21.7621 15.9804V16.0171H22.2086V15.9804H22.2025Z" fill="#92A2AD"/>
<path d="M23.3523 16.7388C23.3279 16.7388 23.2973 16.7266 23.2789 16.696L22.9425 16.2495L22.8324 16.3841V16.6409C22.8324 16.7021 22.7835 16.7388 22.7346 16.7388C22.6856 16.7388 22.6367 16.7082 22.6367 16.6409V15.2464C22.6367 15.1853 22.6856 15.1486 22.7346 15.1486C22.7835 15.1486 22.8324 15.1791 22.8324 15.2464V16.0905L23.2361 15.6195C23.2545 15.595 23.285 15.5828 23.3095 15.5828C23.3646 15.5828 23.4074 15.6317 23.4074 15.6807C23.4074 15.699 23.4013 15.7235 23.3829 15.7418L23.0771 16.1027L23.438 16.5798C23.4563 16.5981 23.4563 16.6226 23.4563 16.6348C23.4502 16.696 23.4013 16.7388 23.3523 16.7388Z" fill="#92A2AD"/>
<path d="M24.3614 16.2128H23.817V16.3412C23.817 16.4574 23.9271 16.5614 24.0617 16.5614C24.1351 16.5614 24.1963 16.5431 24.2513 16.488C24.2697 16.4574 24.3002 16.4452 24.3308 16.4452C24.3797 16.4452 24.4287 16.488 24.4287 16.5431C24.4287 16.5614 24.4226 16.5798 24.4103 16.5981C24.4103 16.5981 24.4042 16.6103 24.3859 16.6287C24.3064 16.7143 24.184 16.7571 24.0617 16.7571C23.8415 16.7571 23.6274 16.5798 23.6274 16.3412V15.9804C23.6274 15.7479 23.8109 15.5645 24.0434 15.5645C24.2758 15.5645 24.4593 15.7479 24.4593 15.9804V16.1149C24.4593 16.17 24.4164 16.2128 24.3614 16.2128ZM24.2635 15.9804C24.2635 15.858 24.1657 15.7602 24.0434 15.7602C23.921 15.7602 23.8232 15.858 23.8232 15.9804V16.0171H24.2697V15.9804H24.2635Z" fill="#92A2AD"/>
<path d="M25.2544 15.8407C25.2299 15.8407 25.2055 15.8285 25.1871 15.8101L25.181 15.804C25.1443 15.7734 25.1015 15.7612 25.0526 15.7612C24.9425 15.7612 24.8691 15.8346 24.8691 15.9997V16.6419C24.8691 16.7031 24.8201 16.7398 24.7712 16.7398C24.7223 16.7398 24.6733 16.7092 24.6733 16.6419V15.9997C24.6733 15.7734 24.7957 15.5716 25.0526 15.5716C25.1443 15.5716 25.2544 15.6083 25.3217 15.6755C25.34 15.6939 25.3522 15.7184 25.3522 15.7428C25.3522 15.7918 25.3033 15.8407 25.2544 15.8407Z" fill="#92A2AD"/>
<path d="M25.6276 15.4605C25.5787 15.4605 25.5298 15.4299 25.5298 15.3626V15.2464C25.5298 15.1853 25.5787 15.1486 25.6276 15.1486C25.6766 15.1486 25.7255 15.1791 25.7255 15.2464V15.3626C25.7255 15.4238 25.6766 15.4605 25.6276 15.4605ZM25.6276 16.7388C25.5787 16.7388 25.5298 16.7082 25.5298 16.6409V15.6807C25.5298 15.6195 25.5787 15.5828 25.6276 15.5828C25.6766 15.5828 25.7255 15.6134 25.7255 15.6807V16.6409C25.7255 16.7021 25.6766 16.7388 25.6276 16.7388Z" fill="#92A2AD"/>
<path d="M26.7095 16.7388C26.6606 16.7388 26.6117 16.7082 26.6117 16.6409V15.9804C26.6117 15.858 26.5138 15.7602 26.3915 15.7602C26.2692 15.7602 26.1713 15.858 26.1713 15.9804V16.6409C26.1713 16.7021 26.1224 16.7388 26.0734 16.7388C26.0245 16.7388 25.9756 16.7082 25.9756 16.6409V15.9804C25.9756 15.7479 26.1591 15.5645 26.3915 15.5645C26.6239 15.5645 26.8074 15.7479 26.8074 15.9804V16.6409C26.8074 16.7021 26.7585 16.7388 26.7095 16.7388Z" fill="#92A2AD"/>
<path d="M27.4623 17.1241C27.3461 17.1241 27.1871 17.0691 27.1137 16.9651C27.1014 16.9467 27.0953 16.9284 27.0953 16.91C27.0953 16.855 27.1442 16.8122 27.1932 16.8122C27.2238 16.8122 27.2482 16.8244 27.2727 16.855C27.2727 16.855 27.2727 16.855 27.2788 16.8611C27.3277 16.91 27.395 16.9284 27.4623 16.9284C27.5846 16.9284 27.6825 16.8305 27.6825 16.7082V16.6532C27.6213 16.696 27.5418 16.7143 27.4623 16.7143C27.2299 16.7143 27.0464 16.5308 27.0464 16.2984V15.9804C27.0464 15.7479 27.2299 15.5645 27.4623 15.5645C27.6947 15.5645 27.8782 15.7479 27.8782 15.9804V16.2984V16.7021C27.8782 16.9406 27.6886 17.1241 27.4623 17.1241ZM27.6825 15.9804C27.6825 15.858 27.5846 15.7602 27.4623 15.7602C27.34 15.7602 27.2421 15.858 27.2421 15.9804V16.2984C27.2421 16.4207 27.34 16.5186 27.4623 16.5186C27.5846 16.5186 27.6825 16.4207 27.6825 16.2984V15.9804Z" fill="#92A2AD"/>
<path d="M28.8502 16.2128H28.3058V16.3412C28.3058 16.4574 28.4159 16.5614 28.5505 16.5614C28.6239 16.5614 28.685 16.5431 28.7401 16.488C28.7645 16.4574 28.789 16.4452 28.8196 16.4452C28.8685 16.4452 28.9174 16.488 28.9174 16.5431C28.9174 16.5614 28.9113 16.5798 28.8991 16.5981C28.8991 16.5981 28.893 16.6103 28.8746 16.6287C28.7951 16.7143 28.6728 16.7571 28.5505 16.7571C28.3303 16.7571 28.1162 16.5798 28.1162 16.3412V15.9804C28.1162 15.7479 28.2997 15.5645 28.5321 15.5645C28.7645 15.5645 28.948 15.7479 28.948 15.9804V16.1149C28.9419 16.17 28.8991 16.2128 28.8502 16.2128ZM28.7523 15.9804C28.7523 15.858 28.6544 15.7602 28.5321 15.7602C28.4098 15.7602 28.3119 15.858 28.3119 15.9804V16.0171H28.7584V15.9804H28.7523Z" fill="#92A2AD"/>
<path d="M29.8975 16.7388C29.8486 16.7388 29.7997 16.7082 29.7997 16.6409V15.9804C29.7997 15.858 29.7018 15.7602 29.5795 15.7602C29.4572 15.7602 29.3593 15.858 29.3593 15.9804V16.6409C29.3593 16.7021 29.3104 16.7388 29.2614 16.7388C29.2125 16.7388 29.1636 16.7082 29.1636 16.6409V15.9804C29.1636 15.7479 29.3471 15.5645 29.5795 15.5645C29.8119 15.5645 29.9954 15.7479 29.9954 15.9804V16.6409C29.9954 16.7021 29.9465 16.7388 29.8975 16.7388Z" fill="#92A2AD"/>
</svg>
