<svg width="24" height="24" viewBox="0 0 24 24" fill="none" xmlns="http://www.w3.org/2000/svg">
<path d="M4 13H7M15 6.99989C16.1046 6.99989 17 7.89532 17 8.99989V16.4587C17 17.1113 16.6816 17.7229 16.1469 18.0971L12 21L7.85307 18.0971C7.31842 17.7229 7 17.1113 7 16.4587V8.99989C7 7.89532 7.89543 6.99989 9 6.99989C9.00006 5.34309 10.3432 4 12 4C13.6568 4 14.9999 5.34309 15 6.99989Z" stroke="black" stroke-linecap="square"/>
<path d="M3 7L5 9H7" stroke="black" stroke-linecap="square"/>
<path d="M21 7L19 9H17" stroke="black" stroke-linecap="square"/>
<path d="M3 19L5 17H7" stroke="black" stroke-linecap="square"/>
<path d="M17 17H19L21 19" stroke="black" stroke-linecap="square"/>
<path d="M17 13H20" stroke="black" stroke-linecap="square"/>
</svg>
