<svg width="24" height="24" viewBox="0 0 24 24" fill="none" xmlns="http://www.w3.org/2000/svg">
<path d="M5 11L7 5H17L19 11M5 11H19M5 11V17M19 11V17M5 17V19H6V17M5 17H6M19 17V19H18V17M19 17H18M6 17H18" stroke="black" stroke-linecap="square"/>
<path d="M8 15C8.55228 15 9 14.5523 9 14C9 13.4477 8.55228 13 8 13C7.44772 13 7 13.4477 7 14C7 14.5523 7.44772 15 8 15Z" stroke="black" stroke-linecap="square"/>
<path d="M16 15C16.5523 15 17 14.5523 17 14C17 13.4477 16.5523 13 16 13C15.4477 13 15 13.4477 15 14C15 14.5523 15.4477 15 16 15Z" stroke="black" stroke-linecap="square"/>
</svg>
