<svg width="24" height="24" viewBox="0 0 24 24" fill="none" xmlns="http://www.w3.org/2000/svg">
<path d="M16 9C16 10.1046 16.8954 11 18 11C19.1046 11 20 10.1046 20 9C20 7.89543 19.1046 7 18 7C16.8954 7 16 7.89543 16 9Z" stroke="black" stroke-linecap="square"/>
<path d="M18 4V7" stroke="black" stroke-linecap="square"/>
<path d="M18 11V20" stroke="black" stroke-linecap="square"/>
<path d="M4 9C4 10.1046 4.89543 11 6 11C7.10457 11 8 10.1046 8 9C8 7.89543 7.10457 7 6 7C4.89543 7 4 7.89543 4 9Z" stroke="black" stroke-linecap="square"/>
<path d="M6 4V7" stroke="black" stroke-linecap="square"/>
<path d="M6 11V20" stroke="black" stroke-linecap="square"/>
<path d="M10 15C10 16.1046 10.8954 17 12 17C13.1046 17 14 16.1046 14 15C14 13.8954 13.1046 13 12 13C10.8954 13 10 13.8954 10 15Z" stroke="black" stroke-linecap="square"/>
<path d="M12 4V13" stroke="black" stroke-linecap="square"/>
<path d="M12 17V20" stroke="black" stroke-linecap="square"/>
</svg>
