<svg width="24" height="24" viewBox="0 0 24 24" fill="none" xmlns="http://www.w3.org/2000/svg">
<path d="M9 8C10.1046 8 11 7.10457 11 6C11 4.89543 10.1046 4 9 4C7.89543 4 7 4.89543 7 6C7 7.10457 7.89543 8 9 8Z" stroke="black" stroke-linecap="square"/>
<path d="M4 6H7" stroke="black" stroke-linecap="square"/>
<path d="M11 6H20" stroke="black" stroke-linecap="square"/>
<path d="M9 20C10.1046 20 11 19.1046 11 18C11 16.8954 10.1046 16 9 16C7.89543 16 7 16.8954 7 18C7 19.1046 7.89543 20 9 20Z" stroke="black" stroke-linecap="square"/>
<path d="M4 18H7" stroke="black" stroke-linecap="square"/>
<path d="M11 18H20" stroke="black" stroke-linecap="square"/>
<path d="M15 14C16.1046 14 17 13.1046 17 12C17 10.8954 16.1046 10 15 10C13.8954 10 13 10.8954 13 12C13 13.1046 13.8954 14 15 14Z" stroke="black" stroke-linecap="square"/>
<path d="M4 12H13" stroke="black" stroke-linecap="square"/>
<path d="M17 12H20" stroke="black" stroke-linecap="square"/>
</svg>
