<svg width="24" height="24" viewBox="0 0 24 24" fill="none" xmlns="http://www.w3.org/2000/svg">
<path d="M12.6714 11.316C9.75297 13.105 10.0525 15.3204 10.5671 16.2044C11.0816 17.0885 12.8404 18.4093 15.7589 16.6203C18.6773 14.8312 19.5938 11.8705 19.6873 10.6137C18.5647 10.1024 15.5899 9.52695 12.6714 11.316Z" stroke="black" stroke-linecap="round"/>
<path d="M11.2724 12C9.1081 10.4659 4.85717 11.0871 3.96504 11.4231C3.97469 12.3983 4.61067 14.5044 6.77497 16.0385C8.82565 17.4921 10.1481 17.1923 10.7102 16.6154" stroke="black" stroke-linecap="round"/>
<path d="M11.2725 17.1923L11.2725 19.5" stroke="black" stroke-linecap="square" stroke-linejoin="round"/>
<path d="M5.65088 10.2692C5.65088 7.08297 8.16781 4.5 11.2726 4.5C14.2575 4.5 16.699 6.88725 16.8832 9.90276" stroke="black" stroke-linecap="square" stroke-linejoin="round"/>
</svg>
