<svg width="24" height="24" viewBox="0 0 24 24" fill="none" xmlns="http://www.w3.org/2000/svg">
<path d="M4 17H2V7H15V17H8" stroke="black" stroke-linecap="square"/>
<path d="M20 17H22V12.5556L20 9H15V17H16" stroke="black" stroke-linecap="square"/>
<path d="M6 19C7.10457 19 8 18.1046 8 17C8 15.8954 7.10457 15 6 15C4.89543 15 4 15.8954 4 17C4 18.1046 4.89543 19 6 19Z" stroke="black" stroke-linecap="square"/>
<path d="M18 19C19.1046 19 20 18.1046 20 17C20 15.8954 19.1046 15 18 15C16.8954 15 16 15.8954 16 17C16 18.1046 16.8954 19 18 19Z" stroke="black" stroke-linecap="square"/>
</svg>
