<svg width="34" height="24" viewBox="0 0 34 24" fill="none" xmlns="http://www.w3.org/2000/svg">
<rect x="0.5" y="0.5" width="33" height="23" rx="3.5" fill="white" stroke="#E5E5E5"/>
<path d="M4.08887 3.6048H29.904V20.4024H4.09598L4.08887 3.6048Z" fill="white"/>
<path d="M29.815 12.9477C29.815 12.9477 22.761 18.0315 9.84277 20.3116H29.815V12.9477Z" fill="#F48120"/>
<path d="M29.904 3.50675H4V20.5H30V3.5H29.904V3.50675ZM29.8152 3.69567C29.8152 3.88459 29.8152 20.1154 29.8152 20.3043C29.6303 20.3043 4.37629 20.3043 4.19145 20.3043C4.19145 20.1154 4.19145 3.88459 4.19145 3.69567C4.37629 3.69567 29.6237 3.69567 29.8152 3.69567Z" fill="#231F20"/>
<path d="M6.27129 8.70266H5.19727V12.5491H6.27129C6.83902 12.5491 7.24984 12.4095 7.61242 12.1085C8.04355 11.7446 8.29645 11.1991 8.29645 10.6329C8.28984 9.49313 7.46211 8.70266 6.27129 8.70266ZM7.13355 11.5978C6.90098 11.8074 6.60695 11.9055 6.12758 11.9055H5.92953V9.36026H6.12809C6.60035 9.36026 6.88777 9.44434 7.13406 9.66804C7.38746 9.899 7.53777 10.2556 7.53777 10.6261C7.53727 10.9967 7.38645 11.3673 7.13355 11.5978Z" fill="#231F20"/>
<path d="M9.36459 8.70266H8.63232V12.5491H9.36459V8.70266Z" fill="#231F20"/>
<path d="M11.1563 10.1782C10.7186 10.0106 10.5886 9.89848 10.5886 9.69555C10.5886 9.45057 10.8212 9.26891 11.136 9.26891C11.3549 9.26891 11.5397 9.35974 11.7246 9.58344L12.1079 9.07272C11.7931 8.79297 11.4168 8.64609 10.9994 8.64609C10.3357 8.64609 9.82279 9.12151 9.82279 9.75108C9.82279 10.2826 10.0625 10.555 10.7465 10.8073C11.0339 10.9121 11.1776 10.9822 11.2528 11.0242C11.3965 11.1223 11.4717 11.262 11.4717 11.4228C11.4717 11.7374 11.232 11.9683 10.9039 11.9683C10.5551 11.9683 10.2742 11.7867 10.1036 11.4576L9.63135 11.9263C9.9665 12.437 10.3773 12.6607 10.9313 12.6607C11.691 12.6607 12.2313 12.1432 12.2313 11.3948C12.2446 10.7725 11.9912 10.4928 11.1563 10.1782Z" fill="#231F20"/>
<path d="M12.4702 10.6329C12.4702 11.7659 13.3391 12.64 14.4542 12.64C14.7691 12.64 15.0428 12.5772 15.3708 12.4163V11.535C15.0768 11.8355 14.8168 11.9543 14.4883 11.9543C13.7494 11.9543 13.2223 11.4088 13.2223 10.6256C13.2223 9.88448 13.7626 9.30369 14.4537 9.30369C14.8026 9.30369 15.0697 9.42981 15.3703 9.73707V8.85578C15.0489 8.68813 14.7818 8.61806 14.4669 8.61806C13.3665 8.61858 12.4702 9.51389 12.4702 10.6329Z" fill="#231F20"/>
<path d="M21.2013 11.29L20.1953 8.70266H19.395L20.989 12.6467H21.3862L23.0076 8.70266H22.2139L21.2013 11.29Z" fill="#231F20"/>
<path d="M23.3423 12.5491H25.4223V11.8988H24.0746V10.8639H25.3746V10.213H24.0746V9.36026H25.4223V8.70266H23.3423V12.5491Z" fill="#231F20"/>
<path d="M28.3304 9.84243C28.3304 9.12203 27.8445 8.70941 26.9964 8.70941H25.9087V12.5559H26.641V11.0102H26.7369L27.7495 12.5559H28.6529L27.4692 10.9334C28.0227 10.8146 28.3304 10.43 28.3304 9.84243ZM26.8527 10.4788H26.6404V9.31096H26.8664C27.325 9.31096 27.5713 9.50663 27.5713 9.88447C27.5713 10.2691 27.325 10.4788 26.8527 10.4788Z" fill="#231F20"/>
<path d="M17.6225 12.6887C18.7298 12.6887 19.6274 11.7713 19.6274 10.6396C19.6274 9.50796 18.7298 8.59055 17.6225 8.59055C16.5153 8.59055 15.6177 9.50796 15.6177 10.6396C15.6177 11.7713 16.5153 12.6887 17.6225 12.6887Z" fill="url(#paint0_linear_32_1430)"/>
<path opacity="0.65" d="M17.6225 12.6887C18.7298 12.6887 19.6274 11.7713 19.6274 10.6396C19.6274 9.50796 18.7298 8.59055 17.6225 8.59055C16.5153 8.59055 15.6177 9.50796 15.6177 10.6396C15.6177 11.7713 16.5153 12.6887 17.6225 12.6887Z" fill="url(#paint1_linear_32_1430)"/>
<path d="M28.7961 8.84945C28.7961 8.77941 28.7483 8.74465 28.6727 8.74465H28.563V9.08031H28.6453V8.9475L28.7412 9.08031H28.8372L28.7275 8.94076C28.7687 8.93349 28.7961 8.89822 28.7961 8.84945ZM28.659 8.89822H28.6453V8.80743H28.659C28.7001 8.80743 28.7204 8.82143 28.7204 8.84945C28.7204 8.88421 28.7001 8.89822 28.659 8.89822Z" fill="#231F20"/>
<path d="M28.6863 8.61858C28.5289 8.61858 28.3989 8.7514 28.3989 8.91222C28.3989 9.07305 28.5289 9.20586 28.6863 9.20586C28.8438 9.20586 28.9738 9.07305 28.9738 8.91222C28.9738 8.7514 28.8438 8.61858 28.6863 8.61858ZM28.6863 9.1571C28.5629 9.1571 28.4538 9.0523 28.4538 8.91222C28.4538 8.77941 28.5563 8.66735 28.6863 8.66735C28.8097 8.66735 28.9123 8.77941 28.9123 8.91222C28.9123 9.04504 28.8097 9.1571 28.6863 9.1571Z" fill="#231F20"/>
<defs>
<linearGradient id="paint0_linear_32_1430" x1="18.6472" y1="12.2795" x2="17.218" y2="10.0902" gradientUnits="userSpaceOnUse">
<stop stop-color="#F89F20"/>
<stop offset="0.2502" stop-color="#F79A20"/>
<stop offset="0.5331" stop-color="#F68D20"/>
<stop offset="0.6196" stop-color="#F58720"/>
<stop offset="0.7232" stop-color="#F48120"/>
<stop offset="1" stop-color="#F37521"/>
</linearGradient>
<linearGradient id="paint1_linear_32_1430" x1="18.4284" y1="12.2497" x2="16.3321" y2="8.24069" gradientUnits="userSpaceOnUse">
<stop stop-color="#F58720"/>
<stop offset="0.3587" stop-color="#E16F27"/>
<stop offset="0.703" stop-color="#D4602C"/>
<stop offset="0.9816" stop-color="#D05B2E"/>
</linearGradient>
</defs>
</svg>
