<svg width="34" height="24" viewBox="0 0 34 24" fill="none" xmlns="http://www.w3.org/2000/svg">
<rect x="0.5" y="0.5" width="33" height="23" rx="3.5" fill="white" stroke="#E5E5E5"/>
<path d="M30.9736 13.0038C30.9565 12.3855 30.9565 11.946 30.9565 11.3247C30.9565 10.5496 30.9694 9.77414 30.9736 9H30.4023V10.9179C30.3194 10.809 30.2893 10.7766 30.2215 10.7145C30.0661 10.579 29.8097 10.4242 29.4331 10.4242C29.3227 10.4242 28.8175 10.431 28.4226 10.8626C27.9447 11.3755 27.9844 12.0695 27.9844 12.173C27.9919 12.3958 28.0209 12.6441 28.1127 12.8743C28.2663 13.2699 28.6303 13.7581 29.3847 13.7581C29.466 13.7581 29.9061 13.7581 30.2386 13.4286C30.2996 13.3794 30.3409 13.3247 30.4367 13.1954L30.4614 13.6838H30.9998C30.9851 13.4286 30.9826 13.2565 30.9736 13.0038ZM30.4122 12.112C30.4122 12.1692 30.4081 12.3618 30.3465 12.5579C30.197 13.0098 29.8586 13.2565 29.4811 13.2565C29.1764 13.2565 28.8719 13.0902 28.7028 12.7297C28.609 12.5283 28.5723 12.2976 28.5847 12.0751C28.5847 11.9951 28.5891 11.809 28.668 11.582C28.8762 10.9878 29.3487 10.9296 29.5054 10.9296C29.8688 10.9296 30.2025 11.1735 30.3465 11.6155C30.3708 11.7096 30.4196 11.882 30.4122 12.112ZM27.5858 10.9605C27.7411 10.9605 27.8196 10.988 27.9739 11.0371V10.4779C27.9449 10.4752 27.7724 10.4485 27.6285 10.4485C27.3965 10.4485 27.1024 10.5046 26.8764 10.7766C26.838 10.8199 26.7862 10.9063 26.7186 11.019L26.69 10.4858H26.1501C26.169 10.8867 26.1787 11.1662 26.1787 11.5613C26.1787 12.0245 26.1761 12.3514 26.1761 12.8103V13.6838H26.7559V12.1182C26.7761 11.815 26.7902 11.4133 27.1024 11.1406C27.3103 10.9605 27.5146 10.9605 27.5858 10.9605ZM25.015 13.6838H25.5039V11.619C25.5039 11.2995 25.4297 11.0292 25.3438 10.9001C25.177 10.6207 24.8122 10.4242 24.3098 10.4242C23.6997 10.4242 23.3907 10.6428 23.3063 10.6943V11.1971C23.4349 11.1206 23.8044 10.894 24.2019 10.894C24.5904 10.894 24.8295 11.1173 24.9097 11.3262C24.9557 11.4572 24.9674 11.6147 24.9674 11.7482C24.8194 11.7408 24.6616 11.7348 24.5079 11.7348C24.1921 11.7348 23.8144 11.7482 23.4986 11.9029C23.2532 12.0203 22.9175 12.2473 22.9175 12.7598C22.9175 13.1103 23.0811 13.3674 23.2404 13.5023C23.4199 13.6544 23.6607 13.7135 23.9053 13.7282C24.2701 13.7391 24.5179 13.6275 24.6761 13.5157C24.8122 13.4122 24.8954 13.3126 25.015 13.176V13.6838ZM24.9815 12.243C24.9815 12.4542 24.9627 12.5771 24.9329 12.6751C24.9211 12.7179 24.8845 12.8242 24.7896 12.9486C24.6039 13.201 24.3599 13.2872 24.1307 13.2872C23.8675 13.2872 23.5174 13.1504 23.5174 12.7749C23.5174 12.402 23.8445 12.243 24.1307 12.173C24.217 12.1553 24.3531 12.1389 24.5514 12.1389C24.6947 12.1389 24.8382 12.1432 24.9815 12.1553V12.243ZM21.9383 13.7327C22.322 13.7327 22.5296 13.6471 22.7088 13.5667L22.6661 13.0525C22.5554 13.1013 22.3028 13.2249 21.9987 13.2249C21.9554 13.2249 21.7573 13.2249 21.5927 13.1378C21.1073 12.898 20.9881 12.4092 20.9881 12.0454C20.9881 11.5078 21.2579 11.1971 21.5304 11.0482C21.7775 10.91 21.9987 10.9179 22.0874 10.9179C22.3143 10.9292 22.4936 11.0098 22.5845 11.0546L22.6143 10.5345C22.5124 10.5093 22.2744 10.4305 21.9987 10.4242C21.3583 10.4052 20.9581 10.7022 20.7239 11.0098C20.4567 11.3586 20.3851 11.7841 20.3966 12.1389C20.4194 12.9891 20.9047 13.4476 21.3301 13.62C21.443 13.671 21.6453 13.7282 21.9383 13.7327ZM19.5784 13.3318C19.9484 12.9592 20.0548 12.4525 20.0492 12.0433C20.0319 11.2577 19.6202 10.7888 19.2304 10.5837C19.0947 10.5167 18.8608 10.4305 18.5333 10.4305C17.8155 10.4305 17.3545 10.8022 17.1338 11.1843C16.977 11.4572 16.9197 11.7723 16.9113 12.0943C16.9052 12.7365 17.1338 13.1146 17.4076 13.3808C17.4739 13.4361 17.5396 13.4869 17.6116 13.5296C17.7908 13.6471 18.0481 13.7448 18.4714 13.7448C18.7958 13.7448 19.0097 13.6838 19.1476 13.62C19.2913 13.5588 19.4477 13.4609 19.5784 13.3318ZM19.4534 12.0542C19.4534 12.4035 19.3446 12.9157 18.915 13.1579C18.829 13.201 18.6813 13.2699 18.4714 13.2699C18.4241 13.2699 18.2503 13.2637 18.0838 13.1831C18.0481 13.1639 18.0123 13.1446 17.9272 13.0823C17.8398 13.0168 17.7193 12.8846 17.6232 12.662C17.5396 12.4658 17.5114 12.2548 17.5169 12.0433C17.5272 11.6 17.7119 11.2848 17.9048 11.1227C18.0311 11.0171 18.2332 10.894 18.5333 10.894C19.0286 10.9001 19.2481 11.24 19.3568 11.4999C19.3918 11.5936 19.4534 11.8018 19.4534 12.0542ZM13.8213 9.72464H14.4375V9.09336H13.8213V9.72464ZM12.88 14.5795C13.1184 14.2648 13.1372 13.9383 13.1544 13.268L13.1472 10.4858H12.6115V10.9799C12.593 10.9503 12.4896 10.7888 12.3531 10.6785C12.2111 10.5539 11.9473 10.4173 11.5878 10.4231C11.2666 10.4231 11.0135 10.546 10.8888 10.6281C10.681 10.7651 10.5719 10.9063 10.5126 10.9945C10.2618 11.3397 10.1953 11.7542 10.1953 12.1062C10.1953 12.1942 10.1953 12.4969 10.2902 12.7805C10.3147 12.8609 10.4222 13.2187 10.7384 13.4848C10.9135 13.6275 11.1815 13.77 11.5878 13.7506C11.8147 13.7391 12.126 13.6648 12.3531 13.4732C12.4252 13.4109 12.468 13.3689 12.5685 13.2321L12.564 13.671C12.5514 13.8135 12.5439 13.956 12.4896 14.0967C12.461 14.1845 12.4119 14.2648 12.346 14.3394C12.1923 14.5172 11.9957 14.6096 11.6183 14.623C11.2478 14.623 10.9435 14.5353 10.8041 14.4871C10.6504 14.4312 10.5542 14.3702 10.4881 14.3333L10.4284 14.8903C10.5184 14.9266 10.5849 14.9511 10.681 14.9838C10.8346 15.0328 11.1717 15.119 11.582 15.119C12.0245 15.119 12.3058 15.0179 12.497 14.9144C12.7083 14.7909 12.8083 14.6795 12.88 14.5795ZM12.593 12.1062C12.593 12.1863 12.593 12.5035 12.4081 12.7928C12.2166 13.0943 11.9294 13.2383 11.6784 13.2383C11.4632 13.2383 11.2421 13.1451 11.0915 13.0038C10.8659 12.7805 10.8002 12.4226 10.8002 12.0806C10.8041 11.5978 10.9435 11.3262 11.1717 11.1173C11.2594 11.0292 11.4385 10.9129 11.673 10.9129C11.8334 10.9129 12.0362 10.9744 12.2038 11.1094C12.6115 11.4498 12.593 12.0751 12.593 12.1062ZM14.4217 10.4858H13.859V13.6844H14.4217V10.4858ZM16.5126 10.9605C16.668 10.9605 16.7463 10.988 16.9005 11.0371V10.4779C16.8717 10.4752 16.6992 10.4485 16.5552 10.4485C16.3234 10.4485 16.0292 10.5046 15.8033 10.7766C15.7647 10.8199 15.7131 10.9063 15.6453 11.019L15.6168 10.4858H15.077C15.0958 10.8867 15.1054 11.1662 15.1054 11.5613C15.1054 12.0245 15.103 12.3514 15.103 12.8103V13.6838H15.6826V12.1182C15.7029 11.815 15.7168 11.4133 16.0292 11.1406C16.2369 10.9605 16.4412 10.9605 16.5126 10.9605Z" fill="#1F3A6A"/>
<path d="M7.53409 10.6188H7.01949V10.7437H7.42461L8.44613 14.512H3.21957L4.24109 10.7437H4.64621V10.6188H4.13149L3 14.6657H8.6657L7.53409 10.6188Z" fill="#1F3A6A"/>
<path d="M6.84222 9H4.82409C4.711 9 4.61914 9.06816 4.61914 9.15188V10.6188H4.77085V9.15188C4.77085 9.13055 4.79519 9.11251 4.82409 9.11251H5.20031V10.1705H4.80491L5.37132 10.6188H6.295L6.86141 10.1705H6.46601V9.11251H6.84222C6.87113 9.11251 6.89547 9.13055 6.89547 9.15188V10.6188H7.0473V9.15188C7.0473 9.06816 6.95532 9 6.84222 9Z" fill="#5DC4E9"/>
<path d="M5.50495 10.6188C5.46532 10.6188 5.43106 10.6581 5.42877 10.7059L5.40863 11.122C5.40634 11.1698 5.4369 11.2089 5.47643 11.2089H6.18977C6.22929 11.2089 6.25969 11.1698 6.2574 11.122L6.23743 10.7059C6.23514 10.6581 6.20088 10.6188 6.16125 10.6188H5.50495ZM6.46884 10.6188C6.42931 10.6188 6.39973 10.6579 6.40305 10.7057L6.43259 11.1224C6.43591 11.1701 6.4711 11.2089 6.51062 11.2089H7.22917C7.26869 11.2089 7.29468 11.1705 7.28689 11.1236L7.21675 10.7043C7.20885 10.6574 7.17002 10.6188 7.1305 10.6188H6.46884ZM4.53235 10.619C4.49282 10.619 4.45405 10.6573 4.44626 10.7043L4.37645 11.1236C4.36866 11.1706 4.39466 11.2091 4.43418 11.2091H5.15558C5.1951 11.2091 5.23029 11.1699 5.23361 11.1222L5.26314 10.7057C5.26647 10.658 5.23672 10.619 5.1972 10.619H4.53235ZM4.41438 11.3899C4.36913 11.3899 4.32498 11.4338 4.31604 11.4873L4.22576 12.0302C4.21683 12.0838 4.24646 12.1276 4.29171 12.1276H5.08023C5.12548 12.1276 5.16561 12.083 5.16951 12.0285L5.2076 11.489C5.21149 11.4345 5.17767 11.3899 5.13242 11.3899H4.41438ZM5.47794 11.3899C5.4328 11.3899 5.39365 11.4345 5.39101 11.4892L5.36483 12.0283C5.3622 12.083 5.39723 12.1276 5.44236 12.1276H6.22367C6.26892 12.1276 6.30395 12.083 6.3012 12.0283L6.27519 11.4892C6.27255 11.4345 6.23334 11.3899 6.18809 11.3899H5.47794ZM6.53361 11.3899C6.48847 11.3899 6.4547 11.4345 6.4586 11.4892L6.49669 12.0285C6.50047 12.0832 6.54071 12.1276 6.58596 12.1276H7.37231C7.41744 12.1276 7.44719 12.0838 7.43825 12.0302L7.34764 11.4873C7.3387 11.4337 7.29427 11.3899 7.24914 11.3899H6.53361ZM4.27694 12.3405C4.22047 12.3405 4.16505 12.3954 4.15394 12.4623L4.04117 13.1408C4.03006 13.2078 4.06698 13.2628 4.12357 13.2628H4.97955C5.03603 13.2628 5.08622 13.207 5.09114 13.1388L5.1388 12.4643C5.14361 12.3961 5.10114 12.3405 5.04466 12.3405H4.27694ZM5.4526 12.3405C5.39601 12.3405 5.34707 12.3963 5.34386 12.4645L5.31147 13.1386C5.30804 13.2069 5.35165 13.2626 5.40813 13.2626H6.2579C6.31449 13.2626 6.35805 13.2069 6.35473 13.1386L6.32217 12.4645C6.31897 12.3963 6.27002 12.3405 6.21343 12.3405H5.4526ZM6.62154 12.3405C6.56495 12.3405 6.52259 12.3961 6.5274 12.4643L6.57506 13.1388C6.57998 13.207 6.63017 13.2626 6.68665 13.2626H7.54129C7.59776 13.2626 7.63491 13.2078 7.62368 13.1408L7.51041 12.4623C7.49919 12.3952 7.44372 12.3405 7.38724 12.3405H6.62154ZM4.10259 13.513C4.03477 13.513 3.96832 13.5788 3.95492 13.6593L3.81195 14.5195C3.79855 14.6 3.84314 14.6657 3.91096 14.6657H4.85974C4.92755 14.6657 4.98775 14.5988 4.99348 14.5171L5.05406 13.6617C5.0599 13.5798 5.00911 13.513 4.94129 13.513H4.10259ZM5.41652 13.513C5.34882 13.513 5.28997 13.58 5.28596 13.6619L5.24485 14.5168C5.24084 14.5986 5.2931 14.6657 5.36081 14.6657H6.30522C6.37304 14.6657 6.42524 14.5986 6.42135 14.5168L6.38007 13.6619C6.37605 13.58 6.31733 13.513 6.24951 13.513H5.41652ZM6.72491 13.513C6.65709 13.513 6.6063 13.5799 6.61214 13.6617L6.67255 14.5171C6.67839 14.5988 6.73865 14.6657 6.80646 14.6657H7.75524C7.82306 14.6657 7.8676 14.6 7.85408 14.5195L7.71044 13.6593C7.69692 13.5788 7.63042 13.513 7.5626 13.513H6.72491Z" fill="#1F3A6A"/>
</svg>
