<svg width="24" height="24" viewBox="0 0 24 24" fill="none" xmlns="http://www.w3.org/2000/svg">
<g clip-path="url(#clip0_51_4699)">
<path fill-rule="evenodd" clip-rule="evenodd" d="M16.0363 7.45654C15.0038 6.47179 13.6259 5.93532 12.2002 5.95736C9.59134 5.95736 7.37566 7.71741 6.58564 10.0874C6.16676 11.3294 6.16676 12.6743 6.58564 13.9162H6.58931C7.38299 16.2826 9.59501 18.0426 12.2039 18.0426C13.5505 18.0426 14.7067 17.6982 15.6027 17.0898V17.0873C16.6573 16.3891 17.3775 15.2905 17.6016 14.0485H12.2002V10.1977H21.6325C21.7501 10.8665 21.8052 11.5499 21.8052 12.2297C21.8052 15.2712 20.7182 17.8427 18.8269 19.5844L18.8289 19.5859C17.1717 21.1145 14.8972 22 12.2002 22C8.41918 22 4.96153 19.8688 3.26394 16.492C1.84561 13.6664 1.84561 10.3373 3.26395 7.51168C4.96154 4.13119 8.41918 1.99999 12.2002 1.99999C14.6841 1.97059 17.0835 2.9039 18.8913 4.60149L16.0363 7.45654Z" fill="black"/>
</g>
<defs>
<clipPath id="clip0_51_4699">
<rect width="20" height="20" fill="white" transform="translate(2 2)"/>
</clipPath>
</defs>
</svg>
