<svg width="34" height="24" viewBox="0 0 34 24" fill="none" xmlns="http://www.w3.org/2000/svg">
<rect x="0.5" y="0.5" width="33" height="23" rx="3.5" fill="white" stroke="#E5E5E5"/>
<g clip-path="url(#clip0_32_1134)">
<path d="M8 5.18606V18.8139C8 19.4663 8.52924 20 9.17609 20H17.2499C23.3538 20 26 16.5545 26 11.9822C26 7.43366 23.3538 4 17.2499 4H9.17609C8.52924 4 8 4.53373 8 5.18606Z" fill="white"/>
<path d="M13.4043 7.3447V17.4144H17.7499C21.6957 17.4144 23.4069 15.1668 23.4069 11.9881C23.4069 8.94588 21.6957 6.58562 17.7499 6.58562H14.157C13.7395 6.58562 13.4043 6.92958 13.4043 7.3447Z" fill="#CC0066"/>
<path d="M17.2499 18.9148H10.2287C9.60533 18.9148 9.09961 18.4047 9.09961 17.7761V6.2298C9.09961 5.60119 9.60533 5.09118 10.2287 5.09118H17.2499C23.9124 5.09118 24.9062 9.41438 24.9062 11.9881C24.9062 16.4537 22.1836 18.9148 17.2499 18.9148ZM10.2287 5.47072C9.81114 5.47072 9.47596 5.80875 9.47596 6.2298V17.7761C9.47596 18.1972 9.81114 18.5352 10.2287 18.5352H17.2499C21.9425 18.5352 24.5299 16.2105 24.5299 11.9881C24.5299 6.31875 19.9666 5.47072 17.2499 5.47072H10.2287Z" fill="#010000"/>
<path d="M14.9328 10.6301C15.0857 10.6301 15.2269 10.6538 15.3621 10.7013C15.4974 10.7487 15.6091 10.8258 15.7091 10.9207C15.8031 11.0215 15.8796 11.146 15.9384 11.2884C15.9913 11.4366 16.0207 11.6086 16.0207 11.8102C16.0207 11.9881 15.9972 12.1483 15.956 12.2965C15.909 12.4448 15.8443 12.5752 15.7561 12.682C15.6679 12.7887 15.5562 12.8718 15.4209 12.937C15.2857 12.9963 15.1269 13.0319 14.9446 13.0319H13.9155V10.6242H14.9328V10.6301ZM14.8976 12.593C14.974 12.593 15.0446 12.5812 15.121 12.5575C15.1916 12.5337 15.2563 12.4922 15.3092 12.4329C15.3621 12.3736 15.4092 12.3024 15.4444 12.2076C15.4797 12.1127 15.4974 12.0059 15.4974 11.8695C15.4974 11.7509 15.4856 11.6383 15.4621 11.5434C15.4386 11.4485 15.3974 11.3595 15.3445 11.2943C15.2915 11.2291 15.221 11.1698 15.1328 11.1342C15.0446 11.0986 14.9387 11.0808 14.8094 11.0808H14.433V12.599H14.8976V12.593Z" fill="white"/>
<path d="M18.1436 10.6301V11.0749H16.8852V11.5908H18.0436V12H16.8852V12.5871H18.173V13.0319H16.3618V10.6242H18.1436V10.6301Z" fill="white"/>
<path d="M19.9432 10.6301L20.837 13.0378H20.2901L20.1078 12.5041H19.214L19.0258 13.0378H18.4966L19.3963 10.6301H19.9432ZM19.9726 12.1067L19.6727 11.2231H19.6668L19.3551 12.1067H19.9726Z" fill="white"/>
<path d="M21.6894 10.6301V12.593H22.8537V13.0378H21.166V10.6301H21.6894Z" fill="white"/>
<path d="M11.44 12.9429C12.0473 12.9429 12.5396 12.4464 12.5396 11.834C12.5396 11.2215 12.0473 10.725 11.44 10.725C10.8327 10.725 10.3403 11.2215 10.3403 11.834C10.3403 12.4464 10.8327 12.9429 11.44 12.9429Z" fill="#010000"/>
<path d="M12.2691 17.4144C11.3459 17.4144 10.605 16.6612 10.605 15.7361V14.4255C10.605 13.9629 10.9754 13.5834 11.44 13.5834C11.8987 13.5834 12.275 13.957 12.275 14.4255V17.4144H12.2691Z" fill="#010000"/>
</g>
<defs>
<clipPath id="clip0_32_1134">
<rect width="18" height="16" fill="white" transform="translate(8 4)"/>
</clipPath>
</defs>
</svg>
