<svg width="34" height="24" viewBox="0 0 34 24" fill="none" xmlns="http://www.w3.org/2000/svg">
<rect x="0.5" y="0.5" width="33" height="23" rx="3.5" fill="white" stroke="#E5E5E5"/>
<path d="M21.9823 11.9543C22.5135 11.9658 23.0478 11.9308 23.577 11.9725C24.1128 12.0724 24.242 12.8837 23.7659 13.1494C23.4411 13.3244 23.0552 13.2146 22.703 13.2454H21.9823V11.9543ZM23.8841 10.4929C24.0022 10.9095 23.6006 11.2836 23.1993 11.2262H21.9823C21.9908 10.8333 21.9656 10.4069 21.9946 10.0347C22.4822 10.0484 22.9742 10.0067 23.4589 10.0565C23.6672 10.1088 23.8415 10.28 23.8841 10.4929ZM26.8131 4.31453C26.8357 5.11017 26.8163 5.94786 26.8228 6.75964C26.8213 10.06 26.826 13.3603 26.8202 16.6609C26.7989 17.8978 25.7027 18.9726 24.4743 18.9973C23.2448 19.0023 22.0151 18.9981 20.7854 18.9994V14.0099C22.1252 14.003 23.4657 14.024 24.805 13.9995C25.4263 13.9605 26.1068 13.5505 26.1357 12.8668C26.2089 12.1801 25.5615 11.7052 24.9468 11.6302C24.7106 11.624 24.7175 11.5613 24.9468 11.5339C25.5331 11.4072 25.9934 10.8005 25.8209 10.1928C25.674 9.55373 24.9676 9.30636 24.38 9.30759C23.182 9.29945 21.9837 9.30646 20.7857 9.30409C20.7934 8.37261 20.7695 7.44013 20.7985 6.50933C20.8935 5.29475 22.0172 4.29312 23.2283 4.31485C24.4234 4.31467 25.6183 4.31467 26.8131 4.31462V4.31453Z" fill="url(#paint0_linear_32_1101)"/>
<path d="M7.24671 6.63512C7.27731 5.40017 8.37818 4.33421 9.60494 4.31617C10.8299 4.31239 12.0551 4.31562 13.2801 4.31453C13.2767 8.44639 13.2867 12.5787 13.275 16.7103C13.2279 17.9303 12.139 18.9759 10.9256 18.9975C9.69828 19.002 8.47083 18.9982 7.24348 18.9994V13.8417C8.43565 14.1233 9.68582 14.2432 10.902 14.0564C11.629 13.9394 12.4244 13.5824 12.6706 12.8282C12.8517 12.183 12.7497 11.504 12.7767 10.8419V9.30409H10.6719C10.6624 10.3211 10.6913 11.3399 10.6567 12.3558C10.5999 12.9801 9.9816 13.3769 9.39272 13.3557C8.66241 13.3634 7.2152 12.8264 7.2152 12.8264C7.21157 10.9209 7.23639 8.5345 7.24671 6.6353V6.63512Z" fill="url(#paint1_linear_32_1101)"/>
<path d="M14.0649 9.92439C13.9541 9.94789 14.0426 9.547 14.0143 9.39493C14.0218 8.4334 13.9985 7.47082 14.0271 6.50997C14.1218 5.29025 15.2542 4.28612 16.4702 4.31467H20.0512C20.0478 8.44654 20.0578 12.5789 20.0461 16.7105C19.9989 17.9304 18.9099 18.976 17.6965 18.9977C16.4691 19.0023 15.2417 18.9984 14.0142 18.9996V13.3486C14.8525 14.0364 15.9918 14.1434 17.0362 14.1453C17.8235 14.145 18.6062 14.0237 19.3708 13.8421V12.8068C18.5092 13.2362 17.4963 13.509 16.5411 13.2623C15.8748 13.0964 15.3911 12.4525 15.4019 11.7649C15.3247 11.0498 15.7439 10.2949 16.4466 10.0823C17.3191 9.80914 18.27 10.018 19.0878 10.3731C19.263 10.4649 19.4408 10.5787 19.3708 10.2858V9.47208C18.003 9.14666 16.5474 9.02691 15.1732 9.38093C14.7755 9.49313 14.388 9.6633 14.0649 9.92448V9.92439Z" fill="url(#paint2_linear_32_1101)"/>
<defs>
<linearGradient id="paint0_linear_32_1101" x1="20.7442" y1="11.343" x2="26.7848" y2="11.343" gradientUnits="userSpaceOnUse">
<stop stop-color="#58B03A"/>
<stop offset="1" stop-color="#55B330"/>
</linearGradient>
<linearGradient id="paint1_linear_32_1101" x1="7.11505" y1="11.7976" x2="13.1811" y2="11.7976" gradientUnits="userSpaceOnUse">
<stop stop-color="#0F6EB6"/>
<stop offset="1" stop-color="#006DBA"/>
</linearGradient>
<linearGradient id="paint2_linear_32_1101" x1="14.0054" y1="11.4854" x2="20.05" y2="11.4854" gradientUnits="userSpaceOnUse">
<stop stop-color="#DE0D3D"/>
<stop offset="1" stop-color="#E30138"/>
</linearGradient>
</defs>
</svg>
