<svg width="34" height="24" viewBox="0 0 34 24" fill="none" xmlns="http://www.w3.org/2000/svg">
<rect x="0.5" y="0.5" width="33" height="23" rx="3.5" fill="white" stroke="#E5E5E5"/>
<path d="M17.3344 10.3836C19.081 10.3512 20.4706 8.90907 20.4382 7.16251C20.4058 5.41596 18.9637 4.02636 17.2171 4.05876C15.4706 4.09117 14.081 5.5333 14.1134 7.27985C14.1458 9.02641 15.5879 10.416 17.3344 10.3836Z" fill="#00AEEF"/>
<path d="M19.6108 9.78261C19.0092 10.4359 17.9419 11.0892 16.5771 11.0892C15.5163 11.0892 14.6042 10.6752 14.0286 10.2225C10.568 10.5847 8 11.1022 8 11.1022V12.4993H26.3379V9.61443C26.3379 9.61443 23.1943 9.59502 19.6108 9.78261Z" fill="#00AEEF"/>
<path d="M10.1799 16.5941V18.3017H8V13.7609H10.1799V15.8049H10.1928L11.4735 13.7609H14.0868L12.1721 16.1025L13.9768 18.2953H11.4865L10.1928 16.5876H10.1799V16.5941Z" fill="#003767"/>
<path d="M26.3381 18.1079C25.8271 18.2631 25.1479 18.3601 24.5464 18.3601C22.3924 18.3601 20.8076 17.7456 20.8076 15.9668C20.8076 14.3562 22.3406 13.6576 24.4364 13.6576C25.0186 13.6576 25.7559 13.7223 26.3381 13.9099V15.4687C25.9112 15.21 25.4778 15.0483 24.8633 15.0483C24.0612 15.0483 23.2656 15.4429 23.2656 16.0121C23.2656 16.5878 24.0612 16.9759 24.8633 16.9759C25.4649 16.9759 25.9047 16.8077 26.3381 16.5619V18.1079Z" fill="#003767"/>
<path d="M14.4419 13.7609H18.8469C19.9918 13.7609 20.367 14.2072 20.367 14.8994C20.367 15.6756 19.6748 16.0119 18.9633 16.0507V16.0637C19.6942 16.1219 20.4058 16.206 20.4058 17.118C20.4058 17.7131 20.0306 18.3017 18.7757 18.3017H14.4419V13.7609ZM16.6153 17.3767H17.7537C18.1806 17.3767 18.3229 17.2021 18.3229 16.9369C18.3229 16.6782 18.1742 16.4906 17.7602 16.4906H16.6217L16.6153 17.3767ZM16.6153 15.682H17.702C18.1224 15.682 18.2841 15.5138 18.2841 15.2486C18.2841 14.9511 18.1159 14.8023 17.7278 14.8023H16.6153V15.682Z" fill="#003767"/>
</svg>
