<svg width="34" height="24" viewBox="0 0 34 24" fill="none" xmlns="http://www.w3.org/2000/svg">
<rect x="0.5" y="0.5" width="33" height="23" rx="3.5" fill="#FFB3C7" stroke="#FFB3C7"/>
<g clip-path="url(#clip0_32_1272)">
<path d="M28.4785 6H5.52152C3.57664 6 2 7.68905 2 9.77259V15.2274C2 17.311 3.57664 19 5.52152 19H28.4785C30.4234 19 32 17.311 32 15.2274V9.77259C32 7.68905 30.4234 6 28.4785 6Z" fill="#FFB3C7"/>
<path d="M26.0232 11.6961C25.7439 11.4923 25.4181 11.3739 25.0807 11.3536C24.7433 11.3334 24.4071 11.4121 24.1084 11.5813C23.8096 11.7506 23.5596 12.0038 23.3852 12.3139C23.2108 12.624 23.1187 12.9792 23.1187 13.3412C23.1187 13.7032 23.2108 14.0584 23.3852 14.3685C23.5596 14.6786 23.8096 14.9319 24.1084 15.1011C24.4071 15.2703 24.7433 15.349 25.0807 15.3288C25.4181 15.3086 25.7439 15.1902 26.0232 14.9863V15.2273H27.0776V11.4548H26.0232V11.6961ZM25.0643 14.3119C24.8871 14.3018 24.7166 14.2363 24.5739 14.1235C24.4311 14.0106 24.3224 13.8555 24.2611 13.6771C24.1998 13.4988 24.1886 13.3051 24.229 13.1201C24.2693 12.935 24.3595 12.7667 24.4882 12.6359C24.6169 12.5052 24.7786 12.4177 24.9532 12.3844C25.1279 12.351 25.3078 12.3732 25.4708 12.4483C25.6338 12.5233 25.7726 12.6479 25.8702 12.8066C25.9678 12.9654 26.0198 13.1512 26.0198 13.3413C26.013 13.6056 25.9086 13.8563 25.7295 14.0383C25.5503 14.2203 25.3111 14.3187 25.0643 14.3119Z" fill="#010000"/>
<path d="M11.5643 9.77362H10.4609V15.2274H11.5643V9.77362Z" fill="#010000"/>
<path d="M21.2464 11.3534C21.0391 11.3402 20.8319 11.3813 20.6427 11.473C20.4535 11.5647 20.288 11.7044 20.1604 11.8799V11.455H19.1104V15.2274H20.173V13.2449C20.1648 13.131 20.1796 13.0166 20.2164 12.9094C20.2532 12.8022 20.3112 12.7047 20.3863 12.6236C20.4613 12.5425 20.5519 12.4797 20.6516 12.4395C20.7514 12.3992 20.8581 12.3824 20.9645 12.3903C21.4279 12.3903 21.6942 12.6869 21.6942 13.2371V15.2274H22.7474V12.8284C22.7474 11.9504 22.0958 11.3534 21.2464 11.3534Z" fill="#010000"/>
<path d="M14.9002 11.6961C14.6209 11.4923 14.295 11.3739 13.9576 11.3536C13.6202 11.3334 13.2841 11.4121 12.9853 11.5813C12.6866 11.7506 12.4365 12.0038 12.2621 12.3139C12.0878 12.624 11.9956 12.9792 11.9956 13.3412C11.9956 13.7032 12.0878 14.0584 12.2621 14.3685C12.4365 14.6786 12.6866 14.9319 12.9853 15.1011C13.2841 15.2703 13.6202 15.349 13.9576 15.3288C14.295 15.3086 14.6209 15.1902 14.9002 14.9863V15.2273H15.9545V11.4548H14.9002V11.6961ZM13.9412 14.3119C13.7641 14.3018 13.5935 14.2363 13.4508 14.1235C13.308 14.0107 13.1992 13.8556 13.1379 13.6772C13.0766 13.4989 13.0654 13.3052 13.1058 13.1202C13.1461 12.9351 13.2362 12.7668 13.3649 12.636C13.4937 12.5052 13.6553 12.4177 13.83 12.3844C14.0046 12.351 14.1846 12.3732 14.3476 12.4483C14.5105 12.5233 14.6494 12.6479 14.747 12.8066C14.8446 12.9653 14.8966 13.1512 14.8966 13.3413C14.8898 13.6056 14.7854 13.8563 14.6063 14.0383C14.4272 14.2203 14.188 14.3187 13.9412 14.3119Z" fill="#010000"/>
<path d="M17.5853 11.9462V11.4549H16.5059V15.2274H17.5877V13.4662C17.5877 12.8719 18.1889 12.5525 18.6061 12.5525C18.6103 12.5525 18.6144 12.553 18.6186 12.553V11.4551C18.4232 11.4495 18.229 11.4906 18.0502 11.5756C17.8714 11.6606 17.7126 11.7872 17.5853 11.9462Z" fill="#010000"/>
<path d="M28.1969 13.8893C28.066 13.8893 27.9381 13.9309 27.8292 14.0088C27.7204 14.0867 27.6356 14.1975 27.5855 14.327C27.5354 14.4566 27.5223 14.5991 27.5479 14.7366C27.5734 14.8741 27.6364 15.0005 27.729 15.0996C27.8215 15.1988 27.9395 15.2663 28.0678 15.2936C28.1962 15.321 28.3293 15.3069 28.4502 15.2533C28.5711 15.1996 28.6745 15.1087 28.7472 14.9922C28.8199 14.8756 28.8587 14.7385 28.8587 14.5983C28.8587 14.5052 28.8416 14.413 28.8083 14.327C28.7751 14.2409 28.7263 14.1628 28.6649 14.097C28.6034 14.0311 28.5305 13.9789 28.4502 13.9433C28.3699 13.9077 28.2838 13.8893 28.1969 13.8893Z" fill="#010000"/>
<path d="M9.70026 9.7726H8.55675C8.55852 10.2639 8.45242 10.7487 8.24703 11.188C8.04165 11.6272 7.74272 12.0086 7.37439 12.3012L6.92139 12.6647L8.67678 15.2291H10.12L8.50485 12.8695C8.88575 12.4639 9.18759 11.9813 9.39281 11.4496C9.59803 10.918 9.70254 10.3479 9.70026 9.7726Z" fill="#010000"/>
<path d="M6.78178 9.7726H5.63623V15.2289H6.78178V9.7726Z" fill="#010000"/>
</g>
<defs>
<clipPath id="clip0_32_1272">
<rect width="30" height="13" fill="white" transform="translate(2 6)"/>
</clipPath>
</defs>
</svg>
