<svg width="24" height="24" viewBox="0 0 24 24" fill="none" xmlns="http://www.w3.org/2000/svg">
<path d="M7.09428 21V8.85488H3.22862V21H7.09428ZM5.16225 7.19574C6.50984 7.19574 7.34866 6.26447 7.34866 5.09787C7.32451 3.90605 6.51145 3 5.18801 3C3.86458 3 3 3.90773 3 5.09787C3 6.26447 3.83882 7.19574 5.13649 7.19574H5.16225ZM13.0642 21V14.2172C13.0642 13.8541 13.09 13.491 13.193 13.2322C13.4716 12.5077 14.1075 11.7563 15.1766 11.7563C16.5757 11.7563 17.1343 12.8691 17.1343 14.503V21H21V14.034C21 10.3022 19.0937 8.56743 16.5499 8.56743C14.4987 8.56743 13.5794 9.74412 13.0642 10.5728V10.6149H13.0385C13.047 10.6008 13.0556 10.5868 13.0642 10.5728V8.85488H9.20018C9.24848 9.99458 9.20018 21 9.20018 21H13.0642Z" fill="black"/>
</svg>
