<svg width="34" height="24" viewBox="0 0 34 24" fill="none" xmlns="http://www.w3.org/2000/svg">
<rect x="0.5" y="0.5" width="33" height="23" rx="3.5" fill="white" stroke="#E5E5E5"/>
<path d="M19.1311 12C19.1311 15.3137 16.4155 18 13.0656 18C9.71565 18 7 15.3137 7 12C7 8.68629 9.71565 6 13.0656 6C16.4155 6 19.1311 8.68629 19.1311 12Z" fill="#ED0006"/>
<path d="M27.0003 12C27.0003 15.3137 24.2846 18 20.9347 18C17.5848 18 14.8691 15.3137 14.8691 12C14.8691 8.68629 17.5848 6 20.9347 6C24.2846 6 27.0003 8.68629 27.0003 12Z" fill="#0099DF"/>
<path fill-rule="evenodd" clip-rule="evenodd" d="M17.0003 16.5667C18.3044 15.4662 19.1314 13.8286 19.1314 12C19.1314 10.1714 18.3044 8.53385 17.0003 7.43334C15.6961 8.53385 14.8691 10.1714 14.8691 12C14.8691 13.8286 15.6961 15.4662 17.0003 16.5667Z" fill="#6C6BBD"/>
</svg>
