<svg width="34" height="24" viewBox="0 0 34 24" fill="none" xmlns="http://www.w3.org/2000/svg">
<rect x="0.5" y="0.5" width="33" height="23" rx="3.5" fill="white" stroke="#E5E5E5"/>
<g clip-path="url(#clip0_32_1418)">
<path d="M19.5997 7.60271H14.2466V17.4629H19.5997V7.60271Z" fill="#F16022"/>
<path d="M14.5864 12.5328C14.5864 10.5325 15.5002 8.75091 16.9231 7.60272C15.8825 6.76302 14.5694 6.26202 13.1423 6.26202C9.76375 6.26202 7.0249 9.06954 7.0249 12.5328C7.0249 15.996 9.76375 18.8036 13.1423 18.8036C14.5694 18.8036 15.8825 18.3026 16.9231 17.4629C15.5002 16.3146 14.5864 14.5331 14.5864 12.5328Z" fill="#E91D25"/>
<path d="M26.821 12.5328C26.821 15.996 24.0822 18.8036 20.7036 18.8036C19.2765 18.8036 17.9635 18.3026 16.9229 17.4629C18.3458 16.3146 19.2595 14.5331 19.2595 12.5328C19.2595 10.5325 18.3458 8.75091 16.9229 7.60272C17.9635 6.76302 19.2765 6.26202 20.7036 6.26202C24.0822 6.26202 26.821 9.06954 26.821 12.5328ZM26.2374 16.4185V16.2167H26.3168V16.1755H26.1145V16.2167H26.194V16.4185H26.2374ZM26.63 16.4185V16.1751H26.568L26.4967 16.3426L26.4254 16.1751H26.3633V16.4185H26.4071V16.2349L26.474 16.3932H26.5194L26.5863 16.2345V16.4185H26.63Z" fill="#F69E1E"/>
</g>
<defs>
<clipPath id="clip0_32_1418">
<rect width="20" height="13" fill="white" transform="translate(7 6)"/>
</clipPath>
</defs>
</svg>
