<svg width="24" height="24" viewBox="0 0 24 24" fill="none" xmlns="http://www.w3.org/2000/svg">
<path d="M13.2812 11.8564C13.2812 14.9987 10.7558 17.546 7.6407 17.546C4.52561 17.546 2 14.9981 2 11.8564C2 8.71473 4.52542 6.16666 7.6407 6.16666C10.756 6.16666 13.2812 8.71415 13.2812 11.8564Z" fill="black"/>
<path d="M19.4688 11.8564C19.4688 14.8142 18.2061 17.2129 16.6485 17.2129C15.0908 17.2129 13.8281 14.8142 13.8281 11.8564C13.8281 8.89866 15.0906 6.49996 16.6483 6.49996C18.2059 6.49996 19.4686 8.89789 19.4686 11.8564" fill="black"/>
<path d="M21.9998 11.8564C21.9998 14.5058 21.5557 16.655 21.0078 16.655C20.4599 16.655 20.0161 14.5064 20.0161 11.8564C20.0161 9.2064 20.4601 7.05787 21.0078 7.05787C21.5555 7.05787 21.9998 9.20621 21.9998 11.8564Z" fill="black"/>
</svg>
