<svg width="34" height="24" viewBox="0 0 34 24" fill="none" xmlns="http://www.w3.org/2000/svg">
<rect x="0.5" y="0.5" width="33" height="23" rx="3.5" fill="white" stroke="#E5E5E5"/>
<path fill-rule="evenodd" clip-rule="evenodd" d="M4 14.4062C4.01731 14.3132 4.03317 14.2231 4.04871 14.1348C4.07273 13.9982 4.096 13.866 4.12276 13.7337C4.23608 13.1354 4.35018 12.5379 4.46429 11.9404L4.4643 11.9403C4.5784 11.3428 4.6925 10.7453 4.80581 10.1471C4.82155 10.0713 4.84358 10.0208 4.91913 10.0082C5.50775 9.91975 6.09952 9.85661 6.68814 10.005C7.20121 10.1313 7.56005 10.4944 7.61986 10.9206C7.74262 11.7699 7.24843 12.4487 6.51501 12.6918C6.12785 12.8181 5.73438 12.8497 5.33463 12.8118C5.24019 12.8023 5.21187 12.8276 5.19613 12.9191C5.11114 13.3832 5.023 13.8442 4.93172 14.3052C4.92542 14.3431 4.8908 14.403 4.86877 14.403C4.65484 14.4078 4.44443 14.4072 4.22572 14.4066C4.15159 14.4064 4.0765 14.4062 4 14.4062ZM5.35351 12.0604C5.41505 12.0604 5.47465 12.062 5.53272 12.0636C5.65585 12.0669 5.77211 12.0701 5.88547 12.0572C6.21284 12.0225 6.47409 11.8741 6.62204 11.5615C6.78886 11.2079 6.66925 10.8322 6.35448 10.7217C6.131 10.6428 5.90121 10.6585 5.67143 10.6901C5.6431 10.6933 5.60533 10.7375 5.59903 10.7659C5.55504 10.9971 5.51104 11.2294 5.46539 11.4703L5.46535 11.4705L5.46527 11.4709L5.35351 12.0604ZM9.58088 13.8C9.53107 13.852 9.48442 13.9042 9.43882 13.9553C9.34034 14.0657 9.24679 14.1705 9.13705 14.2547C8.80655 14.5104 8.42882 14.5672 8.04795 14.3904C7.67023 14.2168 7.51599 13.8789 7.50025 13.4811C7.46562 12.6445 7.75836 11.953 8.4603 11.4731C8.90098 11.17 9.40776 11.0785 9.93342 11.1069C10.1073 11.1171 10.2799 11.1474 10.4528 11.1777L10.4528 11.1777C10.546 11.1941 10.6393 11.2104 10.7329 11.2237C10.84 11.2395 10.8557 11.2995 10.8368 11.391C10.8116 11.5231 10.786 11.655 10.7605 11.7868C10.6651 12.2791 10.57 12.7702 10.4906 13.2633C10.445 13.5455 10.4268 13.8347 10.4088 14.121L10.3993 14.2704C10.393 14.3715 10.3678 14.4125 10.2639 14.4094C10.0688 14.403 9.87362 14.403 9.67846 14.4094C9.57773 14.4125 9.54311 14.3746 9.55255 14.2768C9.56154 14.1686 9.56732 14.0572 9.57332 13.9415V13.9415V13.9415L9.57332 13.9415L9.57333 13.9413L9.57334 13.9412L9.57334 13.9412L9.57334 13.9411L9.57335 13.9411C9.57575 13.8948 9.57819 13.8478 9.58088 13.8ZM9.80122 11.8488C9.4959 11.7636 9.24093 11.8235 9.02689 12.0035C8.62398 12.3445 8.44142 12.7865 8.47604 13.3138C8.48549 13.4748 8.54844 13.6295 8.71841 13.6989C8.88839 13.7684 9.04263 13.7179 9.17483 13.6042C9.25352 13.5348 9.32907 13.4558 9.38573 13.3674C9.60775 13.0275 9.6684 12.6441 9.73 12.2547L9.73 12.2547C9.75137 12.1196 9.77285 11.9838 9.80122 11.8488ZM14.2615 13.6169C14.4346 14.1726 14.9099 14.482 15.7441 14.482C16.317 14.4662 16.8867 14.141 17.2424 13.4716C17.4312 13.1117 17.5005 12.7265 17.4753 12.3224C17.4533 11.9341 17.299 11.6057 16.9843 11.3721C16.6538 11.1258 16.276 11.0753 15.8731 11.1195C14.5259 11.271 13.9751 12.7013 14.2615 13.6169ZM15.1579 13.1532C15.1583 13.1371 15.1586 13.1211 15.1586 13.1054C15.1681 12.7423 15.2562 12.4045 15.4734 12.1045C15.571 11.9719 15.6937 11.8709 15.8574 11.833C16.1911 11.7573 16.4649 11.9498 16.4964 12.3129C16.5342 12.7581 16.4271 13.1685 16.147 13.5253C16.04 13.6579 15.9046 13.7495 15.7315 13.7653C15.4199 13.7937 15.1838 13.5821 15.1586 13.2506C15.1565 13.219 15.1572 13.1859 15.1579 13.1532V13.1532V13.1532V13.1532V13.1532ZM18.2245 11.1858H19.024C19.0114 11.3563 18.9988 11.5205 18.9831 11.6878C19.0122 11.6607 19.0403 11.6338 19.0678 11.6075L19.0679 11.6074L19.0681 11.6073L19.0681 11.6073L19.0681 11.6073L19.0681 11.6072C19.127 11.5511 19.1834 11.4973 19.2412 11.4479C19.5528 11.1763 19.9085 11.0564 20.3209 11.1227C20.6608 11.1795 20.8969 11.4289 20.9347 11.7794C20.9757 12.144 20.9075 12.4977 20.8395 12.8507L20.8395 12.8507L20.8245 12.9286C20.797 13.0715 20.7698 13.2144 20.7426 13.3571L20.7422 13.359C20.6825 13.6731 20.6227 13.9867 20.5601 14.2989C20.5506 14.3399 20.5034 14.3999 20.4719 14.403C20.2012 14.4094 19.9305 14.4062 19.6598 14.403C19.6508 14.403 19.6417 14.3981 19.6279 14.3906L19.6279 14.3906L19.6278 14.3906C19.6225 14.3877 19.6165 14.3844 19.6095 14.3809C19.6598 14.1189 19.7102 13.8537 19.7574 13.5885C19.8298 13.1812 19.8991 12.7771 19.962 12.3698C19.9746 12.3003 19.9683 12.2277 19.9589 12.1582C19.9337 11.9151 19.7543 11.8046 19.5213 11.8772C19.2947 11.9499 19.1594 12.1267 19.0492 12.3224C18.8855 12.6097 18.8288 12.9286 18.7722 13.2475L18.7299 13.4841L18.7299 13.4843C18.6818 13.7548 18.6338 14.0243 18.5802 14.2957C18.5707 14.3367 18.5235 14.3999 18.492 14.403C18.2713 14.4106 18.0486 14.4101 17.8112 14.4096H17.8111H17.8111H17.8111L17.6264 14.4094C17.8342 13.3233 18.0293 12.2593 18.2245 11.1858ZM22.7634 13.7463C22.4298 13.7053 22.2063 13.4717 22.2283 13.1433C22.2979 13.1433 22.3672 13.1444 22.4361 13.1454C22.5728 13.1475 22.7082 13.1496 22.8421 13.1433C23.1664 13.1244 23.4843 13.0707 23.7802 12.9223C24.1579 12.7329 24.3341 12.4203 24.3058 12.013C24.2775 11.5994 24.054 11.2995 23.6542 11.1795C23.0562 10.9995 22.5053 11.1258 22.0363 11.5268C21.4666 12.013 21.2526 12.6571 21.3344 13.3927C21.391 13.9137 21.6743 14.2862 22.1906 14.4188C22.7446 14.5609 23.2891 14.4851 23.8148 14.2704C23.8526 14.2546 23.8966 14.1947 23.8935 14.1568C23.8859 14.0027 23.8703 13.8486 23.8547 13.6945L23.8431 13.579C23.8328 13.579 23.8251 13.5785 23.8192 13.5781C23.8107 13.5775 23.8059 13.5771 23.8022 13.579C23.7676 13.5916 23.7329 13.6043 23.7015 13.6169C23.3993 13.7337 23.0877 13.7842 22.7634 13.7463ZM23.2513 12.3477C23.0593 12.4487 22.562 12.5087 22.3196 12.4582C22.37 12.0382 22.8138 11.7099 23.1884 11.8014C23.3143 11.833 23.4056 11.8993 23.4276 12.0351C23.4496 12.1677 23.3835 12.2782 23.2513 12.3477ZM25.3729 13.156C25.3446 13.4654 25.5649 13.7022 25.9017 13.7464C26.2165 13.7842 26.5187 13.7369 26.8146 13.6295C26.8418 13.6193 26.8682 13.609 26.8971 13.5978C26.9216 13.5882 26.9479 13.578 26.9782 13.5664C26.9844 13.6332 26.9912 13.6986 26.9979 13.7632L26.9979 13.7635V13.7635C27.0119 13.8972 27.0254 14.027 27.0317 14.1568C27.0349 14.1947 26.9908 14.2547 26.9562 14.2705C26.4211 14.4915 25.8702 14.5672 25.3068 14.4125C24.8 14.2736 24.5356 13.9042 24.4727 13.3991C24.394 12.7518 24.5608 12.1677 25.0109 11.6878C25.4957 11.1732 26.0906 10.9901 26.7768 11.1795C27.1954 11.2963 27.4189 11.5994 27.4441 12.0257C27.4693 12.4424 27.2804 12.755 26.887 12.9381C26.4903 13.1212 26.0686 13.1496 25.6405 13.1591C25.5555 13.156 25.4673 13.156 25.3729 13.156ZM25.6331 12.4743L25.6331 12.4743C25.7728 12.4673 25.9073 12.4605 26.0402 12.4424C26.1661 12.4266 26.292 12.3888 26.4054 12.3351C26.5281 12.2814 26.5879 12.1677 26.569 12.0288C26.5502 11.8962 26.462 11.8331 26.3393 11.8015C25.9678 11.7005 25.5051 12.0415 25.4642 12.4835C25.5214 12.4799 25.5777 12.4771 25.6331 12.4743ZM27.6172 13.7463C27.5763 13.961 27.5385 14.1726 27.4976 14.4062C27.5606 14.4062 27.6228 14.4063 27.6842 14.4065C27.9264 14.407 28.1574 14.4074 28.3884 14.3999C28.4104 14.3999 28.445 14.3399 28.4513 14.302C28.4834 14.1443 28.5132 13.9858 28.543 13.8274C28.5978 13.5354 28.6527 13.2436 28.722 12.957C28.8763 12.3193 29.1375 12.0983 29.7576 12.0162C29.7828 12.013 29.8237 11.9846 29.83 11.9625C29.8695 11.781 29.9049 11.5982 29.9416 11.4085C29.9605 11.3111 29.9797 11.2118 30 11.11C29.4019 11.0469 29.0683 11.3942 28.7787 11.8204L28.7833 11.7587C28.7976 11.5702 28.812 11.3784 28.8291 11.1763C28.7636 11.1763 28.6994 11.1761 28.6361 11.1759C28.4496 11.1753 28.2711 11.1748 28.0925 11.1795C28.0673 11.1826 28.0201 11.2395 28.0169 11.2742C27.9498 12.0857 27.7908 12.8793 27.632 13.6724L27.6172 13.7463Z" fill="#010000"/>
<path fill-rule="evenodd" clip-rule="evenodd" d="M19.2835 7.37688C19.2516 7.36845 19.2198 7.36001 19.1879 7.35291C19.0903 7.35291 18.9927 7.35291 18.8889 7.35606C18.8534 7.36318 18.8179 7.37094 18.7822 7.37876C18.7386 7.38829 18.6946 7.39791 18.6496 7.40658C18.168 7.49814 17.7148 7.66547 17.2773 7.88648C16.3298 8.36638 15.4799 8.98836 14.7182 9.724C14.2114 10.2102 13.7203 10.7185 13.245 11.2395C12.4109 12.1551 11.6964 13.1622 11.1266 14.2673C10.8339 14.8387 10.5695 15.4228 10.4499 16.0574C10.4279 16.1743 10.4656 16.31 10.5034 16.4268C10.5191 16.4742 10.6073 16.5089 10.6671 16.5279C10.6828 16.5342 10.73 16.4552 10.7521 16.411C10.7599 16.3939 10.7679 16.3764 10.7761 16.3584C10.9128 16.059 11.0976 15.654 11.258 15.3859C11.598 14.8176 11.8664 14.3778 12.2472 13.8379C12.8579 12.9696 13.5714 12.1178 14.3205 11.3663C15.0288 10.656 15.738 10.0208 16.6288 9.54088C17.038 9.32303 17.4567 9.10833 17.8848 8.93153C18.6245 8.62528 19.3957 8.4169 20.1889 8.30008C20.2739 8.28745 20.3872 8.22115 20.4155 8.15169C20.4407 8.08854 20.3809 7.96857 20.3211 7.90858C20.0787 7.65916 19.7954 7.46972 19.4429 7.41289C19.3898 7.405 19.3366 7.39094 19.2835 7.37688ZM12.0773 11.6846C12.2283 11.2742 12.3039 10.848 12.3133 10.406C12.3091 10.3586 12.3056 10.3112 12.3021 10.2639C12.2951 10.1692 12.2882 10.0745 12.2756 9.97973C12.1906 9.24725 11.8758 8.62527 11.3753 8.0917C11.3155 8.03171 11.2337 7.98435 11.1518 7.95594C11.07 7.92437 11.0165 7.97172 11.0228 8.06644C11.0229 8.06844 11.0231 8.07044 11.0232 8.07245C11.0294 8.15268 11.0357 8.23578 11.0511 8.31586C11.0732 8.44203 11.0952 8.56835 11.1172 8.69475C11.1953 9.14405 11.2736 9.59442 11.3596 10.0429C11.4446 10.4944 11.539 10.9427 11.6397 11.3879C11.6743 11.5299 11.731 11.672 11.8003 11.8046C11.8538 11.9057 11.9293 11.8962 11.9986 11.8046C12.03 11.7667 12.0615 11.7288 12.0773 11.6846Z" fill="#FC461E"/>
</svg>
