<svg width="34" height="24" viewBox="0 0 34 24" fill="none" xmlns="http://www.w3.org/2000/svg">
<rect x="0.5" y="0.5" width="33" height="23" rx="3.5" fill="white" stroke="#E5E5E5"/>
<path d="M29.2553 10.4743C29.6665 10.4743 29.9998 10.141 29.9998 9.72979C29.9998 9.31859 29.6665 8.98526 29.2553 8.98526C28.8441 8.98526 28.5107 9.31859 28.5107 9.72979C28.5107 10.141 28.8441 10.4743 29.2553 10.4743Z" fill="#7887E6"/>
<path d="M29.2553 12.8052C29.6665 12.8052 29.9998 12.4718 29.9998 12.0606C29.9998 11.6494 29.6665 11.3161 29.2553 11.3161C28.8441 11.3161 28.5107 11.6494 28.5107 12.0606C28.5107 12.4718 28.8441 12.8052 29.2553 12.8052Z" fill="#FF5073"/>
<path fill-rule="evenodd" clip-rule="evenodd" d="M5.89555 10.9163H5.17314V12.7198H4V7.78331H5.89555C7.02598 7.78331 7.56264 8.4414 7.56264 9.31405C7.56264 10.3225 6.84693 10.9163 5.89555 10.9163ZM5.71958 8.64155H5.17314V10.0576H5.76692C6.17751 10.0576 6.44765 9.78588 6.42346 9.29707C6.40494 8.92712 6.09004 8.64155 5.71958 8.64155ZM10.7991 12.7192H9.65423H9.65372V12.5572C9.42526 12.7007 9.12632 12.8047 8.85104 12.8047C8.15333 12.8047 7.62285 12.2788 7.62285 11.6526C7.62285 11.0115 8.07667 10.3174 9.65423 10.4296V10.1862C9.65423 9.90731 9.41806 9.81418 9.15359 9.81418C8.78158 9.81418 8.34525 9.97883 8.1379 10.072L7.823 9.42107C8.1662 9.20651 8.72447 8.98475 9.43247 8.98475C10.2768 8.98475 10.7991 9.35676 10.7991 10.1795V12.7192ZM8.76666 11.632C8.76666 11.8965 8.96012 12.0612 9.24621 12.0612C9.42526 12.0612 9.58992 11.9968 9.69642 11.9181V11.1525C9.00335 11.0377 8.76666 11.3315 8.76666 11.632ZM22.1868 9.07067V8.92043C22.1868 8.05498 22.673 7.49002 23.5961 7.49002C23.804 7.49002 23.9825 7.51883 24.14 7.56154V8.37657C24.0473 8.34827 23.9115 8.32666 23.804 8.32666C23.4531 8.32666 23.3244 8.55562 23.3244 8.87772V9.07067H24.1111V9.85071H23.3244V12.7192H22.1868V9.85071H21.5786V9.07067H22.1868ZM18.2748 9.42159C18.618 9.20703 19.1762 8.98526 19.8842 8.98526C20.7286 8.98526 21.2508 9.35727 21.2503 10.1795V12.7192H20.1055V12.5577C19.877 12.7012 19.5781 12.8052 19.3028 12.8052C18.6051 12.8052 18.0746 12.2793 18.0746 11.6531C18.0746 11.012 18.5284 10.3179 20.106 10.4301V10.1867C20.106 9.90782 19.8698 9.81469 19.6054 9.81469C19.2333 9.81469 18.797 9.97934 18.5897 10.0725L18.2748 9.42159ZM19.6553 12.0612C19.8343 12.0612 19.9985 11.9968 20.106 11.9181H20.1055V11.1525C19.4124 11.0377 19.1757 11.3315 19.1757 11.632C19.1757 11.8965 19.3692 12.0612 19.6553 12.0612ZM14.8691 9.07119L13.0203 13.7432H11.9311L12.4127 12.5479L10.8696 9.07119H12.0412L12.9447 11.2513L13.7319 9.07119H14.8691ZM27.7669 10.8391V11.1242V11.1252H25.3949C25.4129 11.3125 25.4608 11.4653 25.5328 11.5868C25.5333 11.5873 25.5333 11.5878 25.5338 11.5883C25.5457 11.6073 25.558 11.6259 25.5709 11.6434C25.5786 11.6542 25.5863 11.6639 25.5945 11.6742C25.5961 11.6761 25.5977 11.6781 25.5993 11.6801C25.6029 11.6845 25.6066 11.689 25.6105 11.6933C25.6244 11.7097 25.6393 11.7257 25.6547 11.7406L25.6563 11.7421C25.6944 11.7787 25.7371 11.8116 25.7844 11.8404C25.7849 11.8407 25.7853 11.8408 25.7856 11.8409C25.7859 11.8411 25.7862 11.8412 25.7865 11.8414C25.8076 11.8543 25.8302 11.8661 25.8534 11.8775C25.8556 11.8785 25.8577 11.8795 25.8598 11.8804C25.862 11.8815 25.8641 11.8826 25.8662 11.8836C25.8801 11.8903 25.895 11.8965 25.91 11.9022C25.9233 11.9073 25.9367 11.9119 25.9501 11.9166L25.9804 11.9258C25.9995 11.931 26.0185 11.9361 26.0381 11.9408C26.0414 11.9415 26.0448 11.9422 26.0481 11.9428C26.0515 11.9435 26.0548 11.9441 26.0581 11.9449C26.0772 11.949 26.0962 11.9521 26.1158 11.9552C26.1214 11.9562 26.1266 11.9572 26.1322 11.9577C26.1564 11.9608 26.1811 11.9634 26.2058 11.9649C26.2087 11.9652 26.2114 11.9653 26.2142 11.9654C26.2174 11.9656 26.2205 11.9657 26.2238 11.966C26.2501 11.9675 26.2763 11.9685 26.3036 11.9685C26.6144 11.9685 26.9612 11.8811 27.3033 11.6871L27.6223 12.3961C27.1176 12.746 26.4626 12.8057 26.1317 12.8057C24.9442 12.8057 24.2002 12.0684 24.2002 10.9168C24.2002 9.7936 24.9874 8.98526 26.0031 8.98526C27.0188 8.98526 27.7669 9.76941 27.7669 10.8391ZM26.6113 10.5232C26.568 10.037 26.318 9.78639 26.0031 9.78639C25.6882 9.78639 25.4381 10.0365 25.3949 10.5232H26.6113ZM16.0895 11.9752C16.426 11.9752 16.6262 11.8749 16.6262 11.6747C16.6262 11.4609 16.353 11.3676 16.0246 11.2555C15.5297 11.0865 14.9094 10.8748 14.9097 10.143C14.9097 9.37065 15.5961 8.98423 16.4476 8.98423C16.9128 8.98423 17.3707 9.12727 17.6712 9.27752L17.3491 10.0287C17.1201 9.92892 16.8052 9.82138 16.5048 9.82138C16.2187 9.82138 16.0468 9.9284 16.0468 10.1003C16.0468 10.2893 16.302 10.3746 16.6139 10.4788C17.1043 10.6428 17.735 10.8536 17.735 11.5883C17.735 12.3755 17.0198 12.8047 16.1899 12.8047C15.7247 12.8047 15.2241 12.6976 14.795 12.4687L15.1598 11.7319C15.417 11.861 15.7463 11.9752 16.0895 11.9752ZM20.1894 15.1633V14.6827H19.983V14.5479H20.5536L20.5747 14.6827H20.3797V15.1633H20.1894ZM21.2313 15.1633L21.2081 14.7177L21.1922 14.7774L21.1922 14.7776C21.158 14.9062 21.1238 15.0346 21.0877 15.1633H20.9205L20.8001 14.7177L20.7769 15.1633H20.6066C20.6252 14.959 20.6416 14.7527 20.6576 14.5484H20.8968L21.0059 14.9848L21.007 14.9801C21.0416 14.8356 21.0758 14.693 21.1124 14.5484H21.3517L21.4006 15.1633H21.2313ZM4.00515 14.729V17.4746H4.65758V16.4718H5.05943C5.58889 16.4718 5.98663 16.1414 5.98663 15.5806C5.98663 15.0949 5.68819 14.729 5.05943 14.729H4.00515ZM5.35426 15.6042C5.35426 15.8548 5.2071 15.9943 4.98843 15.9943H4.65809V15.2065H4.98843C5.22305 15.2065 5.35426 15.3696 5.35426 15.6042ZM7.23232 17.2719L7.26833 17.4746V17.4751H7.84924V16.0627C7.84924 15.6048 7.55905 15.3979 7.08928 15.3979C6.69514 15.3979 6.38488 15.5214 6.19398 15.6408L6.36893 16.003C6.48418 15.951 6.72704 15.8595 6.93389 15.8595C7.08104 15.8595 7.21225 15.9109 7.21225 16.0663V16.2016C6.36481 16.1857 6.08233 16.4759 6.08233 16.9137C6.08233 17.3197 6.40083 17.5224 6.71521 17.5224C6.9699 17.5224 7.12066 17.3953 7.23232 17.2719ZM7.06972 16.5911C7.10287 16.5911 7.13111 16.5943 7.16091 16.5977L7.16092 16.5977L7.16094 16.5977L7.16096 16.5977C7.17739 16.5996 7.1943 16.6015 7.21276 16.603V17.0285C7.15308 17.0722 7.06149 17.1082 6.96219 17.1082C6.80319 17.1082 6.69566 17.0166 6.69566 16.8695C6.69566 16.7028 6.81503 16.5911 7.06972 16.5911ZM8.46617 18.338L8.80062 17.4746H8.60973C8.53584 17.2422 8.46244 17.0098 8.38905 16.7774C8.2488 16.3334 8.10857 15.8894 7.96501 15.4453H8.60973L8.99151 16.9492L9.42115 15.4453H10.054C9.87066 15.9753 9.68977 16.5056 9.50932 17.0345L9.5093 17.0345L9.50925 17.0347L9.50921 17.0348L9.50918 17.0349C9.36055 17.4706 9.21221 17.9054 9.06303 18.3385H8.46617V18.338ZM11.204 14.729V17.4746H12.903V17.0012H11.8564V14.729H11.204ZM14.2681 17.4746L14.2321 17.2719C14.1204 17.3953 13.9696 17.5224 13.715 17.5224C13.4006 17.5224 13.0821 17.3197 13.0821 16.9137C13.0821 16.4759 13.3646 16.1857 14.212 16.2016V16.0663C14.212 15.9109 14.0808 15.8595 13.9336 15.8595C13.7268 15.8595 13.4839 15.951 13.3687 16.003L13.1937 15.6408C13.3846 15.5214 13.6949 15.3979 14.089 15.3979C14.5588 15.3979 14.849 15.6048 14.849 16.0627V17.4751H14.2681V17.4746ZM14.1607 16.5977L14.1607 16.5977C14.1309 16.5943 14.1026 16.5911 14.0695 16.5911C13.8148 16.5911 13.6954 16.7028 13.6954 16.8695C13.6954 17.0166 13.8029 17.1082 13.9619 17.1082C14.0612 17.1082 14.1528 17.0722 14.2125 17.0285V16.603C14.194 16.6015 14.1771 16.5996 14.1607 16.5977L14.1607 16.5977ZM15.3743 16.9215C15.3743 17.4509 15.7525 17.4746 15.9434 17.4746V17.4756H16.3972V17.0496H16.2223C16.0828 17.0496 16.0072 16.9858 16.0072 16.7789V15.8795H16.3972V15.4458H16.0072V14.8407L15.3743 15.0594V15.4453H15.0641V15.879H15.3743V16.9215ZM18.4183 17.3233C18.2912 17.419 17.9604 17.5224 17.6342 17.5224C16.9735 17.5224 16.5598 17.1124 16.5598 16.4718C16.5598 15.8471 16.9977 15.3974 17.5626 15.3974C17.9964 15.3974 18.426 15.632 18.426 16.3483V16.587H17.2246C17.2565 16.9215 17.4592 17.0568 17.7299 17.0568C17.9331 17.0568 18.1636 16.9734 18.2393 16.9256L18.4183 17.3233ZM17.8415 16.2531C17.8415 15.9783 17.7222 15.843 17.5549 15.843C17.38 15.843 17.2488 15.9824 17.2246 16.2531H17.8415ZM18.6848 15.4453V17.4746H19.3213V16.1615C19.433 16.0498 19.612 15.9824 19.7793 15.9824C19.8189 15.9824 19.9022 15.9824 19.9383 15.9902V15.3974C19.664 15.3974 19.4212 15.5646 19.2899 15.8152V15.4453H18.6848Z" fill="#2D2341"/>
</svg>
