<svg width="80" height="80" viewBox="0 0 80 80" fill="none" xmlns="http://www.w3.org/2000/svg">
<path d="M45.1893 15.2232C45.361 15.3484 45.568 15.4157 45.7805 15.4153L52.2037 15.403L54.177 21.5156C54.2422 21.7178 54.3702 21.894 54.5424 22.0186L59.746 25.7841L57.7495 31.8892C57.6835 32.0911 57.6835 32.3089 57.7495 32.5108L59.746 38.6159L54.5424 42.3815C54.3702 42.506 54.2422 42.6822 54.177 42.8844L52.2037 48.997L45.7805 48.9848C45.568 48.9844 45.361 49.0517 45.1893 49.1769L40 52.9622L34.8107 49.1769C34.639 49.0517 34.432 48.9844 34.2195 48.9848L27.7963 48.997L25.823 42.8844C25.7577 42.6822 25.6298 42.506 25.4576 42.3815L20.254 38.6159L22.2505 32.5108C22.3165 32.3089 22.3165 32.0911 22.2505 31.8892L20.254 25.7841L25.4576 22.0186C25.6298 21.894 25.7577 21.7178 25.823 21.5156L27.7963 15.403L34.2195 15.4153C34.432 15.4157 34.639 15.3484 34.8107 15.2232L40 11.4378L45.1893 15.2232Z" stroke="black" stroke-width="2" stroke-linejoin="round"/>
<path d="M34.5 33.1L37.5938 36.6L44.4 28.9" stroke="black" stroke-width="2" stroke-linecap="round" stroke-linejoin="round"/>
<circle cx="40.0009" cy="32.2" r="11.1" stroke="black" stroke-width="2"/>
<path d="M31.2002 49.8V69.8L40.0002 64.4667L48.8002 69.8V49.8" stroke="black" stroke-width="2" stroke-linecap="round" stroke-linejoin="round"/>
</svg>
