<svg width="80" height="80" viewBox="0 0 80 80" fill="none" xmlns="http://www.w3.org/2000/svg">
<path d="M27 32V48L40 54M27 32L40 38M27 32L33.5 29M40 54L53 48V32M40 54V38M53 32L40 26L33.5 29M53 32L46.5 35M40 38L46.5 35M33.5 29L46.5 35" stroke="black" stroke-width="2" stroke-linecap="round" stroke-linejoin="round"/>
<path d="M26 15.7459C30.1184 13.3635 34.9 12 40 12C55.464 12 68 24.536 68 40C68 45.9372 66.1521 51.4428 63 55.9731" stroke="black" stroke-width="2" stroke-linecap="round" stroke-linejoin="round"/>
<path d="M26.3333 10L24 17H31" stroke="black" stroke-width="2" stroke-linecap="round" stroke-linejoin="round"/>
<path d="M53.6667 70L56 63H49" stroke="black" stroke-width="2" stroke-linecap="round" stroke-linejoin="round"/>
<path d="M17.0188 24C13.8553 28.5353 12 34.051 12 40C12 55.464 24.536 68 40 68C45.2787 68 50.2162 66.5393 54.4303 64" stroke="black" stroke-width="2" stroke-linecap="round"/>
</svg>
