<svg width="80" height="80" viewBox="0 0 80 80" fill="none" xmlns="http://www.w3.org/2000/svg">
<path d="M26.1974 52.464H10M21.3208 26.4263H53.0189V52.464H36.0377" stroke="black" stroke-width="2" stroke-linecap="round" stroke-linejoin="round"/>
<path d="M65.4719 52.464H70.0002V41.1434L65.1484 32.0866H53.019V52.464H56.4153" stroke="black" stroke-width="2" stroke-linecap="round" stroke-linejoin="round"/>
<path d="M31.5097 56.9923C34.0107 56.9923 36.038 54.9649 36.038 52.464C36.038 49.9631 34.0107 47.9357 31.5097 47.9357C29.0088 47.9357 26.9814 49.9631 26.9814 52.464C26.9814 54.9649 29.0088 56.9923 31.5097 56.9923Z" stroke="black" stroke-width="2" stroke-linecap="round" stroke-linejoin="round"/>
<path d="M60.9433 56.9923C63.4443 56.9923 65.4716 54.9649 65.4716 52.464C65.4716 49.9631 63.4443 47.9357 60.9433 47.9357C58.4424 47.9357 56.415 49.9631 56.415 52.464C56.415 54.9649 58.4424 56.9923 60.9433 56.9923Z" stroke="black" stroke-width="2" stroke-linecap="round" stroke-linejoin="round"/>
<path d="M19.0566 34.3508H30.3774" stroke="black" stroke-width="2" stroke-linecap="round" stroke-linejoin="round"/>
<path d="M14.5283 43.4074H25.8491" stroke="black" stroke-width="2" stroke-linecap="round" stroke-linejoin="round"/>
</svg>
