<svg width="34" height="24" viewBox="0 0 34 24" fill="none" xmlns="http://www.w3.org/2000/svg">
<rect x="0.5" y="0.5" width="33" height="23" rx="3.5" fill="white" stroke="#E5E5E5"/>
<mask id="mask0_32_1563" style="mask-type:luminance" maskUnits="userSpaceOnUse" x="3" y="9" width="27" height="7">
<path d="M30 9H3V15.4843H30V9Z" fill="white"/>
</mask>
<g mask="url(#mask0_32_1563)">
<path d="M9.91713 11.0386C9.70061 10.5843 9.29007 10.2909 8.67143 10.2909C8.48155 10.2942 8.29496 10.3411 8.12606 10.4279C7.95717 10.5147 7.81047 10.6392 7.69729 10.7917L7.67471 10.8192V9.0388C7.67471 9.02851 7.67063 9.01864 7.66335 9.01136C7.65608 9.00409 7.6462 9 7.63592 9H6.76123C6.75107 9.00018 6.74139 9.00435 6.73426 9.01161C6.72713 9.01887 6.72314 9.02863 6.72314 9.0388V14.1458C6.72314 14.1559 6.72717 14.1656 6.73431 14.1727C6.74145 14.1799 6.75113 14.1839 6.76123 14.1839H7.698C7.70817 14.1839 7.71792 14.1799 7.72518 14.1728C7.73243 14.1657 7.7366 14.156 7.73679 14.1458V11.9683C7.73679 11.545 8.01894 11.2453 8.4704 11.2453C8.96416 11.2453 9.08903 11.6516 9.08903 12.0656V14.1458C9.08903 14.1559 9.09303 14.1656 9.10018 14.1727C9.10732 14.1799 9.11701 14.1839 9.12711 14.1839H10.0617C10.0719 14.1839 10.0817 14.1799 10.0889 14.1728C10.0962 14.1657 10.1004 14.156 10.1006 14.1458V11.9415C10.1006 11.866 10.1006 11.7919 10.0907 11.72C10.0746 11.4842 10.0158 11.2533 9.91713 11.0386Z" fill="#5A31F4"/>
<path d="M5.23964 11.7955C5.23964 11.7955 4.76279 11.6833 4.58715 11.6382C4.41151 11.593 4.10466 11.4971 4.10466 11.265C4.10466 11.0329 4.35225 10.9589 4.60338 10.9589C4.85449 10.9589 5.13383 11.0195 5.1557 11.2982C5.15658 11.3082 5.1612 11.3175 5.16864 11.3243C5.17609 11.3311 5.18582 11.3349 5.1959 11.3348L6.11925 11.3313C6.12469 11.3313 6.13007 11.3302 6.13505 11.3281C6.14004 11.3259 6.14452 11.3227 6.14823 11.3188C6.15194 11.3148 6.15479 11.3101 6.1566 11.305C6.15841 11.2999 6.15915 11.2944 6.15876 11.289C6.10162 10.3974 5.31934 10.0786 4.59773 10.0786C3.74209 10.0786 3.11641 10.6429 3.11641 11.265C3.11641 11.7193 3.24479 12.1453 4.2542 12.4416C4.43126 12.4931 4.6718 12.5601 4.88201 12.6187C5.13453 12.6892 5.27067 12.7957 5.27067 12.9636C5.27067 13.1583 4.98852 13.2937 4.7113 13.2937C4.30993 13.2937 4.02496 13.1449 4.00168 12.8775C4.00046 12.8678 3.9957 12.8587 3.98829 12.8522C3.98087 12.8457 3.97133 12.8422 3.96147 12.8423L3.04023 12.8465C3.03483 12.8465 3.02948 12.8476 3.02451 12.8497C3.01954 12.8518 3.01504 12.8549 3.01129 12.8588C3.00754 12.8626 3.00461 12.8673 3.00267 12.8723C3.00073 12.8773 2.99984 12.8827 3.00002 12.8881C3.04235 13.7296 3.85496 14.1832 4.61255 14.1832C5.74117 14.1832 6.25116 13.5484 6.25116 12.9537C6.25258 12.6744 6.18838 12.0381 5.23964 11.7955Z" fill="#5A31F4"/>
<path d="M17.1186 10.2894C16.6496 10.2894 16.2566 10.549 16.0034 10.8622V10.3261C16.0034 10.3161 15.9994 10.3066 15.9924 10.2994C15.9855 10.2923 15.976 10.2882 15.966 10.288H15.0899C15.0798 10.288 15.0701 10.292 15.063 10.2992C15.0558 10.3063 15.0518 10.316 15.0518 10.3261V15.3344C15.052 15.3443 15.0561 15.3539 15.0633 15.3608C15.0704 15.3678 15.08 15.3718 15.0899 15.3718H16.0274C16.0373 15.3718 16.0468 15.3678 16.0538 15.3608C16.0608 15.3538 16.0647 15.3443 16.0647 15.3344V13.688H16.0788C16.2276 13.9151 16.6347 14.1874 17.1666 14.1874C18.1667 14.1874 19.0006 13.3579 19.0006 12.237C19.0013 11.1613 18.1717 10.2894 17.1186 10.2894ZM17.0318 13.233C16.8344 13.2379 16.6399 13.1839 16.4733 13.0778C16.3068 12.9717 16.1755 12.8184 16.0964 12.6374C16.0173 12.4564 15.9939 12.2559 16.0293 12.0616C16.0646 11.8673 16.1571 11.6879 16.2948 11.5463C16.4326 11.4047 16.6094 11.3074 16.8027 11.2668C16.996 11.2262 17.197 11.2441 17.3801 11.3182C17.5632 11.3923 17.72 11.5193 17.8306 11.6829C17.9412 11.8466 18.0005 12.0395 18.0011 12.237C18.0031 12.3661 17.9795 12.4944 17.9319 12.6144C17.8843 12.7344 17.8134 12.8439 17.7234 12.9364C17.6334 13.0289 17.5259 13.1028 17.4071 13.1537C17.2885 13.2046 17.161 13.2316 17.0318 13.233Z" fill="#5A31F4"/>
<path d="M12.2775 10.0694C11.4035 10.0694 10.9675 10.3664 10.6176 10.6041L10.607 10.6112C10.589 10.6235 10.5763 10.6422 10.5715 10.6635C10.5666 10.6848 10.57 10.7072 10.581 10.7261L10.9266 11.3215C10.9331 11.3326 10.942 11.3422 10.9525 11.3495C10.9632 11.3568 10.9752 11.3617 10.988 11.3638C11.0004 11.366 11.0132 11.3655 11.0254 11.3622C11.0376 11.3589 11.0489 11.353 11.0585 11.3447L11.086 11.3222C11.2659 11.1712 11.5544 10.9695 12.2527 10.9145C12.6414 10.8834 12.9772 10.985 13.2248 11.2164C13.497 11.4675 13.66 11.8731 13.66 12.3013C13.66 13.0892 13.1958 13.5844 12.4503 13.5942C11.8358 13.5907 11.4232 13.2705 11.4232 12.7972C11.4232 12.546 11.5367 12.3824 11.7583 12.2187C11.7752 12.2066 11.7871 12.1888 11.7919 12.1686C11.7967 12.1484 11.7941 12.1271 11.7844 12.1087L11.474 11.5218C11.4683 11.5113 11.4605 11.502 11.4512 11.4945C11.4419 11.487 11.4312 11.4814 11.4197 11.4781C11.4079 11.4746 11.3956 11.4736 11.3835 11.4752C11.3713 11.4767 11.3596 11.4809 11.3491 11.4872C11.0007 11.6939 10.5732 12.072 10.5965 12.7986C10.6247 13.7233 11.3936 14.4294 12.3931 14.4583H12.4432H12.5116C13.6994 14.4195 14.5572 13.5378 14.5572 12.3422C14.5572 11.2446 13.7573 10.0694 12.2775 10.0694Z" fill="#5A31F4"/>
<path d="M22.6946 10.6337H22.0992C22.0853 10.6339 22.0719 10.6395 22.062 10.6494C22.0521 10.6593 22.0464 10.6727 22.0464 10.6866V11.9359C22.0464 11.9498 22.0521 11.9631 22.0621 11.9728C22.072 11.9826 22.0853 11.9881 22.0992 11.9881H22.6946C23.0572 11.9881 23.3245 11.7024 23.3245 11.3109C23.3245 10.9194 23.0572 10.6337 22.6946 10.6337Z" fill="#5A31F4"/>
<path d="M24.5234 12.8437C24.5234 13.025 24.6765 13.1258 24.9431 13.1258C25.3057 13.1258 25.5201 12.9297 25.5201 12.582V12.4818L24.977 12.51C24.6906 12.5241 24.5234 12.6433 24.5234 12.8437Z" fill="#5A31F4"/>
<path d="M28.9324 9.01131H20.9333C20.8022 9.01131 20.6721 9.03717 20.551 9.08741C20.4297 9.13765 20.3196 9.21129 20.2269 9.30411C20.1341 9.39694 20.0605 9.50713 20.0104 9.6284C19.9602 9.74966 19.9344 9.87962 19.9346 10.0109V14.3899C19.9346 14.6549 20.0398 14.909 20.2271 15.0964C20.4144 15.2839 20.6685 15.3892 20.9333 15.3894H28.9324C29.0638 15.3898 29.1941 15.3643 29.3156 15.3143C29.437 15.2643 29.5475 15.1909 29.6406 15.0982C29.7336 15.0055 29.8076 14.8953 29.8581 14.774C29.9086 14.6527 29.9346 14.5227 29.9349 14.3913V10.0123C29.9351 9.88062 29.9094 9.75021 29.8591 9.62856C29.8088 9.5069 29.7349 9.39638 29.6418 9.30336C29.5487 9.21034 29.438 9.13665 29.3163 9.08653C29.1946 9.03641 29.0642 9.01085 28.9324 9.01131ZM22.725 12.4797H22.0958C22.0818 12.4797 22.0684 12.4853 22.0584 12.4952C22.0485 12.5051 22.0429 12.5186 22.0429 12.5326V13.4285C22.0429 13.4425 22.0373 13.4559 22.0275 13.4659C22.0175 13.4758 22.0041 13.4814 21.9901 13.4814H21.547C21.5331 13.4812 21.5197 13.4755 21.5098 13.4657C21.4999 13.4558 21.4944 13.4424 21.4942 13.4285V10.1971C21.4942 10.183 21.4997 10.1696 21.5097 10.1597C21.5196 10.1497 21.533 10.1442 21.547 10.1442H22.725C23.3923 10.1442 23.8699 10.6302 23.8699 11.3123C23.8699 11.9944 23.3958 12.4811 22.7286 12.4811L22.725 12.4797ZM26.0404 13.4278C26.0405 13.4348 26.0392 13.4417 26.0366 13.4482C26.0339 13.4547 26.0301 13.4606 26.0252 13.4656C26.0202 13.4706 26.0144 13.4746 26.0078 13.4773C26.0015 13.48 25.9945 13.4814 25.9875 13.4814H25.5692C25.5622 13.4814 25.5552 13.48 25.5488 13.4773C25.5423 13.4746 25.5364 13.4706 25.5315 13.4656C25.5266 13.4606 25.5227 13.4547 25.5201 13.4482C25.5175 13.4417 25.5162 13.4348 25.5163 13.4278V13.3311C25.5169 13.3226 25.5149 13.3142 25.5104 13.3069C25.5059 13.2997 25.4992 13.2942 25.4912 13.2911C25.4834 13.288 25.4747 13.2875 25.4665 13.2898C25.4582 13.292 25.451 13.2969 25.4458 13.3036C25.3209 13.4397 25.1177 13.5385 24.7939 13.5385C24.3172 13.5385 24.0018 13.2902 24.0018 12.8613C23.9972 12.7568 24.0188 12.6527 24.0646 12.5586C24.1104 12.4645 24.1791 12.3833 24.2643 12.3224C24.4363 12.1933 24.7029 12.1263 25.0987 12.1108L25.5184 12.0967V11.9739C25.5184 11.7263 25.3519 11.6213 25.0845 11.6213C24.8172 11.6213 24.6486 11.7158 24.6092 11.8703C24.606 11.8812 24.5993 11.8907 24.5901 11.8974C24.5809 11.904 24.5697 11.9074 24.5583 11.9069H24.1443C24.1367 11.9071 24.1291 11.9056 24.1221 11.9026C24.1152 11.8995 24.1089 11.895 24.1038 11.8893C24.0988 11.8836 24.0951 11.8768 24.093 11.8695C24.0908 11.8622 24.0902 11.8545 24.0914 11.847C24.1535 11.4802 24.4568 11.2015 25.1037 11.2015C25.7907 11.2015 26.0382 11.5211 26.0382 12.1312L26.0404 13.4278ZM28.6461 11.3313L27.715 13.815C27.5034 14.392 27.1331 14.5402 26.7274 14.5402C26.651 14.542 26.5747 14.5327 26.501 14.5126C26.4895 14.5096 26.4794 14.5028 26.472 14.4933C26.4649 14.4839 26.4609 14.4723 26.4608 14.4604V14.0831C26.4608 14.0752 26.4625 14.0674 26.4658 14.0602C26.4692 14.053 26.474 14.0467 26.4801 14.0417C26.4862 14.0366 26.4932 14.033 26.5009 14.031C26.5085 14.029 26.5165 14.0287 26.5243 14.0301C26.5883 14.0423 26.6532 14.0484 26.7183 14.0485C26.8304 14.0541 26.9412 14.0219 27.033 13.9571C27.1246 13.8922 27.1919 13.7985 27.224 13.6909L27.2516 13.6041C27.2558 13.5925 27.2558 13.5797 27.2516 13.5681L26.3811 11.332C26.3784 11.3241 26.3777 11.3155 26.379 11.3072C26.3802 11.2989 26.3834 11.2909 26.3882 11.2841C26.3931 11.2772 26.3996 11.2716 26.407 11.2677C26.4144 11.2637 26.4228 11.2616 26.4311 11.2615H26.8544C26.8653 11.2616 26.8758 11.2649 26.8847 11.2711C26.8937 11.2773 26.9005 11.286 26.9045 11.2961L27.4956 12.8733C27.4996 12.8836 27.5065 12.8925 27.5155 12.8988C27.5247 12.905 27.5354 12.9084 27.5464 12.9084C27.5574 12.9084 27.5682 12.905 27.5773 12.8988C27.5863 12.8925 27.5933 12.8836 27.5971 12.8733L28.1101 11.3003C28.1134 11.2896 28.1203 11.2802 28.1294 11.2736C28.1385 11.267 28.1495 11.2635 28.1607 11.2636H28.5946C28.603 11.2636 28.6112 11.2655 28.6188 11.2693C28.6262 11.273 28.6328 11.2785 28.6378 11.2852C28.6428 11.2919 28.6461 11.2997 28.6476 11.308C28.6491 11.3162 28.6486 11.3247 28.6461 11.3327V11.3313Z" fill="#5A31F4"/>
</g>
</svg>
