<svg width="24" height="24" viewBox="0 0 24 24" fill="none" xmlns="http://www.w3.org/2000/svg">
<g clip-path="url(#clip0_51_4685)">
<path d="M12.1716 2.66084C12.9966 2.66084 15.7941 2.89084 17.1132 5.845C17.5541 6.83917 17.4491 8.5275 17.3624 9.88417L17.3599 9.93417C17.3499 10.0842 17.3416 10.2217 17.3349 10.3592C17.3974 10.3967 17.5041 10.4342 17.6691 10.4342C17.9191 10.4208 18.2182 10.3342 18.5299 10.1833C18.6674 10.11 18.8166 10.0967 18.9166 10.0967C19.0682 10.0967 19.2157 10.1208 19.3407 10.1717C19.7157 10.2958 19.9524 10.5708 19.9524 10.87C19.9649 11.2442 19.6274 11.5692 18.9416 11.8433C18.8674 11.8675 18.7674 11.9058 18.6549 11.9425C18.2799 12.055 17.7057 12.2425 17.5441 12.6175C17.4691 12.8042 17.4932 13.0542 17.6441 13.3408L17.6566 13.3533C17.7066 13.4667 18.9282 16.2492 21.6491 16.6983C21.8616 16.735 22.0116 16.9233 21.9991 17.1225C21.9991 17.185 21.9866 17.2467 21.9616 17.31C21.7616 17.7842 20.9007 18.1333 19.3399 18.3692C19.2907 18.445 19.2399 18.6817 19.2032 18.8442C19.1791 18.9933 19.1416 19.1442 19.0916 19.305C19.0282 19.5308 18.8666 19.6425 18.6291 19.6425H18.6041C18.4916 19.6425 18.3432 19.6167 18.1557 19.5808C17.8557 19.5183 17.5182 19.4683 17.0949 19.4683C16.8449 19.4683 16.5957 19.4808 16.3341 19.53C15.8341 19.6167 15.3982 19.9167 14.8982 20.2667C14.1874 20.7658 13.3766 21.34 12.1532 21.34C12.1032 21.34 12.0541 21.3275 12.0032 21.3275H11.8791C10.6557 21.3275 9.85656 20.765 9.14656 20.2542C8.64739 19.9042 8.22406 19.605 7.72406 19.5175C7.46239 19.48 7.19989 19.4558 6.95073 19.4558C6.50073 19.4558 6.15239 19.53 5.89073 19.58C5.71489 19.6158 5.56489 19.6417 5.44073 19.6417C5.12906 19.6417 5.00489 19.455 4.95489 19.2917C4.90406 19.1317 4.87989 18.9675 4.84239 18.8192C4.80406 18.6683 4.75489 18.4075 4.70406 18.3442C3.10573 18.1592 2.24573 17.8092 2.04656 17.3225C2.02073 17.27 2.00323 17.1975 2.00073 17.135C1.98823 16.9325 2.13823 16.7475 2.35073 16.7108C5.07073 16.2608 6.29239 13.4783 6.34323 13.3608L6.35656 13.3367C6.50656 13.0492 6.54323 12.7992 6.45573 12.6125C6.29323 12.2508 5.71906 12.0642 5.34573 11.9383C5.24489 11.9142 5.14573 11.8767 5.05739 11.8392C4.13489 11.4767 4.00989 11.0642 4.05989 10.7783C4.13489 10.3792 4.62156 10.1175 5.03323 10.1175C5.15489 10.1175 5.25823 10.1417 5.35239 10.1792C5.70239 10.3408 6.00989 10.4292 6.27239 10.4292C6.46739 10.4292 6.59239 10.3792 6.65989 10.3417L6.62156 9.8675C6.53989 8.5125 6.43406 6.825 6.87739 5.83667C8.15989 2.8975 10.9491 2.6725 11.7724 2.6725L12.1216 2.66H12.1716V2.66084Z" fill="black"/>
</g>
<defs>
<clipPath id="clip0_51_4685">
<rect width="20" height="20" fill="white" transform="translate(2 2)"/>
</clipPath>
</defs>
</svg>
