<svg width="34" height="24" viewBox="0 0 34 24" fill="none" xmlns="http://www.w3.org/2000/svg">
<rect x="0.5" y="0.5" width="33" height="23" rx="3.5" fill="#FA82A0" stroke="#FA82A0"/>
<g clip-path="url(#clip0_32_1251)">
<path d="M3.88037 2H30.1072C31.1108 2.05303 32.1058 2.45076 32.8084 3.15833C33.5228 3.82576 33.9251 4.76591 34 5.71894V18.2561C33.9353 19.2182 33.5274 20.1689 32.8084 20.8424C32.1152 21.5402 31.1381 21.9356 30.1493 22H3.89284C2.88844 21.9492 1.89417 21.5485 1.19156 20.8417C0.46789 20.1629 0.0584862 19.2053 0 18.2356V5.74621C0.0647248 4.78258 0.473349 3.8303 1.19312 3.15606C1.89261 2.45303 2.8822 2.05758 3.88037 2ZM4.83642 7.98788C4.63133 8.18182 4.56349 8.47576 4.6056 8.7447C4.70775 9.55076 4.80991 10.3568 4.91518 11.1621C4.64303 10.9636 4.26404 10.878 3.96615 11.078C3.57546 11.2848 3.56454 11.7864 3.71193 12.1455C3.31344 12.2273 2.97266 12.5795 3.04674 12.9939C3.0756 13.3864 3.42417 13.6227 3.65968 13.9015C3.73532 14.4273 3.86867 14.9735 4.25624 15.372C5.16239 16.3576 6.7844 16.4947 7.93151 15.8432C8.62555 15.428 8.96477 14.6379 9.08642 13.8856C9.12853 13.4765 9.18312 13.0326 8.99908 12.6477C8.85014 12.3545 8.4922 12.2985 8.21381 12.1788C8.45321 11.0303 8.69495 9.88258 8.93436 8.73409C9.00142 8.47121 8.93436 8.17879 8.73551 7.98561C8.42514 7.65227 7.82624 7.6947 7.53459 8.02803C7.37784 8.21667 7.33495 8.46364 7.26087 8.68864C7.06982 9.30227 6.89982 9.92197 6.69629 10.5318C6.53252 9.94091 6.40151 9.34167 6.25569 8.74621C6.19018 8.49394 6.15509 8.21439 5.96404 8.01667C5.6833 7.70758 5.13275 7.69242 4.83642 7.98788ZM11.0165 10.0553C10.671 10.5303 10.6593 11.2455 11.0898 11.675C11.4984 12.0985 12.1254 12.1508 12.6494 12.3652C12.9122 12.4659 12.9972 12.7886 12.9005 13.0288C12.7937 13.3114 12.4568 13.425 12.1698 13.3932C11.8111 13.3773 11.5382 13.1288 11.2972 12.897C11.0789 13.1182 10.8153 13.3045 10.657 13.5742C11.0906 14.0083 11.6902 14.3076 12.3242 14.272C12.9021 14.2712 13.4955 13.9977 13.7809 13.4955C14.0671 12.9947 14.0429 12.297 13.6156 11.8765C13.2647 11.5341 12.7672 11.4129 12.3071 11.2742C12.095 11.2053 11.8244 11.1023 11.7978 10.853C11.7472 10.5591 12.017 10.2833 12.3203 10.3053C12.6151 10.278 12.8163 10.5083 13.0034 10.6902C13.26 10.5258 13.5329 10.3856 13.7716 10.1962C13.2608 9.21515 11.6388 9.15985 11.0165 10.0553ZM19.1468 9.775C18.7148 10.0652 18.4832 10.5803 18.4926 11.0841C18.4902 12.1159 18.4723 13.1485 18.4988 14.1803C18.8115 14.2 19.125 14.1947 19.4385 14.1894C19.5032 13.6894 19.4291 13.1841 19.4798 12.6841C19.5422 12.275 19.9734 12.0894 20.3517 12.047C20.368 11.7652 20.3665 11.4833 20.3563 11.2023C20.035 11.1818 19.7317 11.297 19.4689 11.4674C19.4564 11.1667 19.4299 10.8106 19.6701 10.5803C19.8487 10.3871 20.1271 10.3598 20.375 10.3212C20.3867 10.0424 20.386 9.76288 20.3735 9.48409C19.95 9.47803 19.5017 9.5303 19.1468 9.775ZM27.2959 9.89167C27.2585 10.7705 27.285 11.6508 27.285 12.5303C27.2788 12.8864 27.3357 13.2621 27.5642 13.553C27.9221 14.0311 28.56 14.2439 29.1527 14.1894C29.1698 13.9152 29.1706 13.6402 29.1558 13.3652C28.8821 13.3273 28.5717 13.2803 28.4048 13.0394C28.1397 12.6727 28.2668 12.197 28.2434 11.7795C28.5117 11.9402 28.8103 12.0818 29.1355 12.05C29.1433 11.7705 29.1441 11.4909 29.1378 11.2114C28.8735 11.1379 28.5733 11.0773 28.4017 10.8462C28.1763 10.578 28.2535 10.2114 28.2262 9.89242C27.9159 9.87803 27.6055 9.87879 27.2959 9.89167ZM15.7055 10.9144C14.7502 11.0985 14.0905 12.153 14.4102 13.0583C14.6972 14.0508 15.973 14.5447 16.9166 14.128C17.485 13.8939 17.9288 13.3629 18.0036 12.7614C18.0847 12.0174 17.5927 11.2697 16.8861 10.9909C16.5126 10.8462 16.0954 10.8348 15.7055 10.9144ZM22.2396 10.8803C21.4754 10.9606 20.7954 11.5545 20.6768 12.2992C20.5458 12.9424 20.878 13.6227 21.4418 13.9697C22.0774 14.3879 22.9757 14.372 23.5933 13.9295C24.0956 13.5864 24.388 12.9727 24.3069 12.3788C24.2086 11.428 23.1949 10.7326 22.2396 10.8803ZM25.7956 11.2477C25.7893 11.175 25.7768 11.0311 25.7706 10.9591C25.4688 10.9379 25.1655 10.9447 24.8629 10.9462C24.8067 11.2689 24.8457 11.5962 24.8372 11.9212C24.8496 12.6765 24.8106 13.4341 24.8543 14.1879C25.1655 14.1947 25.4774 14.2008 25.7885 14.1795C25.8416 13.6083 25.7449 13.0295 25.8361 12.4621C25.9149 12.0652 26.3367 11.9008 26.7072 11.8659C26.6884 11.5447 26.8031 11.1735 26.6471 10.8833C26.3196 10.8659 26.0201 11.028 25.7956 11.2477ZM30.0487 13.0902C29.6283 13.2523 29.5589 13.8841 29.9426 14.122C30.3169 14.4015 30.9439 14.1364 30.9587 13.6712C31.0008 13.2227 30.4542 12.8886 30.0487 13.0902Z" fill="#FA82A0"/>
<path d="M4.95438 8.72803C4.90525 8.4947 4.99493 8.2144 5.23589 8.11818C5.48387 8.02121 5.76773 8.20227 5.81842 8.44773C6.06094 9.3697 6.26447 10.3008 6.50933 11.222C6.53195 11.35 6.67154 11.3886 6.78305 11.3417C6.89378 11.1864 6.92264 10.9932 6.98112 10.8159C7.22209 10.0159 7.45837 9.21364 7.71103 8.41667C7.79993 8.08636 8.30915 7.97955 8.51814 8.26136C8.68424 8.44243 8.60938 8.6947 8.56571 8.90455C8.3302 9.96515 8.13447 11.0348 7.88025 12.0894L7.82644 12.1167C7.29461 12.0326 6.78227 11.8417 6.24342 11.8015C5.9853 11.7788 5.76305 11.9227 5.57277 12.0742C5.44566 11.9227 5.33571 11.7515 5.31699 11.5523C5.18832 10.6121 5.07759 9.66894 4.95438 8.72803Z" fill="#FA82A0"/>
<path d="M3.97995 11.6174C4.01504 11.347 4.39871 11.1947 4.6116 11.3826C4.83931 11.5742 4.975 11.8432 5.15358 12.075C5.25885 12.2402 5.42729 12.3902 5.42183 12.5992C5.41715 12.8 5.49436 12.9848 5.60119 13.1523C5.44055 13.3295 5.14734 13.4364 4.94458 13.2583C4.70206 13.0068 4.53518 12.697 4.32463 12.4212C4.16321 12.1788 3.92614 11.9303 3.97995 11.6174Z" fill="#FA82A0"/>
<path d="M15.9403 11.7417C16.5205 11.5644 17.1342 12.0992 17.0281 12.678C17.0001 13.2083 16.3879 13.5523 15.8888 13.378C15.378 13.2432 15.1371 12.6144 15.3858 12.172C15.4934 11.9583 15.704 11.8008 15.9403 11.7417Z" fill="#FA82A0"/>
<path d="M22.26 11.7394C22.8729 11.5583 23.5061 12.1545 23.3385 12.7561C23.2418 13.4045 22.3114 13.6364 21.8607 13.1818C21.3991 12.7515 21.6182 11.8712 22.26 11.7394Z" fill="#FA82A0"/>
<path d="M5.86252 12.3212C6.02004 12.078 6.35536 12.1364 6.59867 12.1909C7.20147 12.3379 7.8105 12.4614 8.4133 12.6076C8.68624 12.6659 8.78059 12.9667 8.78839 13.2061C8.79229 13.8826 8.64335 14.5886 8.22147 15.1409C7.90408 15.5659 7.38082 15.7833 6.86069 15.8621C6.08399 16.0182 5.23009 15.8159 4.64913 15.2826C4.35046 15.0205 4.18514 14.653 4.06738 14.2864C4.3216 14.5318 4.65147 14.7879 5.03592 14.6841C5.52252 14.5803 5.7588 14.0364 5.59504 13.5992C5.71669 13.5152 5.81963 13.3212 5.99353 13.3811C6.23683 13.4492 6.47624 13.528 6.72578 13.572C6.3538 13.8371 6.14793 14.2803 6.17523 14.7258C6.22046 14.8864 6.50899 14.8788 6.50275 14.6985C6.55734 14.3947 6.62362 14.0439 6.92463 13.875C7.17963 13.6947 7.50403 13.7871 7.79023 13.7326C7.85417 13.6409 7.85105 13.5553 7.78009 13.4742C7.21082 13.2886 6.59009 13.2682 6.03876 13.0288C5.74633 12.9182 5.70422 12.5538 5.86252 12.3212Z" fill="#FA82A0"/>
<path d="M3.60801 12.5485C3.74526 12.4773 3.94645 12.4864 4.04081 12.6197C4.26306 12.8894 4.41824 13.2061 4.65609 13.4644C4.80113 13.6311 5.03586 13.65 5.23159 13.7265C5.48503 14.0508 5.05146 14.5136 4.6904 14.3538C4.45879 14.2023 4.28022 13.9886 4.0759 13.8053C3.87315 13.5985 3.63765 13.4174 3.46687 13.1833C3.32416 12.9795 3.37251 12.6644 3.60801 12.5485Z" fill="#FA82A0"/>
<path d="M4.83649 7.98788C5.13282 7.69242 5.68337 7.70757 5.96411 8.01666C6.15516 8.21439 6.19025 8.49394 6.25576 8.74621C6.40158 9.34166 6.53259 9.94091 6.69635 10.5318C6.89989 9.92197 7.06989 9.30227 7.26094 8.68863C7.33502 8.46363 7.37791 8.21666 7.53466 8.02803C7.82631 7.69469 8.42521 7.65227 8.73557 7.9856C8.93443 8.17879 9.00149 8.47121 8.93443 8.73409C8.69502 9.88257 8.45328 11.0303 8.21388 12.1788C8.49227 12.2985 8.85021 12.3545 8.99915 12.6477C9.18319 13.0326 9.1286 13.4765 9.08649 13.8856C8.96484 14.6379 8.62562 15.428 7.93158 15.8432C6.78447 16.4947 5.16246 16.3576 4.25631 15.372C3.86874 14.9735 3.73539 14.4273 3.65975 13.9015C3.42424 13.6227 3.07567 13.3864 3.04681 12.9939C2.97273 12.5795 3.31351 12.2273 3.712 12.1455C3.56461 11.7864 3.57553 11.2848 3.96622 11.078C4.26411 10.878 4.6431 10.9636 4.91525 11.1621C4.80998 10.3568 4.70782 9.55075 4.60567 8.74469C4.56356 8.47575 4.6314 8.18182 4.83649 7.98788ZM4.95424 8.72803C5.07746 9.66894 5.18819 10.6121 5.31686 11.5523C5.33557 11.7515 5.44553 11.9227 5.57264 12.0742C5.76291 11.9227 5.98516 11.7788 6.24328 11.8015C6.78213 11.8417 7.29447 12.0326 7.82631 12.1167L7.88012 12.0894C8.13434 11.0348 8.33007 9.96515 8.56557 8.90454C8.60924 8.69469 8.68411 8.44242 8.51801 8.26136C8.30902 7.97954 7.79979 8.08636 7.7109 8.41666C7.45823 9.21363 7.22195 10.0159 6.98099 10.8159C6.9225 10.9932 6.89365 11.1864 6.78291 11.3417C6.6714 11.3886 6.53181 11.35 6.5092 11.222C6.26434 10.3008 6.0608 9.36969 5.81828 8.44772C5.76759 8.20227 5.48374 8.02121 5.23576 8.11818C4.99479 8.21439 4.90512 8.49469 4.95424 8.72803ZM3.98025 11.6174C3.92645 11.9303 4.16351 12.1788 4.32493 12.4212C4.53548 12.697 4.70236 13.0068 4.94489 13.2583C5.14764 13.4364 5.44085 13.3295 5.60149 13.1523C5.49466 12.9848 5.41745 12.8 5.42213 12.5992C5.42759 12.3901 5.25915 12.2401 5.15388 12.075C4.9753 11.8432 4.83961 11.5742 4.6119 11.3826C4.39901 11.1947 4.01535 11.347 3.98025 11.6174ZM5.86273 12.3212C5.70443 12.5538 5.74654 12.9182 6.03897 13.0288C6.5903 13.2682 7.21103 13.2886 7.7803 13.4742C7.85126 13.5553 7.85438 13.6409 7.79044 13.7326C7.50424 13.7871 7.17984 13.6947 6.92484 13.875C6.62383 14.0439 6.55755 14.3947 6.50296 14.6985C6.5092 14.8788 6.22067 14.8864 6.17544 14.7258C6.14814 14.2803 6.35401 13.8371 6.72599 13.572C6.47645 13.528 6.23704 13.4492 5.99374 13.3811C5.81984 13.3212 5.7169 13.5151 5.59525 13.5992C5.75901 14.0364 5.52273 14.5803 5.03613 14.6841C4.65168 14.7879 4.32181 14.5318 4.06759 14.2864C4.18535 14.653 4.35067 15.0205 4.64934 15.2826C5.2303 15.8159 6.0842 16.0182 6.8609 15.8621C7.38103 15.7833 7.90429 15.5659 8.22168 15.1409C8.64356 14.5886 8.7925 13.8826 8.7886 13.2061C8.7808 12.9667 8.68645 12.6659 8.41351 12.6076C7.81071 12.4614 7.20168 12.3379 6.59888 12.1909C6.35557 12.1364 6.02025 12.078 5.86273 12.3212ZM3.60828 12.5485C3.37278 12.6644 3.32443 12.9795 3.46713 13.1833C3.63791 13.4174 3.87342 13.5985 4.07617 13.8053C4.28048 13.9886 4.45906 14.2023 4.69067 14.3538C5.05172 14.5136 5.4853 14.0508 5.23186 13.7265C5.03612 13.65 4.8014 13.6311 4.65635 13.4644C4.41851 13.2061 4.26333 12.8894 4.04108 12.6197C3.94672 12.4864 3.74553 12.4773 3.60828 12.5485Z" fill="#FDFDFD"/>
<path d="M11.0167 10.0553C11.639 9.15985 13.261 9.21515 13.7718 10.1962C13.5332 10.3856 13.2603 10.5258 13.0037 10.6902C12.8165 10.5083 12.6153 10.278 12.3206 10.3053C12.0172 10.2833 11.7474 10.5591 11.7981 10.853C11.8246 11.1023 12.0952 11.2053 12.3073 11.2742C12.7674 11.4129 13.2649 11.5341 13.6159 11.8765C14.0432 12.297 14.0674 12.9947 13.7812 13.4955C13.4958 13.9977 12.9023 14.2712 12.3245 14.272C11.6905 14.3076 11.0908 14.0083 10.6572 13.5742C10.8155 13.3045 11.0791 13.1182 11.2975 12.897C11.5384 13.1288 11.8114 13.3773 12.1701 13.3932C12.457 13.425 12.7939 13.3114 12.9008 13.0288C12.9975 12.7886 12.9125 12.4659 12.6497 12.3652C12.1256 12.1508 11.4986 12.0985 11.09 11.675C10.6596 11.2455 10.6713 10.5303 11.0167 10.0553Z" fill="#FDFDFD"/>
<path d="M19.1467 9.775C19.5016 9.5303 19.9499 9.47803 20.3734 9.48409C20.3859 9.76288 20.3866 10.0424 20.3749 10.3212C20.127 10.3598 19.8486 10.3871 19.67 10.5803C19.4298 10.8106 19.4563 11.1667 19.4688 11.4674C19.7316 11.297 20.0349 11.1818 20.3562 11.2023C20.3664 11.4833 20.3679 11.7652 20.3516 12.047C19.9733 12.0894 19.5421 12.275 19.4797 12.6841C19.429 13.1841 19.5031 13.6894 19.4384 14.1894C19.1249 14.1947 18.8114 14.2 18.4987 14.1803C18.4722 13.1485 18.4901 12.1159 18.4925 11.0841C18.4831 10.5803 18.7147 10.0652 19.1467 9.775Z" fill="#FDFDFD"/>
<path d="M27.2959 9.89166C27.6055 9.87878 27.9159 9.87803 28.2262 9.89242C28.2535 10.2114 28.1763 10.578 28.4017 10.8462C28.5732 11.0773 28.8735 11.1379 29.1378 11.2114C29.1441 11.4909 29.1433 11.7704 29.1355 12.05C28.8103 12.0818 28.5116 11.9401 28.2434 11.7795C28.2668 12.197 28.1397 12.6727 28.4048 13.0394C28.5717 13.2803 28.8821 13.3273 29.1558 13.3651C29.1706 13.6401 29.1698 13.9151 29.1527 14.1894C28.56 14.2439 27.9221 14.0311 27.5642 13.553C27.3357 13.2621 27.2788 12.8864 27.285 12.5303C27.285 11.6508 27.2585 10.7704 27.2959 9.89166Z" fill="#FDFDFD"/>
<path d="M15.7054 10.9144C16.0953 10.8348 16.5125 10.8462 16.8861 10.9909C17.5926 11.2697 18.0846 12.0174 18.0035 12.7614C17.9287 13.3629 17.485 13.8939 16.9165 14.128C15.9729 14.5447 14.6971 14.0508 14.4102 13.0583C14.0904 12.153 14.7502 11.0985 15.7054 10.9144ZM15.9402 11.7417C15.7039 11.8008 15.4933 11.9583 15.3857 12.172C15.1369 12.6144 15.3779 13.2432 15.8887 13.378C16.3878 13.5523 16.9999 13.2083 17.028 12.678C17.1341 12.0992 16.5203 11.5644 15.9402 11.7417Z" fill="#FDFDFD"/>
<path d="M22.2397 10.8803C23.1949 10.7326 24.2087 11.428 24.307 12.3788C24.3881 12.9727 24.0956 13.5864 23.5934 13.9295C22.9758 14.372 22.0775 14.3879 21.4419 13.9697C20.8781 13.6227 20.5459 12.9424 20.6769 12.2992C20.7955 11.5545 21.4755 10.9606 22.2397 10.8803ZM22.2599 11.7394C21.6182 11.8712 21.399 12.7515 21.8607 13.1818C22.3114 13.6364 23.2417 13.4045 23.3384 12.7561C23.5061 12.1545 22.8729 11.5583 22.2599 11.7394Z" fill="#FDFDFD"/>
<path d="M25.7957 11.2477C26.0203 11.028 26.3197 10.8659 26.6473 10.8833C26.8032 11.1735 26.6886 11.5447 26.7073 11.8659C26.3369 11.9008 25.915 12.0652 25.8363 12.4621C25.745 13.0295 25.8417 13.6083 25.7887 14.1795C25.4775 14.2008 25.1656 14.1947 24.8545 14.1879C24.8108 13.4341 24.8498 12.6765 24.8373 11.9212C24.8459 11.5962 24.8069 11.2689 24.863 10.9462C25.1656 10.9447 25.469 10.9379 25.7708 10.9591C25.777 11.0311 25.7895 11.175 25.7957 11.2477Z" fill="#FDFDFD"/>
<path d="M30.0485 13.0901C30.454 12.8886 31.0007 13.2227 30.9586 13.6712C30.9438 14.1364 30.3168 14.4015 29.9425 14.122C29.5588 13.8841 29.6282 13.2523 30.0485 13.0901Z" fill="#FDFDFD"/>
</g>
<defs>
<clipPath id="clip0_32_1251">
<rect width="34" height="20" fill="white" transform="translate(0 2)"/>
</clipPath>
</defs>
</svg>
