<svg width="34" height="24" viewBox="0 0 34 24" fill="none" xmlns="http://www.w3.org/2000/svg">
<rect x="0.5" y="0.5" width="33" height="23" rx="3.5" fill="white" stroke="#E5E5E5"/>
<path fill-rule="evenodd" clip-rule="evenodd" d="M17.612 8.4344L15.859 8.81597V7.3745L17.612 7V8.4344ZM21.2576 9.23286C20.5732 9.23286 20.1332 9.5579 19.8887 9.78402L19.798 9.34592H18.2614V17.5849L20.0075 17.2104L20.0145 15.2107C20.2659 15.3945 20.6361 15.6559 21.2507 15.6559C22.5008 15.6559 23.6392 14.6384 23.6392 12.3985C23.6322 10.3493 22.4799 9.23286 21.2576 9.23286ZM20.8385 14.1014C20.4265 14.1014 20.182 13.953 20.0144 13.7693L20.0074 11.1478C20.189 10.9428 20.4404 10.8015 20.8385 10.8015C21.4741 10.8015 21.9141 11.5223 21.9141 12.4479C21.9141 13.3948 21.4811 14.1014 20.8385 14.1014ZM29.1429 12.4691C29.1429 10.6602 28.2769 9.23286 26.6216 9.23286C24.9594 9.23286 23.9537 10.6602 23.9537 12.455C23.9537 14.5819 25.141 15.6559 26.8451 15.6559C27.6762 15.6559 28.3048 15.4651 28.7797 15.1966V13.7834C28.3048 14.0236 27.76 14.172 27.0686 14.172C26.3911 14.172 25.7905 13.9318 25.7137 13.098H29.1289C29.1289 13.0593 29.1314 12.9716 29.1343 12.8704L29.1343 12.8688L29.1343 12.8687V12.8686C29.1383 12.7301 29.1429 12.5668 29.1429 12.4691ZM25.6928 11.7978C25.6928 10.9994 26.1747 10.6673 26.6147 10.6673C27.0408 10.6673 27.4947 10.9994 27.4947 11.7978H25.6928ZM15.859 9.353H17.612V15.5358H15.859V9.353ZM13.8686 9.35299L13.9804 9.87588C14.3924 9.11275 15.2096 9.2682 15.4331 9.35299V10.9782C15.2166 10.9005 14.5182 10.8015 14.1061 11.3456V15.5358H12.3601V9.35299H13.8686ZM10.4882 7.81965L8.78409 8.18708L8.77711 13.847C8.77711 14.8927 9.55235 15.6629 10.586 15.6629C11.1587 15.6629 11.5778 15.557 11.8082 15.4298V13.9954C11.5847 14.0872 10.4812 14.4123 10.4812 13.3665V10.858H11.8082V9.35298H10.4812L10.4882 7.81965ZM6.36064 10.7662C5.99048 10.7662 5.76699 10.8722 5.76699 11.1478C5.76699 11.4487 6.15163 11.581 6.62881 11.7452C7.40673 12.0129 8.43061 12.3652 8.43494 13.6704C8.43494 14.9352 7.4362 15.663 5.9835 15.663C5.38286 15.663 4.72635 15.5429 4.07683 15.2602V13.5785C4.66349 13.9035 5.40381 14.1438 5.9835 14.1438C6.37461 14.1438 6.65398 14.0378 6.65398 13.7127C6.65398 13.3795 6.23703 13.2271 5.73365 13.0432C4.96705 12.7631 4 12.4098 4 11.2326C4 9.98188 4.94286 9.23288 6.36064 9.23288C6.94033 9.23288 7.51303 9.32474 8.09271 9.55792V11.2184C7.56192 10.9287 6.89144 10.7662 6.36064 10.7662Z" fill="#6461FC"/>
</svg>
