<svg width="24" height="24" viewBox="0 0 24 24" fill="none" xmlns="http://www.w3.org/2000/svg">
<path d="M21 12H19C17.8954 12 17 12.8954 17 14V16C17 17.1046 17.8954 18 19 18C20.1046 18 21 17.1046 21 16V12ZM21 12C21 7.02944 16.9706 3 12 3C7.02944 3 3 7.02944 3 12M3 12V16C3 17.1046 3.89543 18 5 18C6.10457 18 7 17.1046 7 16V14C7 12.8954 6.10457 12 5 12H3Z" stroke="black" stroke-linecap="square"/>
<path d="M21 14V18C21 20 20.3333 21 19 21C17.6667 21 16 21 14 21" stroke="black" stroke-linecap="square"/>
</svg>
