<svg width="24" height="24" viewBox="0 0 24 24" fill="none" xmlns="http://www.w3.org/2000/svg">
<path d="M6.69384 11.844C5.54644 13.8313 6.61329 15.1097 7.29013 15.5005C7.96698 15.8913 9.60752 16.176 10.7549 14.1886C11.9023 12.2013 11.3136 10.0948 10.8758 9.29001C9.95987 9.31326 7.84124 9.85661 6.69384 11.844Z" stroke="black" stroke-linecap="square"/>
<path d="M6.70588 11.6471C5.40202 10.6692 3.74593 11.1714 3.2438 11.3172C3.05723 11.9598 2.95773 13.5187 4.05227 14.6133C5.0963 15.6573 6.10887 15.3671 6.56352 14.9629" stroke="black" stroke-linecap="square"/>
<rect x="14.9409" y="6.94119" width="7.05882" height="4.70588" stroke="black" stroke-linecap="square"/>
<path d="M18.4706 11.6471V18.8824C18.4706 19.4346 18.0228 19.8824 17.4706 19.8824H8.88232C8.33004 19.8824 7.88232 19.4346 7.88232 18.8824V15.7647" stroke="black" stroke-linecap="square"/>
<path d="M16.7061 6.94118V4" stroke="black" stroke-linecap="square" stroke-linejoin="round"/>
<path d="M20.2358 6.94118V4" stroke="black" stroke-linecap="square" stroke-linejoin="round"/>
</svg>
