<svg width="24" height="24" viewBox="0 0 24 24" fill="none" xmlns="http://www.w3.org/2000/svg">
<path d="M20 6.5H20.5V5.5H20V6.5ZM4 5.5H3.5V6.5H4V5.5ZM15 4H15.5C15.5 3.72386 15.2761 3.5 15 3.5V4ZM9 4V3.5C8.72386 3.5 8.5 3.72386 8.5 4H9ZM6.5 6V5.5H5.5V6H6.5ZM18.5 6V5.5H17.5V6H18.5ZM15 3.5H9V4.5H15V3.5ZM5.5 6V20H6.5V6H5.5ZM5.5 20C5.5 20.4104 5.60294 20.81 5.89645 21.1036C6.18995 21.3971 6.58959 21.5 7 21.5V20.5C6.74374 20.5 6.64338 20.4363 6.60355 20.3964C6.56373 20.3566 6.5 20.2563 6.5 20H5.5ZM7 21.5C7.0013 21.5 7.00261 21.5 7.00394 21.5C7.00526 21.5 7.00659 21.5 7.00793 21.5C7.00928 21.5 7.01063 21.5 7.01199 21.5C7.01336 21.5 7.01473 21.5 7.01611 21.5C7.0175 21.5 7.01889 21.5 7.02029 21.5C7.0217 21.5 7.02311 21.5 7.02454 21.5C7.02596 21.5 7.02739 21.5 7.02884 21.5C7.03028 21.5 7.03174 21.5 7.0332 21.5C7.03467 21.5 7.03614 21.5 7.03763 21.5C7.03911 21.5 7.04061 21.5 7.04211 21.5C7.04362 21.5 7.04514 21.5 7.04666 21.5C7.04819 21.5 7.04972 21.5 7.05127 21.5C7.05282 21.5 7.05437 21.5 7.05594 21.5C7.05751 21.5 7.05908 21.5 7.06067 21.5C7.06226 21.5 7.06385 21.5 7.06546 21.5C7.06707 21.5 7.06868 21.5 7.07031 21.5C7.07194 21.5 7.07358 21.5 7.07523 21.5C7.07687 21.5 7.07853 21.5 7.0802 21.5C7.08187 21.5 7.08355 21.5 7.08524 21.5C7.08692 21.5 7.08862 21.5 7.09033 21.5C7.09204 21.5 7.09376 21.5 7.09549 21.5C7.09722 21.5 7.09896 21.5 7.10071 21.5C7.10246 21.5 7.10422 21.5 7.10599 21.5C7.10776 21.5 7.10954 21.5 7.11133 21.5C7.11312 21.5 7.11492 21.5 7.11673 21.5C7.11854 21.5 7.12036 21.5 7.12219 21.5C7.12402 21.5 7.12586 21.5 7.12772 21.5C7.12957 21.5 7.13143 21.5 7.1333 21.5C7.13517 21.5 7.13705 21.5 7.13895 21.5C7.14084 21.5 7.14274 21.5 7.14465 21.5C7.14657 21.5 7.14849 21.5 7.15042 21.5C7.15235 21.5 7.1543 21.5 7.15625 21.5C7.1582 21.5 7.16017 21.5 7.16214 21.5C7.16411 21.5 7.1661 21.5 7.16809 21.5C7.17008 21.5 7.17209 21.5 7.1741 21.5C7.17612 21.5 7.17814 21.5 7.18018 21.5C7.18221 21.5 7.18425 21.5 7.18631 21.5C7.18836 21.5 7.19043 21.5 7.1925 21.5C7.19458 21.5 7.19667 21.5 7.19876 21.5C7.20086 21.5 7.20296 21.5 7.20508 21.5C7.20719 21.5 7.20932 21.5 7.21146 21.5C7.21359 21.5 7.21574 21.5 7.2179 21.5C7.22005 21.5 7.22222 21.5 7.2244 21.5C7.22657 21.5 7.22876 21.5 7.23096 21.5C7.23315 21.5 7.23536 21.5 7.23758 21.5C7.2398 21.5 7.24202 21.5 7.24426 21.5C7.2465 21.5 7.24875 21.5 7.25101 21.5C7.25327 21.5 7.25553 21.5 7.25781 21.5C7.26009 21.5 7.26238 21.5 7.26468 21.5C7.26698 21.5 7.26929 21.5 7.27161 21.5C7.27393 21.5 7.27626 21.5 7.27859 21.5C7.28093 21.5 7.28328 21.5 7.28564 21.5C7.288 21.5 7.29037 21.5 7.29276 21.5C7.29514 21.5 7.29753 21.5 7.29993 21.5C7.30233 21.5 7.30474 21.5 7.30716 21.5C7.30958 21.5 7.31201 21.5 7.31445 21.5C7.31689 21.5 7.31935 21.5 7.32181 21.5C7.32427 21.5 7.32674 21.5 7.32922 21.5C7.33171 21.5 7.3342 21.5 7.3367 21.5C7.3392 21.5 7.34172 21.5 7.34424 21.5C7.34676 21.5 7.34929 21.5 7.35184 21.5C7.35438 21.5 7.35693 21.5 7.3595 21.5C7.36206 21.5 7.36463 21.5 7.36722 21.5C7.3698 21.5 7.3724 21.5 7.375 21.5C7.3776 21.5 7.38022 21.5 7.38284 21.5C7.38547 21.5 7.3881 21.5 7.39075 21.5C7.39339 21.5 7.39605 21.5 7.39871 21.5C7.40138 21.5 7.40405 21.5 7.40674 21.5C7.40942 21.5 7.41212 21.5 7.41483 21.5C7.41753 21.5 7.42025 21.5 7.42297 21.5C7.4257 21.5 7.42844 21.5 7.43118 21.5C7.43393 21.5 7.43669 21.5 7.43945 21.5C7.44222 21.5 7.445 21.5 7.44778 21.5C7.45057 21.5 7.45337 21.5 7.45618 21.5C7.45898 21.5 7.4618 21.5 7.46463 21.5C7.46746 21.5 7.4703 21.5 7.47314 21.5C7.47599 21.5 7.47885 21.5 7.48172 21.5C7.48459 21.5 7.48747 21.5 7.49036 21.5C7.49325 21.5 7.49614 21.5 7.49905 21.5C7.50196 21.5 7.50488 21.5 7.50781 21.5C7.51074 21.5 7.51368 21.5 7.51663 21.5C7.51958 21.5 7.52254 21.5 7.52551 21.5C7.52848 21.5 7.53146 21.5 7.53445 21.5C7.53745 21.5 7.54045 21.5 7.54346 21.5C7.54647 21.5 7.54949 21.5 7.55252 21.5C7.55555 21.5 7.55859 21.5 7.56165 21.5C7.5647 21.5 7.56776 21.5 7.57083 21.5C7.5739 21.5 7.57699 21.5 7.58008 21.5C7.58317 21.5 7.58627 21.5 7.58939 21.5C7.5925 21.5 7.59562 21.5 7.59875 21.5C7.60189 21.5 7.60503 21.5 7.60818 21.5C7.61134 21.5 7.6145 21.5 7.61768 21.5C7.62085 21.5 7.62403 21.5 7.62723 21.5C7.63042 21.5 7.63363 21.5 7.63684 21.5C7.64006 21.5 7.64328 21.5 7.64651 21.5C7.64975 21.5 7.65299 21.5 7.65625 21.5C7.65951 21.5 7.66277 21.5 7.66605 21.5C7.66932 21.5 7.67261 21.5 7.6759 21.5C7.6792 21.5 7.68251 21.5 7.68582 21.5C7.68914 21.5 7.69246 21.5 7.6958 21.5C7.69914 21.5 7.70248 21.5 7.70584 21.5C7.7092 21.5 7.71256 21.5 7.71594 21.5C7.71932 21.5 7.72271 21.5 7.7261 21.5C7.7295 21.5 7.73291 21.5 7.73633 21.5C7.73975 21.5 7.74317 21.5 7.74661 21.5C7.75005 21.5 7.7535 21.5 7.75696 21.5C7.76042 21.5 7.76389 21.5 7.76736 21.5C7.77084 21.5 7.77433 21.5 7.77783 21.5C7.78133 21.5 7.78484 21.5 7.78836 21.5C7.79188 21.5 7.79541 21.5 7.79895 21.5C7.80249 21.5 7.80604 21.5 7.8096 21.5C7.81316 21.5 7.81673 21.5 7.82031 21.5C7.82389 21.5 7.82748 21.5 7.83109 21.5C7.83469 21.5 7.8383 21.5 7.84192 21.5C7.84554 21.5 7.84917 21.5 7.85281 21.5C7.85646 21.5 7.86011 21.5 7.86377 21.5C7.86743 21.5 7.8711 21.5 7.87479 21.5C7.87847 21.5 7.88216 21.5 7.88586 21.5C7.88957 21.5 7.89328 21.5 7.897 21.5C7.90073 21.5 7.90446 21.5 7.9082 21.5C7.91195 21.5 7.9157 21.5 7.91946 21.5C7.92323 21.5 7.927 21.5 7.93079 21.5C7.93457 21.5 7.93836 21.5 7.94217 21.5C7.94597 21.5 7.94979 21.5 7.95361 21.5C7.95744 21.5 7.96127 21.5 7.96512 21.5C7.96896 21.5 7.97282 21.5 7.97668 21.5C7.98055 21.5 7.98443 21.5 7.98831 21.5C7.9922 21.5 7.99609 21.5 8 21.5C8.00391 21.5 8.00782 21.5 8.01175 21.5C8.01568 21.5 8.01961 21.5 8.02356 21.5C8.02751 21.5 8.03146 21.5 8.03543 21.5C8.0394 21.5 8.04338 21.5 8.04736 21.5C8.05135 21.5 8.05535 21.5 8.05936 21.5C8.06336 21.5 8.06738 21.5 8.07141 21.5C8.07544 21.5 8.07948 21.5 8.08353 21.5C8.08757 21.5 8.09163 21.5 8.0957 21.5C8.09977 21.5 8.10385 21.5 8.10794 21.5C8.11203 21.5 8.11613 21.5 8.12024 21.5C8.12435 21.5 8.12847 21.5 8.1326 21.5C8.13673 21.5 8.14087 21.5 8.14502 21.5C8.14917 21.5 8.15333 21.5 8.1575 21.5C8.16167 21.5 8.16585 21.5 8.17004 21.5C8.17423 21.5 8.17844 21.5 8.18265 21.5C8.18686 21.5 8.19108 21.5 8.19531 21.5C8.19954 21.5 8.20379 21.5 8.20804 21.5C8.21229 21.5 8.21655 21.5 8.22083 21.5C8.2251 21.5 8.22938 21.5 8.23367 21.5C8.23797 21.5 8.24227 21.5 8.24658 21.5C8.2509 21.5 8.25522 21.5 8.25955 21.5C8.26389 21.5 8.26823 21.5 8.27258 21.5C8.27694 21.5 8.2813 21.5 8.28568 21.5C8.29005 21.5 8.29443 21.5 8.29883 21.5C8.30322 21.5 8.30763 21.5 8.31204 21.5C8.31646 21.5 8.32088 21.5 8.32532 21.5C8.32975 21.5 8.3342 21.5 8.33865 21.5C8.34311 21.5 8.34757 21.5 8.35205 21.5C8.35653 21.5 8.36101 21.5 8.36551 21.5C8.37001 21.5 8.37451 21.5 8.37903 21.5C8.38354 21.5 8.38807 21.5 8.39261 21.5C8.39715 21.5 8.40169 21.5 8.40625 21.5C8.41081 21.5 8.41537 21.5 8.41995 21.5C8.42453 21.5 8.42912 21.5 8.43372 21.5C8.43831 21.5 8.44292 21.5 8.44754 21.5C8.45216 21.5 8.45679 21.5 8.46143 21.5C8.46606 21.5 8.47071 21.5 8.47537 21.5C8.48003 21.5 8.4847 21.5 8.48938 21.5C8.49406 21.5 8.49875 21.5 8.50345 21.5C8.50815 21.5 8.51286 21.5 8.51758 21.5C8.5223 21.5 8.52703 21.5 8.53177 21.5C8.53651 21.5 8.54126 21.5 8.54602 21.5C8.55078 21.5 8.55555 21.5 8.56033 21.5C8.56511 21.5 8.56991 21.5 8.57471 21.5C8.57951 21.5 8.58432 21.5 8.58914 21.5C8.59396 21.5 8.5988 21.5 8.60364 21.5C8.60848 21.5 8.61333 21.5 8.61819 21.5C8.62306 21.5 8.62793 21.5 8.63281 21.5C8.6377 21.5 8.64259 21.5 8.64749 21.5C8.65239 21.5 8.65731 21.5 8.66223 21.5C8.66715 21.5 8.67209 21.5 8.67703 21.5C8.68198 21.5 8.68693 21.5 8.69189 21.5C8.69686 21.5 8.70183 21.5 8.70682 21.5C8.7118 21.5 8.7168 21.5 8.7218 21.5C8.72681 21.5 8.73182 21.5 8.73685 21.5C8.74187 21.5 8.74691 21.5 8.75195 21.5C8.757 21.5 8.76205 21.5 8.76712 21.5C8.77219 21.5 8.77726 21.5 8.78235 21.5C8.78743 21.5 8.79253 21.5 8.79764 21.5C8.80274 21.5 8.80786 21.5 8.81299 21.5C8.81812 21.5 8.82325 21.5 8.8284 21.5C8.83355 21.5 8.8387 21.5 8.84387 21.5C8.84904 21.5 8.85422 21.5 8.85941 21.5C8.86459 21.5 8.86979 21.5 8.875 21.5C8.88021 21.5 8.88543 21.5 8.89066 21.5C8.89588 21.5 8.90112 21.5 8.90637 21.5C8.91162 21.5 8.91688 21.5 8.92215 21.5C8.92742 21.5 8.9327 21.5 8.93799 21.5C8.94328 21.5 8.94858 21.5 8.95389 21.5C8.9592 21.5 8.96452 21.5 8.96985 21.5C8.97518 21.5 8.98052 21.5 8.98587 21.5C8.99122 21.5 8.99658 21.5 9.00195 21.5C9.00732 21.5 9.01271 21.5 9.0181 21.5C9.02349 21.5 9.02889 21.5 9.0343 21.5C9.03971 21.5 9.04514 21.5 9.05057 21.5C9.056 21.5 9.06144 21.5 9.06689 21.5C9.07235 21.5 9.07781 21.5 9.08328 21.5C9.08876 21.5 9.09424 21.5 9.09973 21.5C9.10522 21.5 9.11073 21.5 9.11624 21.5C9.12175 21.5 9.12728 21.5 9.13281 21.5C9.13835 21.5 9.14389 21.5 9.14944 21.5C9.155 21.5 9.16056 21.5 9.16614 21.5C9.17171 21.5 9.1773 21.5 9.18289 21.5C9.18849 21.5 9.19409 21.5 9.19971 21.5C9.20532 21.5 9.21095 21.5 9.21658 21.5C9.22222 21.5 9.22786 21.5 9.23352 21.5C9.23918 21.5 9.24484 21.5 9.25052 21.5C9.2562 21.5 9.26188 21.5 9.26758 21.5C9.27327 21.5 9.27898 21.5 9.2847 21.5C9.29042 21.5 9.29614 21.5 9.30188 21.5C9.30762 21.5 9.31336 21.5 9.31912 21.5C9.32488 21.5 9.33065 21.5 9.33643 21.5C9.3422 21.5 9.34799 21.5 9.35379 21.5C9.35959 21.5 9.3654 21.5 9.37122 21.5C9.37703 21.5 9.38286 21.5 9.3887 21.5C9.39454 21.5 9.40039 21.5 9.40625 21.5C9.41211 21.5 9.41798 21.5 9.42386 21.5C9.42974 21.5 9.43563 21.5 9.44153 21.5C9.44743 21.5 9.45334 21.5 9.45926 21.5C9.46518 21.5 9.47111 21.5 9.47705 21.5C9.48299 21.5 9.48894 21.5 9.4949 21.5C9.50086 21.5 9.50684 21.5 9.51282 21.5C9.5188 21.5 9.52479 21.5 9.53079 21.5C9.53679 21.5 9.54281 21.5 9.54883 21.5C9.55485 21.5 9.56088 21.5 9.56692 21.5C9.57297 21.5 9.57902 21.5 9.58508 21.5C9.59115 21.5 9.59722 21.5 9.6033 21.5C9.60939 21.5 9.61548 21.5 9.62158 21.5C9.62769 21.5 9.6338 21.5 9.63992 21.5C9.64605 21.5 9.65218 21.5 9.65832 21.5C9.66447 21.5 9.67062 21.5 9.67679 21.5C9.68295 21.5 9.68913 21.5 9.69531 21.5C9.7015 21.5 9.70769 21.5 9.7139 21.5C9.7201 21.5 9.72632 21.5 9.73254 21.5C9.73877 21.5 9.74501 21.5 9.75125 21.5C9.7575 21.5 9.76375 21.5 9.77002 21.5C9.77629 21.5 9.78256 21.5 9.78885 21.5C9.79514 21.5 9.80143 21.5 9.80774 21.5C9.81405 21.5 9.82036 21.5 9.82669 21.5C9.83302 21.5 9.83935 21.5 9.8457 21.5C9.85205 21.5 9.85841 21.5 9.86478 21.5C9.87114 21.5 9.87752 21.5 9.88391 21.5C9.8903 21.5 9.8967 21.5 9.90311 21.5C9.90951 21.5 9.91593 21.5 9.92236 21.5C9.92879 21.5 9.93523 21.5 9.94168 21.5C9.94813 21.5 9.95459 21.5 9.96106 21.5C9.96753 21.5 9.97401 21.5 9.9805 21.5C9.98699 21.5 9.99349 21.5 10 21.5C10.0065 21.5 10.013 21.5 10.0196 21.5C10.0261 21.5 10.0326 21.5 10.0392 21.5C10.0457 21.5 10.0523 21.5 10.0589 21.5C10.0654 21.5 10.072 21.5 10.0786 21.5C10.0852 21.5 10.0918 21.5 10.0984 21.5C10.105 21.5 10.1117 21.5 10.1183 21.5C10.1249 21.5 10.1316 21.5 10.1382 21.5C10.1449 21.5 10.1515 21.5 10.1582 21.5C10.1649 21.5 10.1716 21.5 10.1783 21.5C10.1849 21.5 10.1916 21.5 10.1984 21.5C10.2051 21.5 10.2118 21.5 10.2185 21.5C10.2253 21.5 10.232 21.5 10.2388 21.5C10.2455 21.5 10.2523 21.5 10.2591 21.5C10.2658 21.5 10.2726 21.5 10.2794 21.5C10.2862 21.5 10.293 21.5 10.2998 21.5C10.3067 21.5 10.3135 21.5 10.3203 21.5C10.3271 21.5 10.334 21.5 10.3409 21.5C10.3477 21.5 10.3546 21.5 10.3614 21.5C10.3683 21.5 10.3752 21.5 10.3821 21.5C10.389 21.5 10.3959 21.5 10.4028 21.5C10.4097 21.5 10.4167 21.5 10.4236 21.5C10.4306 21.5 10.4375 21.5 10.4445 21.5C10.4514 21.5 10.4584 21.5 10.4654 21.5C10.4723 21.5 10.4793 21.5 10.4863 21.5C10.4933 21.5 10.5003 21.5 10.5074 21.5C10.5144 21.5 10.5214 21.5 10.5284 21.5C10.5355 21.5 10.5425 21.5 10.5496 21.5C10.5567 21.5 10.5637 21.5 10.5708 21.5C10.5779 21.5 10.585 21.5 10.5921 21.5C10.5992 21.5 10.6063 21.5 10.6134 21.5C10.6205 21.5 10.6277 21.5 10.6348 21.5C10.6419 21.5 10.6491 21.5 10.6562 21.5C10.6634 21.5 10.6706 21.5 10.6778 21.5C10.6849 21.5 10.6921 21.5 10.6993 21.5C10.7065 21.5 10.7138 21.5 10.721 21.5C10.7282 21.5 10.7354 21.5 10.7427 21.5C10.7499 21.5 10.7572 21.5 10.7644 21.5C10.7717 21.5 10.779 21.5 10.7863 21.5C10.7935 21.5 10.8008 21.5 10.8081 21.5C10.8154 21.5 10.8228 21.5 10.8301 21.5C10.8374 21.5 10.8447 21.5 10.8521 21.5C10.8594 21.5 10.8668 21.5 10.8741 21.5C10.8815 21.5 10.8889 21.5 10.8963 21.5C10.9037 21.5 10.9111 21.5 10.9185 21.5C10.9259 21.5 10.9333 21.5 10.9407 21.5C10.9481 21.5 10.9556 21.5 10.963 21.5C10.9705 21.5 10.9779 21.5 10.9854 21.5C10.9928 21.5 11.0003 21.5 11.0078 21.5C11.0153 21.5 11.0228 21.5 11.0303 21.5C11.0378 21.5 11.0453 21.5 11.0529 21.5C11.0604 21.5 11.0679 21.5 11.0755 21.5C11.083 21.5 11.0906 21.5 11.0981 21.5C11.1057 21.5 11.1133 21.5 11.1209 21.5C11.1285 21.5 11.1361 21.5 11.1437 21.5C11.1513 21.5 11.1589 21.5 11.1665 21.5C11.1742 21.5 11.1818 21.5 11.1895 21.5C11.1971 21.5 11.2048 21.5 11.2124 21.5C11.2201 21.5 11.2278 21.5 11.2355 21.5C11.2432 21.5 11.2509 21.5 11.2586 21.5C11.2663 21.5 11.274 21.5 11.2817 21.5C11.2895 21.5 11.2972 21.5 11.305 21.5C11.3127 21.5 11.3205 21.5 11.3282 21.5C11.336 21.5 11.3438 21.5 11.3516 21.5C11.3594 21.5 11.3672 21.5 11.375 21.5C11.3828 21.5 11.3906 21.5 11.3985 21.5C11.4063 21.5 11.4141 21.5 11.422 21.5C11.4298 21.5 11.4377 21.5 11.4456 21.5C11.4535 21.5 11.4613 21.5 11.4692 21.5C11.4771 21.5 11.485 21.5 11.4929 21.5C11.5009 21.5 11.5088 21.5 11.5167 21.5C11.5247 21.5 11.5326 21.5 11.5406 21.5C11.5485 21.5 11.5565 21.5 11.5645 21.5C11.5724 21.5 11.5804 21.5 11.5884 21.5C11.5964 21.5 11.6044 21.5 11.6124 21.5C11.6204 21.5 11.6285 21.5 11.6365 21.5C11.6445 21.5 11.6526 21.5 11.6606 21.5C11.6687 21.5 11.6768 21.5 11.6848 21.5C11.6929 21.5 11.701 21.5 11.7091 21.5C11.7172 21.5 11.7253 21.5 11.7334 21.5C11.7415 21.5 11.7497 21.5 11.7578 21.5C11.766 21.5 11.7741 21.5 11.7823 21.5C11.7904 21.5 11.7986 21.5 11.8068 21.5C11.8149 21.5 11.8231 21.5 11.8313 21.5C11.8395 21.5 11.8477 21.5 11.856 21.5C11.8642 21.5 11.8724 21.5 11.8806 21.5C11.8889 21.5 11.8971 21.5 11.9054 21.5C11.9137 21.5 11.9219 21.5 11.9302 21.5C11.9385 21.5 11.9468 21.5 11.9551 21.5C11.9634 21.5 11.9717 21.5 11.98 21.5C11.9883 21.5 11.9967 21.5 12.005 21.5C12.0133 21.5 12.0217 21.5 12.0301 21.5C12.0384 21.5 12.0468 21.5 12.0552 21.5C12.0636 21.5 12.0719 21.5 12.0804 21.5C12.0888 21.5 12.0972 21.5 12.1056 21.5C12.114 21.5 12.1224 21.5 12.1309 21.5C12.1393 21.5 12.1478 21.5 12.1562 21.5C12.1647 21.5 12.1732 21.5 12.1817 21.5C12.1902 21.5 12.1986 21.5 12.2072 21.5C12.2157 21.5 12.2242 21.5 12.2327 21.5C12.2412 21.5 12.2498 21.5 12.2583 21.5C12.2668 21.5 12.2754 21.5 12.284 21.5C12.2925 21.5 12.3011 21.5 12.3097 21.5C12.3183 21.5 12.3269 21.5 12.3355 21.5C12.3441 21.5 12.3527 21.5 12.3613 21.5C12.37 21.5 12.3786 21.5 12.3872 21.5C12.3959 21.5 12.4045 21.5 12.4132 21.5C12.4219 21.5 12.4306 21.5 12.4392 21.5C12.4479 21.5 12.4566 21.5 12.4653 21.5C12.474 21.5 12.4828 21.5 12.4915 21.5C12.5002 21.5 12.509 21.5 12.5177 21.5C12.5264 21.5 12.5352 21.5 12.544 21.5C12.5527 21.5 12.5615 21.5 12.5703 21.5C12.5791 21.5 12.5879 21.5 12.5967 21.5C12.6055 21.5 12.6143 21.5 12.6232 21.5C12.632 21.5 12.6408 21.5 12.6497 21.5C12.6585 21.5 12.6674 21.5 12.6763 21.5C12.6851 21.5 12.694 21.5 12.7029 21.5C12.7118 21.5 12.7207 21.5 12.7296 21.5C12.7385 21.5 12.7474 21.5 12.7564 21.5C12.7653 21.5 12.7743 21.5 12.7832 21.5C12.7922 21.5 12.8011 21.5 12.8101 21.5C12.8191 21.5 12.828 21.5 12.837 21.5C12.846 21.5 12.855 21.5 12.864 21.5C12.8731 21.5 12.8821 21.5 12.8911 21.5C12.9001 21.5 12.9092 21.5 12.9182 21.5C12.9273 21.5 12.9364 21.5 12.9454 21.5C12.9545 21.5 12.9636 21.5 12.9727 21.5C12.9818 21.5 12.9909 21.5 13 21.5C13.0091 21.5 13.0182 21.5 13.0274 21.5C13.0365 21.5 13.0457 21.5 13.0548 21.5C13.064 21.5 13.0731 21.5 13.0823 21.5C13.0915 21.5 13.1007 21.5 13.1099 21.5C13.1191 21.5 13.1283 21.5 13.1375 21.5C13.1467 21.5 13.1559 21.5 13.1652 21.5C13.1744 21.5 13.1836 21.5 13.1929 21.5C13.2022 21.5 13.2114 21.5 13.2207 21.5C13.23 21.5 13.2393 21.5 13.2486 21.5C13.2579 21.5 13.2672 21.5 13.2765 21.5C13.2858 21.5 13.2951 21.5 13.3045 21.5C13.3138 21.5 13.3232 21.5 13.3325 21.5C13.3419 21.5 13.3512 21.5 13.3606 21.5C13.37 21.5 13.3794 21.5 13.3888 21.5C13.3982 21.5 13.4076 21.5 13.417 21.5C13.4264 21.5 13.4359 21.5 13.4453 21.5C13.4548 21.5 13.4642 21.5 13.4737 21.5C13.4831 21.5 13.4926 21.5 13.5021 21.5C13.5116 21.5 13.521 21.5 13.5305 21.5C13.54 21.5 13.5496 21.5 13.5591 21.5C13.5686 21.5 13.5781 21.5 13.5877 21.5C13.5972 21.5 13.6068 21.5 13.6163 21.5C13.6259 21.5 13.6355 21.5 13.645 21.5C13.6546 21.5 13.6642 21.5 13.6738 21.5C13.6834 21.5 13.693 21.5 13.7027 21.5C13.7123 21.5 13.7219 21.5 13.7316 21.5C13.7412 21.5 13.7509 21.5 13.7605 21.5C13.7702 21.5 13.7799 21.5 13.7895 21.5C13.7992 21.5 13.8089 21.5 13.8186 21.5C13.8283 21.5 13.8381 21.5 13.8478 21.5C13.8575 21.5 13.8672 21.5 13.877 21.5C13.8867 21.5 13.8965 21.5 13.9062 21.5C13.916 21.5 13.9258 21.5 13.9356 21.5C13.9454 21.5 13.9552 21.5 13.965 21.5C13.9748 21.5 13.9846 21.5 13.9944 21.5C14.0042 21.5 14.0141 21.5 14.0239 21.5C14.0338 21.5 14.0436 21.5 14.0535 21.5C14.0634 21.5 14.0732 21.5 14.0831 21.5C14.093 21.5 14.1029 21.5 14.1128 21.5C14.1227 21.5 14.1326 21.5 14.1426 21.5C14.1525 21.5 14.1624 21.5 14.1724 21.5C14.1823 21.5 14.1923 21.5 14.2023 21.5C14.2122 21.5 14.2222 21.5 14.2322 21.5C14.2422 21.5 14.2522 21.5 14.2622 21.5C14.2722 21.5 14.2822 21.5 14.2923 21.5C14.3023 21.5 14.3123 21.5 14.3224 21.5C14.3324 21.5 14.3425 21.5 14.3526 21.5C14.3626 21.5 14.3727 21.5 14.3828 21.5C14.3929 21.5 14.403 21.5 14.4131 21.5C14.4232 21.5 14.4333 21.5 14.4435 21.5C14.4536 21.5 14.4638 21.5 14.4739 21.5C14.4841 21.5 14.4942 21.5 14.5044 21.5C14.5146 21.5 14.5247 21.5 14.5349 21.5C14.5451 21.5 14.5553 21.5 14.5656 21.5C14.5758 21.5 14.586 21.5 14.5962 21.5C14.6065 21.5 14.6167 21.5 14.627 21.5C14.6372 21.5 14.6475 21.5 14.6577 21.5C14.668 21.5 14.6783 21.5 14.6886 21.5C14.6989 21.5 14.7092 21.5 14.7195 21.5C14.7298 21.5 14.7402 21.5 14.7505 21.5C14.7608 21.5 14.7712 21.5 14.7815 21.5C14.7919 21.5 14.8022 21.5 14.8126 21.5C14.823 21.5 14.8334 21.5 14.8438 21.5C14.8542 21.5 14.8646 21.5 14.875 21.5C14.8854 21.5 14.8958 21.5 14.9063 21.5C14.9167 21.5 14.9272 21.5 14.9376 21.5C14.9481 21.5 14.9585 21.5 14.969 21.5C14.9795 21.5 14.99 21.5 15.0005 21.5C15.011 21.5 15.0215 21.5 15.032 21.5C15.0425 21.5 15.0531 21.5 15.0636 21.5C15.0741 21.5 15.0847 21.5 15.0952 21.5C15.1058 21.5 15.1164 21.5 15.127 21.5C15.1375 21.5 15.1481 21.5 15.1587 21.5C15.1693 21.5 15.1799 21.5 15.1906 21.5C15.2012 21.5 15.2118 21.5 15.2224 21.5C15.2331 21.5 15.2437 21.5 15.2544 21.5C15.2651 21.5 15.2757 21.5 15.2864 21.5C15.2971 21.5 15.3078 21.5 15.3185 21.5C15.3292 21.5 15.3399 21.5 15.3506 21.5C15.3613 21.5 15.3721 21.5 15.3828 21.5C15.3936 21.5 15.4043 21.5 15.4151 21.5C15.4258 21.5 15.4366 21.5 15.4474 21.5C15.4582 21.5 15.469 21.5 15.4798 21.5C15.4906 21.5 15.5014 21.5 15.5122 21.5C15.523 21.5 15.5339 21.5 15.5447 21.5C15.5556 21.5 15.5664 21.5 15.5773 21.5C15.5881 21.5 15.599 21.5 15.6099 21.5C15.6208 21.5 15.6317 21.5 15.6426 21.5C15.6535 21.5 15.6644 21.5 15.6753 21.5C15.6862 21.5 15.6972 21.5 15.7081 21.5C15.7191 21.5 15.73 21.5 15.741 21.5C15.752 21.5 15.7629 21.5 15.7739 21.5C15.7849 21.5 15.7959 21.5 15.8069 21.5C15.8179 21.5 15.8289 21.5 15.84 21.5C15.851 21.5 15.862 21.5 15.8731 21.5C15.8841 21.5 15.8952 21.5 15.9062 21.5C15.9173 21.5 15.9284 21.5 15.9395 21.5C15.9506 21.5 15.9617 21.5 15.9728 21.5C15.9839 21.5 15.995 21.5 16.0061 21.5C16.0173 21.5 16.0284 21.5 16.0395 21.5C16.0507 21.5 16.0619 21.5 16.073 21.5C16.0842 21.5 16.0954 21.5 16.1066 21.5C16.1178 21.5 16.129 21.5 16.1402 21.5C16.1514 21.5 16.1626 21.5 16.1738 21.5C16.1851 21.5 16.1963 21.5 16.2075 21.5C16.2188 21.5 16.2301 21.5 16.2413 21.5C16.2526 21.5 16.2639 21.5 16.2752 21.5C16.2865 21.5 16.2978 21.5 16.3091 21.5C16.3204 21.5 16.3317 21.5 16.343 21.5C16.3544 21.5 16.3657 21.5 16.3771 21.5C16.3884 21.5 16.3998 21.5 16.4112 21.5C16.4225 21.5 16.4339 21.5 16.4453 21.5C16.4567 21.5 16.4681 21.5 16.4795 21.5C16.4909 21.5 16.5024 21.5 16.5138 21.5C16.5252 21.5 16.5367 21.5 16.5481 21.5C16.5596 21.5 16.571 21.5 16.5825 21.5C16.594 21.5 16.6055 21.5 16.617 21.5C16.6285 21.5 16.64 21.5 16.6515 21.5C16.663 21.5 16.6745 21.5 16.6861 21.5C16.6976 21.5 16.7091 21.5 16.7207 21.5C16.7323 21.5 16.7438 21.5 16.7554 21.5C16.767 21.5 16.7786 21.5 16.7902 21.5C16.8018 21.5 16.8134 21.5 16.825 21.5C16.8366 21.5 16.8482 21.5 16.8599 21.5C16.8715 21.5 16.8831 21.5 16.8948 21.5C16.9065 21.5 16.9181 21.5 16.9298 21.5C16.9415 21.5 16.9532 21.5 16.9649 21.5C16.9766 21.5 16.9883 21.5 17 21.5V20.5C16.9883 20.5 16.9766 20.5 16.9649 20.5C16.9532 20.5 16.9415 20.5 16.9298 20.5C16.9181 20.5 16.9065 20.5 16.8948 20.5C16.8831 20.5 16.8715 20.5 16.8599 20.5C16.8482 20.5 16.8366 20.5 16.825 20.5C16.8134 20.5 16.8018 20.5 16.7902 20.5C16.7786 20.5 16.767 20.5 16.7554 20.5C16.7438 20.5 16.7323 20.5 16.7207 20.5C16.7091 20.5 16.6976 20.5 16.6861 20.5C16.6745 20.5 16.663 20.5 16.6515 20.5C16.64 20.5 16.6285 20.5 16.617 20.5C16.6055 20.5 16.594 20.5 16.5825 20.5C16.571 20.5 16.5596 20.5 16.5481 20.5C16.5367 20.5 16.5252 20.5 16.5138 20.5C16.5024 20.5 16.4909 20.5 16.4795 20.5C16.4681 20.5 16.4567 20.5 16.4453 20.5C16.4339 20.5 16.4225 20.5 16.4112 20.5C16.3998 20.5 16.3884 20.5 16.3771 20.5C16.3657 20.5 16.3544 20.5 16.343 20.5C16.3317 20.5 16.3204 20.5 16.3091 20.5C16.2978 20.5 16.2865 20.5 16.2752 20.5C16.2639 20.5 16.2526 20.5 16.2413 20.5C16.2301 20.5 16.2188 20.5 16.2075 20.5C16.1963 20.5 16.1851 20.5 16.1738 20.5C16.1626 20.5 16.1514 20.5 16.1402 20.5C16.129 20.5 16.1178 20.5 16.1066 20.5C16.0954 20.5 16.0842 20.5 16.073 20.5C16.0619 20.5 16.0507 20.5 16.0395 20.5C16.0284 20.5 16.0173 20.5 16.0061 20.5C15.995 20.5 15.9839 20.5 15.9728 20.5C15.9617 20.5 15.9506 20.5 15.9395 20.5C15.9284 20.5 15.9173 20.5 15.9062 20.5C15.8952 20.5 15.8841 20.5 15.8731 20.5C15.862 20.5 15.851 20.5 15.84 20.5C15.8289 20.5 15.8179 20.5 15.8069 20.5C15.7959 20.5 15.7849 20.5 15.7739 20.5C15.7629 20.5 15.752 20.5 15.741 20.5C15.73 20.5 15.7191 20.5 15.7081 20.5C15.6972 20.5 15.6862 20.5 15.6753 20.5C15.6644 20.5 15.6535 20.5 15.6426 20.5C15.6317 20.5 15.6208 20.5 15.6099 20.5C15.599 20.5 15.5881 20.5 15.5773 20.5C15.5664 20.5 15.5556 20.5 15.5447 20.5C15.5339 20.5 15.523 20.5 15.5122 20.5C15.5014 20.5 15.4906 20.5 15.4798 20.5C15.469 20.5 15.4582 20.5 15.4474 20.5C15.4366 20.5 15.4258 20.5 15.4151 20.5C15.4043 20.5 15.3936 20.5 15.3828 20.5C15.3721 20.5 15.3613 20.5 15.3506 20.5C15.3399 20.5 15.3292 20.5 15.3185 20.5C15.3078 20.5 15.2971 20.5 15.2864 20.5C15.2757 20.5 15.2651 20.5 15.2544 20.5C15.2437 20.5 15.2331 20.5 15.2224 20.5C15.2118 20.5 15.2012 20.5 15.1906 20.5C15.1799 20.5 15.1693 20.5 15.1587 20.5C15.1481 20.5 15.1375 20.5 15.127 20.5C15.1164 20.5 15.1058 20.5 15.0952 20.5C15.0847 20.5 15.0741 20.5 15.0636 20.5C15.0531 20.5 15.0425 20.5 15.032 20.5C15.0215 20.5 15.011 20.5 15.0005 20.5C14.99 20.5 14.9795 20.5 14.969 20.5C14.9585 20.5 14.9481 20.5 14.9376 20.5C14.9272 20.5 14.9167 20.5 14.9063 20.5C14.8958 20.5 14.8854 20.5 14.875 20.5C14.8646 20.5 14.8542 20.5 14.8438 20.5C14.8334 20.5 14.823 20.5 14.8126 20.5C14.8022 20.5 14.7919 20.5 14.7815 20.5C14.7712 20.5 14.7608 20.5 14.7505 20.5C14.7402 20.5 14.7298 20.5 14.7195 20.5C14.7092 20.5 14.6989 20.5 14.6886 20.5C14.6783 20.5 14.668 20.5 14.6577 20.5C14.6475 20.5 14.6372 20.5 14.627 20.5C14.6167 20.5 14.6065 20.5 14.5962 20.5C14.586 20.5 14.5758 20.5 14.5656 20.5C14.5553 20.5 14.5451 20.5 14.5349 20.5C14.5247 20.5 14.5146 20.5 14.5044 20.5C14.4942 20.5 14.4841 20.5 14.4739 20.5C14.4638 20.5 14.4536 20.5 14.4435 20.5C14.4333 20.5 14.4232 20.5 14.4131 20.5C14.403 20.5 14.3929 20.5 14.3828 20.5C14.3727 20.5 14.3626 20.5 14.3526 20.5C14.3425 20.5 14.3324 20.5 14.3224 20.5C14.3123 20.5 14.3023 20.5 14.2923 20.5C14.2822 20.5 14.2722 20.5 14.2622 20.5C14.2522 20.5 14.2422 20.5 14.2322 20.5C14.2222 20.5 14.2122 20.5 14.2023 20.5C14.1923 20.5 14.1823 20.5 14.1724 20.5C14.1624 20.5 14.1525 20.5 14.1426 20.5C14.1326 20.5 14.1227 20.5 14.1128 20.5C14.1029 20.5 14.093 20.5 14.0831 20.5C14.0732 20.5 14.0634 20.5 14.0535 20.5C14.0436 20.5 14.0338 20.5 14.0239 20.5C14.0141 20.5 14.0042 20.5 13.9944 20.5C13.9846 20.5 13.9748 20.5 13.965 20.5C13.9552 20.5 13.9454 20.5 13.9356 20.5C13.9258 20.5 13.916 20.5 13.9062 20.5C13.8965 20.5 13.8867 20.5 13.877 20.5C13.8672 20.5 13.8575 20.5 13.8478 20.5C13.8381 20.5 13.8283 20.5 13.8186 20.5C13.8089 20.5 13.7992 20.5 13.7895 20.5C13.7799 20.5 13.7702 20.5 13.7605 20.5C13.7509 20.5 13.7412 20.5 13.7316 20.5C13.7219 20.5 13.7123 20.5 13.7027 20.5C13.693 20.5 13.6834 20.5 13.6738 20.5C13.6642 20.5 13.6546 20.5 13.645 20.5C13.6355 20.5 13.6259 20.5 13.6163 20.5C13.6068 20.5 13.5972 20.5 13.5877 20.5C13.5781 20.5 13.5686 20.5 13.5591 20.5C13.5496 20.5 13.54 20.5 13.5305 20.5C13.521 20.5 13.5116 20.5 13.5021 20.5C13.4926 20.5 13.4831 20.5 13.4737 20.5C13.4642 20.5 13.4548 20.5 13.4453 20.5C13.4359 20.5 13.4264 20.5 13.417 20.5C13.4076 20.5 13.3982 20.5 13.3888 20.5C13.3794 20.5 13.37 20.5 13.3606 20.5C13.3512 20.5 13.3419 20.5 13.3325 20.5C13.3232 20.5 13.3138 20.5 13.3045 20.5C13.2951 20.5 13.2858 20.5 13.2765 20.5C13.2672 20.5 13.2579 20.5 13.2486 20.5C13.2393 20.5 13.23 20.5 13.2207 20.5C13.2114 20.5 13.2022 20.5 13.1929 20.5C13.1836 20.5 13.1744 20.5 13.1652 20.5C13.1559 20.5 13.1467 20.5 13.1375 20.5C13.1283 20.5 13.1191 20.5 13.1099 20.5C13.1007 20.5 13.0915 20.5 13.0823 20.5C13.0731 20.5 13.064 20.5 13.0548 20.5C13.0457 20.5 13.0365 20.5 13.0274 20.5C13.0182 20.5 13.0091 20.5 13 20.5C12.9909 20.5 12.9818 20.5 12.9727 20.5C12.9636 20.5 12.9545 20.5 12.9454 20.5C12.9364 20.5 12.9273 20.5 12.9182 20.5C12.9092 20.5 12.9001 20.5 12.8911 20.5C12.8821 20.5 12.8731 20.5 12.864 20.5C12.855 20.5 12.846 20.5 12.837 20.5C12.828 20.5 12.8191 20.5 12.8101 20.5C12.8011 20.5 12.7922 20.5 12.7832 20.5C12.7743 20.5 12.7653 20.5 12.7564 20.5C12.7474 20.5 12.7385 20.5 12.7296 20.5C12.7207 20.5 12.7118 20.5 12.7029 20.5C12.694 20.5 12.6851 20.5 12.6763 20.5C12.6674 20.5 12.6585 20.5 12.6497 20.5C12.6408 20.5 12.632 20.5 12.6232 20.5C12.6143 20.5 12.6055 20.5 12.5967 20.5C12.5879 20.5 12.5791 20.5 12.5703 20.5C12.5615 20.5 12.5527 20.5 12.544 20.5C12.5352 20.5 12.5264 20.5 12.5177 20.5C12.509 20.5 12.5002 20.5 12.4915 20.5C12.4828 20.5 12.474 20.5 12.4653 20.5C12.4566 20.5 12.4479 20.5 12.4392 20.5C12.4306 20.5 12.4219 20.5 12.4132 20.5C12.4045 20.5 12.3959 20.5 12.3872 20.5C12.3786 20.5 12.37 20.5 12.3613 20.5C12.3527 20.5 12.3441 20.5 12.3355 20.5C12.3269 20.5 12.3183 20.5 12.3097 20.5C12.3011 20.5 12.2925 20.5 12.284 20.5C12.2754 20.5 12.2668 20.5 12.2583 20.5C12.2498 20.5 12.2412 20.5 12.2327 20.5C12.2242 20.5 12.2157 20.5 12.2072 20.5C12.1986 20.5 12.1902 20.5 12.1817 20.5C12.1732 20.5 12.1647 20.5 12.1562 20.5C12.1478 20.5 12.1393 20.5 12.1309 20.5C12.1224 20.5 12.114 20.5 12.1056 20.5C12.0972 20.5 12.0888 20.5 12.0804 20.5C12.0719 20.5 12.0636 20.5 12.0552 20.5C12.0468 20.5 12.0384 20.5 12.0301 20.5C12.0217 20.5 12.0133 20.5 12.005 20.5C11.9967 20.5 11.9883 20.5 11.98 20.5C11.9717 20.5 11.9634 20.5 11.9551 20.5C11.9468 20.5 11.9385 20.5 11.9302 20.5C11.9219 20.5 11.9137 20.5 11.9054 20.5C11.8971 20.5 11.8889 20.5 11.8806 20.5C11.8724 20.5 11.8642 20.5 11.856 20.5C11.8477 20.5 11.8395 20.5 11.8313 20.5C11.8231 20.5 11.8149 20.5 11.8068 20.5C11.7986 20.5 11.7904 20.5 11.7823 20.5C11.7741 20.5 11.766 20.5 11.7578 20.5C11.7497 20.5 11.7415 20.5 11.7334 20.5C11.7253 20.5 11.7172 20.5 11.7091 20.5C11.701 20.5 11.6929 20.5 11.6848 20.5C11.6768 20.5 11.6687 20.5 11.6606 20.5C11.6526 20.5 11.6445 20.5 11.6365 20.5C11.6285 20.5 11.6204 20.5 11.6124 20.5C11.6044 20.5 11.5964 20.5 11.5884 20.5C11.5804 20.5 11.5724 20.5 11.5645 20.5C11.5565 20.5 11.5485 20.5 11.5406 20.5C11.5326 20.5 11.5247 20.5 11.5167 20.5C11.5088 20.5 11.5009 20.5 11.4929 20.5C11.485 20.5 11.4771 20.5 11.4692 20.5C11.4613 20.5 11.4535 20.5 11.4456 20.5C11.4377 20.5 11.4298 20.5 11.422 20.5C11.4141 20.5 11.4063 20.5 11.3985 20.5C11.3906 20.5 11.3828 20.5 11.375 20.5C11.3672 20.5 11.3594 20.5 11.3516 20.5C11.3438 20.5 11.336 20.5 11.3282 20.5C11.3205 20.5 11.3127 20.5 11.305 20.5C11.2972 20.5 11.2895 20.5 11.2817 20.5C11.274 20.5 11.2663 20.5 11.2586 20.5C11.2509 20.5 11.2432 20.5 11.2355 20.5C11.2278 20.5 11.2201 20.5 11.2124 20.5C11.2048 20.5 11.1971 20.5 11.1895 20.5C11.1818 20.5 11.1742 20.5 11.1665 20.5C11.1589 20.5 11.1513 20.5 11.1437 20.5C11.1361 20.5 11.1285 20.5 11.1209 20.5C11.1133 20.5 11.1057 20.5 11.0981 20.5C11.0906 20.5 11.083 20.5 11.0755 20.5C11.0679 20.5 11.0604 20.5 11.0529 20.5C11.0453 20.5 11.0378 20.5 11.0303 20.5C11.0228 20.5 11.0153 20.5 11.0078 20.5C11.0003 20.5 10.9928 20.5 10.9854 20.5C10.9779 20.5 10.9705 20.5 10.963 20.5C10.9556 20.5 10.9481 20.5 10.9407 20.5C10.9333 20.5 10.9259 20.5 10.9185 20.5C10.9111 20.5 10.9037 20.5 10.8963 20.5C10.8889 20.5 10.8815 20.5 10.8741 20.5C10.8668 20.5 10.8594 20.5 10.8521 20.5C10.8447 20.5 10.8374 20.5 10.8301 20.5C10.8228 20.5 10.8154 20.5 10.8081 20.5C10.8008 20.5 10.7935 20.5 10.7863 20.5C10.779 20.5 10.7717 20.5 10.7644 20.5C10.7572 20.5 10.7499 20.5 10.7427 20.5C10.7354 20.5 10.7282 20.5 10.721 20.5C10.7138 20.5 10.7065 20.5 10.6993 20.5C10.6921 20.5 10.6849 20.5 10.6778 20.5C10.6706 20.5 10.6634 20.5 10.6562 20.5C10.6491 20.5 10.6419 20.5 10.6348 20.5C10.6277 20.5 10.6205 20.5 10.6134 20.5C10.6063 20.5 10.5992 20.5 10.5921 20.5C10.585 20.5 10.5779 20.5 10.5708 20.5C10.5637 20.5 10.5567 20.5 10.5496 20.5C10.5425 20.5 10.5355 20.5 10.5284 20.5C10.5214 20.5 10.5144 20.5 10.5074 20.5C10.5003 20.5 10.4933 20.5 10.4863 20.5C10.4793 20.5 10.4723 20.5 10.4654 20.5C10.4584 20.5 10.4514 20.5 10.4445 20.5C10.4375 20.5 10.4306 20.5 10.4236 20.5C10.4167 20.5 10.4097 20.5 10.4028 20.5C10.3959 20.5 10.389 20.5 10.3821 20.5C10.3752 20.5 10.3683 20.5 10.3614 20.5C10.3546 20.5 10.3477 20.5 10.3409 20.5C10.334 20.5 10.3271 20.5 10.3203 20.5C10.3135 20.5 10.3067 20.5 10.2998 20.5C10.293 20.5 10.2862 20.5 10.2794 20.5C10.2726 20.5 10.2658 20.5 10.2591 20.5C10.2523 20.5 10.2455 20.5 10.2388 20.5C10.232 20.5 10.2253 20.5 10.2185 20.5C10.2118 20.5 10.2051 20.5 10.1984 20.5C10.1916 20.5 10.1849 20.5 10.1783 20.5C10.1716 20.5 10.1649 20.5 10.1582 20.5C10.1515 20.5 10.1449 20.5 10.1382 20.5C10.1316 20.5 10.1249 20.5 10.1183 20.5C10.1117 20.5 10.105 20.5 10.0984 20.5C10.0918 20.5 10.0852 20.5 10.0786 20.5C10.072 20.5 10.0654 20.5 10.0589 20.5C10.0523 20.5 10.0457 20.5 10.0392 20.5C10.0326 20.5 10.0261 20.5 10.0196 20.5C10.013 20.5 10.0065 20.5 10 20.5C9.99349 20.5 9.98699 20.5 9.9805 20.5C9.97401 20.5 9.96753 20.5 9.96106 20.5C9.95459 20.5 9.94813 20.5 9.94168 20.5C9.93523 20.5 9.92879 20.5 9.92236 20.5C9.91593 20.5 9.90951 20.5 9.90311 20.5C9.8967 20.5 9.8903 20.5 9.88391 20.5C9.87752 20.5 9.87114 20.5 9.86478 20.5C9.85841 20.5 9.85205 20.5 9.8457 20.5C9.83935 20.5 9.83302 20.5 9.82669 20.5C9.82036 20.5 9.81405 20.5 9.80774 20.5C9.80143 20.5 9.79514 20.5 9.78885 20.5C9.78256 20.5 9.77629 20.5 9.77002 20.5C9.76375 20.5 9.7575 20.5 9.75125 20.5C9.74501 20.5 9.73877 20.5 9.73254 20.5C9.72632 20.5 9.7201 20.5 9.7139 20.5C9.70769 20.5 9.7015 20.5 9.69531 20.5C9.68913 20.5 9.68295 20.5 9.67679 20.5C9.67062 20.5 9.66447 20.5 9.65832 20.5C9.65218 20.5 9.64605 20.5 9.63992 20.5C9.6338 20.5 9.62769 20.5 9.62158 20.5C9.61548 20.5 9.60939 20.5 9.6033 20.5C9.59722 20.5 9.59115 20.5 9.58508 20.5C9.57902 20.5 9.57297 20.5 9.56692 20.5C9.56088 20.5 9.55485 20.5 9.54883 20.5C9.54281 20.5 9.53679 20.5 9.53079 20.5C9.52479 20.5 9.5188 20.5 9.51282 20.5C9.50684 20.5 9.50086 20.5 9.4949 20.5C9.48894 20.5 9.48299 20.5 9.47705 20.5C9.47111 20.5 9.46518 20.5 9.45926 20.5C9.45334 20.5 9.44743 20.5 9.44153 20.5C9.43563 20.5 9.42974 20.5 9.42386 20.5C9.41798 20.5 9.41211 20.5 9.40625 20.5C9.40039 20.5 9.39454 20.5 9.3887 20.5C9.38286 20.5 9.37703 20.5 9.37122 20.5C9.3654 20.5 9.35959 20.5 9.35379 20.5C9.34799 20.5 9.3422 20.5 9.33643 20.5C9.33065 20.5 9.32488 20.5 9.31912 20.5C9.31336 20.5 9.30762 20.5 9.30188 20.5C9.29614 20.5 9.29042 20.5 9.2847 20.5C9.27898 20.5 9.27327 20.5 9.26758 20.5C9.26188 20.5 9.2562 20.5 9.25052 20.5C9.24484 20.5 9.23918 20.5 9.23352 20.5C9.22786 20.5 9.22222 20.5 9.21658 20.5C9.21095 20.5 9.20532 20.5 9.19971 20.5C9.19409 20.5 9.18849 20.5 9.18289 20.5C9.1773 20.5 9.17171 20.5 9.16614 20.5C9.16056 20.5 9.155 20.5 9.14944 20.5C9.14389 20.5 9.13835 20.5 9.13281 20.5C9.12728 20.5 9.12175 20.5 9.11624 20.5C9.11073 20.5 9.10522 20.5 9.09973 20.5C9.09424 20.5 9.08876 20.5 9.08328 20.5C9.07781 20.5 9.07235 20.5 9.06689 20.5C9.06144 20.5 9.056 20.5 9.05057 20.5C9.04514 20.5 9.03971 20.5 9.0343 20.5C9.02889 20.5 9.02349 20.5 9.0181 20.5C9.01271 20.5 9.00732 20.5 9.00195 20.5C8.99658 20.5 8.99122 20.5 8.98587 20.5C8.98052 20.5 8.97518 20.5 8.96985 20.5C8.96452 20.5 8.9592 20.5 8.95389 20.5C8.94858 20.5 8.94328 20.5 8.93799 20.5C8.9327 20.5 8.92742 20.5 8.92215 20.5C8.91688 20.5 8.91162 20.5 8.90637 20.5C8.90112 20.5 8.89588 20.5 8.89066 20.5C8.88543 20.5 8.88021 20.5 8.875 20.5C8.86979 20.5 8.86459 20.5 8.85941 20.5C8.85422 20.5 8.84904 20.5 8.84387 20.5C8.8387 20.5 8.83355 20.5 8.8284 20.5C8.82325 20.5 8.81812 20.5 8.81299 20.5C8.80786 20.5 8.80274 20.5 8.79764 20.5C8.79253 20.5 8.78743 20.5 8.78235 20.5C8.77726 20.5 8.77219 20.5 8.76712 20.5C8.76205 20.5 8.757 20.5 8.75195 20.5C8.74691 20.5 8.74187 20.5 8.73685 20.5C8.73182 20.5 8.72681 20.5 8.7218 20.5C8.7168 20.5 8.7118 20.5 8.70682 20.5C8.70183 20.5 8.69686 20.5 8.69189 20.5C8.68693 20.5 8.68198 20.5 8.67703 20.5C8.67209 20.5 8.66715 20.5 8.66223 20.5C8.65731 20.5 8.65239 20.5 8.64749 20.5C8.64259 20.5 8.6377 20.5 8.63281 20.5C8.62793 20.5 8.62306 20.5 8.61819 20.5C8.61333 20.5 8.60848 20.5 8.60364 20.5C8.5988 20.5 8.59396 20.5 8.58914 20.5C8.58432 20.5 8.57951 20.5 8.57471 20.5C8.56991 20.5 8.56511 20.5 8.56033 20.5C8.55555 20.5 8.55078 20.5 8.54602 20.5C8.54126 20.5 8.53651 20.5 8.53177 20.5C8.52703 20.5 8.5223 20.5 8.51758 20.5C8.51286 20.5 8.50815 20.5 8.50345 20.5C8.49875 20.5 8.49406 20.5 8.48938 20.5C8.4847 20.5 8.48003 20.5 8.47537 20.5C8.47071 20.5 8.46606 20.5 8.46143 20.5C8.45679 20.5 8.45216 20.5 8.44754 20.5C8.44292 20.5 8.43831 20.5 8.43372 20.5C8.42912 20.5 8.42453 20.5 8.41995 20.5C8.41537 20.5 8.41081 20.5 8.40625 20.5C8.40169 20.5 8.39715 20.5 8.39261 20.5C8.38807 20.5 8.38354 20.5 8.37903 20.5C8.37451 20.5 8.37001 20.5 8.36551 20.5C8.36101 20.5 8.35653 20.5 8.35205 20.5C8.34757 20.5 8.34311 20.5 8.33865 20.5C8.3342 20.5 8.32975 20.5 8.32532 20.5C8.32088 20.5 8.31646 20.5 8.31204 20.5C8.30763 20.5 8.30322 20.5 8.29883 20.5C8.29443 20.5 8.29005 20.5 8.28568 20.5C8.2813 20.5 8.27694 20.5 8.27258 20.5C8.26823 20.5 8.26389 20.5 8.25955 20.5C8.25522 20.5 8.2509 20.5 8.24658 20.5C8.24227 20.5 8.23797 20.5 8.23367 20.5C8.22938 20.5 8.2251 20.5 8.22083 20.5C8.21655 20.5 8.21229 20.5 8.20804 20.5C8.20379 20.5 8.19954 20.5 8.19531 20.5C8.19108 20.5 8.18686 20.5 8.18265 20.5C8.17844 20.5 8.17423 20.5 8.17004 20.5C8.16585 20.5 8.16167 20.5 8.1575 20.5C8.15333 20.5 8.14917 20.5 8.14502 20.5C8.14087 20.5 8.13673 20.5 8.1326 20.5C8.12847 20.5 8.12435 20.5 8.12024 20.5C8.11613 20.5 8.11203 20.5 8.10794 20.5C8.10385 20.5 8.09977 20.5 8.0957 20.5C8.09163 20.5 8.08757 20.5 8.08353 20.5C8.07948 20.5 8.07544 20.5 8.07141 20.5C8.06738 20.5 8.06336 20.5 8.05936 20.5C8.05535 20.5 8.05135 20.5 8.04736 20.5C8.04338 20.5 8.0394 20.5 8.03543 20.5C8.03146 20.5 8.02751 20.5 8.02356 20.5C8.01961 20.5 8.01568 20.5 8.01175 20.5C8.00782 20.5 8.00391 20.5 8 20.5C7.99609 20.5 7.9922 20.5 7.98831 20.5C7.98443 20.5 7.98055 20.5 7.97668 20.5C7.97282 20.5 7.96896 20.5 7.96512 20.5C7.96127 20.5 7.95744 20.5 7.95361 20.5C7.94979 20.5 7.94597 20.5 7.94217 20.5C7.93836 20.5 7.93457 20.5 7.93079 20.5C7.927 20.5 7.92323 20.5 7.91946 20.5C7.9157 20.5 7.91195 20.5 7.9082 20.5C7.90446 20.5 7.90073 20.5 7.897 20.5C7.89328 20.5 7.88957 20.5 7.88586 20.5C7.88216 20.5 7.87847 20.5 7.87479 20.5C7.8711 20.5 7.86743 20.5 7.86377 20.5C7.86011 20.5 7.85646 20.5 7.85281 20.5C7.84917 20.5 7.84554 20.5 7.84192 20.5C7.8383 20.5 7.83469 20.5 7.83109 20.5C7.82748 20.5 7.82389 20.5 7.82031 20.5C7.81673 20.5 7.81316 20.5 7.8096 20.5C7.80604 20.5 7.80249 20.5 7.79895 20.5C7.79541 20.5 7.79188 20.5 7.78836 20.5C7.78484 20.5 7.78133 20.5 7.77783 20.5C7.77433 20.5 7.77084 20.5 7.76736 20.5C7.76389 20.5 7.76042 20.5 7.75696 20.5C7.7535 20.5 7.75005 20.5 7.74661 20.5C7.74317 20.5 7.73975 20.5 7.73633 20.5C7.73291 20.5 7.7295 20.5 7.7261 20.5C7.72271 20.5 7.71932 20.5 7.71594 20.5C7.71256 20.5 7.7092 20.5 7.70584 20.5C7.70248 20.5 7.69914 20.5 7.6958 20.5C7.69246 20.5 7.68914 20.5 7.68582 20.5C7.68251 20.5 7.6792 20.5 7.6759 20.5C7.67261 20.5 7.66932 20.5 7.66605 20.5C7.66277 20.5 7.65951 20.5 7.65625 20.5C7.65299 20.5 7.64975 20.5 7.64651 20.5C7.64328 20.5 7.64006 20.5 7.63684 20.5C7.63363 20.5 7.63042 20.5 7.62723 20.5C7.62403 20.5 7.62085 20.5 7.61768 20.5C7.6145 20.5 7.61134 20.5 7.60818 20.5C7.60503 20.5 7.60189 20.5 7.59875 20.5C7.59562 20.5 7.5925 20.5 7.58939 20.5C7.58627 20.5 7.58317 20.5 7.58008 20.5C7.57699 20.5 7.5739 20.5 7.57083 20.5C7.56776 20.5 7.5647 20.5 7.56165 20.5C7.55859 20.5 7.55555 20.5 7.55252 20.5C7.54949 20.5 7.54647 20.5 7.54346 20.5C7.54045 20.5 7.53745 20.5 7.53445 20.5C7.53146 20.5 7.52848 20.5 7.52551 20.5C7.52254 20.5 7.51958 20.5 7.51663 20.5C7.51368 20.5 7.51074 20.5 7.50781 20.5C7.50488 20.5 7.50196 20.5 7.49905 20.5C7.49614 20.5 7.49325 20.5 7.49036 20.5C7.48747 20.5 7.48459 20.5 7.48172 20.5C7.47885 20.5 7.47599 20.5 7.47314 20.5C7.4703 20.5 7.46746 20.5 7.46463 20.5C7.4618 20.5 7.45898 20.5 7.45618 20.5C7.45337 20.5 7.45057 20.5 7.44778 20.5C7.445 20.5 7.44222 20.5 7.43945 20.5C7.43669 20.5 7.43393 20.5 7.43118 20.5C7.42844 20.5 7.4257 20.5 7.42297 20.5C7.42025 20.5 7.41753 20.5 7.41483 20.5C7.41212 20.5 7.40942 20.5 7.40674 20.5C7.40405 20.5 7.40138 20.5 7.39871 20.5C7.39605 20.5 7.39339 20.5 7.39075 20.5C7.3881 20.5 7.38547 20.5 7.38284 20.5C7.38022 20.5 7.3776 20.5 7.375 20.5C7.3724 20.5 7.3698 20.5 7.36722 20.5C7.36463 20.5 7.36206 20.5 7.3595 20.5C7.35693 20.5 7.35438 20.5 7.35184 20.5C7.34929 20.5 7.34676 20.5 7.34424 20.5C7.34172 20.5 7.3392 20.5 7.3367 20.5C7.3342 20.5 7.33171 20.5 7.32922 20.5C7.32674 20.5 7.32427 20.5 7.32181 20.5C7.31935 20.5 7.31689 20.5 7.31445 20.5C7.31201 20.5 7.30958 20.5 7.30716 20.5C7.30474 20.5 7.30233 20.5 7.29993 20.5C7.29753 20.5 7.29514 20.5 7.29276 20.5C7.29037 20.5 7.288 20.5 7.28564 20.5C7.28328 20.5 7.28093 20.5 7.27859 20.5C7.27626 20.5 7.27393 20.5 7.27161 20.5C7.26929 20.5 7.26698 20.5 7.26468 20.5C7.26238 20.5 7.26009 20.5 7.25781 20.5C7.25553 20.5 7.25327 20.5 7.25101 20.5C7.24875 20.5 7.2465 20.5 7.24426 20.5C7.24202 20.5 7.2398 20.5 7.23758 20.5C7.23536 20.5 7.23315 20.5 7.23096 20.5C7.22876 20.5 7.22657 20.5 7.2244 20.5C7.22222 20.5 7.22005 20.5 7.2179 20.5C7.21574 20.5 7.21359 20.5 7.21146 20.5C7.20932 20.5 7.20719 20.5 7.20508 20.5C7.20296 20.5 7.20086 20.5 7.19876 20.5C7.19667 20.5 7.19458 20.5 7.1925 20.5C7.19043 20.5 7.18836 20.5 7.18631 20.5C7.18425 20.5 7.18221 20.5 7.18018 20.5C7.17814 20.5 7.17612 20.5 7.1741 20.5C7.17209 20.5 7.17008 20.5 7.16809 20.5C7.1661 20.5 7.16411 20.5 7.16214 20.5C7.16017 20.5 7.1582 20.5 7.15625 20.5C7.1543 20.5 7.15235 20.5 7.15042 20.5C7.14849 20.5 7.14657 20.5 7.14465 20.5C7.14274 20.5 7.14084 20.5 7.13895 20.5C7.13705 20.5 7.13517 20.5 7.1333 20.5C7.13143 20.5 7.12957 20.5 7.12772 20.5C7.12586 20.5 7.12402 20.5 7.12219 20.5C7.12036 20.5 7.11854 20.5 7.11673 20.5C7.11492 20.5 7.11312 20.5 7.11133 20.5C7.10954 20.5 7.10776 20.5 7.10599 20.5C7.10422 20.5 7.10246 20.5 7.10071 20.5C7.09896 20.5 7.09722 20.5 7.09549 20.5C7.09376 20.5 7.09204 20.5 7.09033 20.5C7.08862 20.5 7.08692 20.5 7.08524 20.5C7.08355 20.5 7.08187 20.5 7.0802 20.5C7.07853 20.5 7.07687 20.5 7.07523 20.5C7.07358 20.5 7.07194 20.5 7.07031 20.5C7.06868 20.5 7.06707 20.5 7.06546 20.5C7.06385 20.5 7.06226 20.5 7.06067 20.5C7.05908 20.5 7.05751 20.5 7.05594 20.5C7.05437 20.5 7.05282 20.5 7.05127 20.5C7.04972 20.5 7.04819 20.5 7.04666 20.5C7.04514 20.5 7.04362 20.5 7.04211 20.5C7.04061 20.5 7.03911 20.5 7.03763 20.5C7.03614 20.5 7.03467 20.5 7.0332 20.5C7.03174 20.5 7.03028 20.5 7.02884 20.5C7.02739 20.5 7.02596 20.5 7.02454 20.5C7.02311 20.5 7.0217 20.5 7.02029 20.5C7.01889 20.5 7.0175 20.5 7.01611 20.5C7.01473 20.5 7.01336 20.5 7.01199 20.5C7.01063 20.5 7.00928 20.5 7.00793 20.5C7.00659 20.5 7.00526 20.5 7.00394 20.5C7.00261 20.5 7.0013 20.5 7 20.5V21.5ZM17 21.5C17.4104 21.5 17.81 21.3971 18.1036 21.1036C18.3971 20.81 18.5 20.4104 18.5 20H17.5C17.5 20.2563 17.4363 20.3566 17.3964 20.3964C17.3566 20.4363 17.2563 20.5 17 20.5V21.5ZM18.5 20C18.5 19.6667 18.5 17.6667 18.5 15C18.5 12.3333 18.5 9 18.5 6H17.5C17.5 9 17.5 12.3333 17.5 15C17.5 17.6667 17.5 19.6667 17.5 20H18.5ZM9 5.5H4V6.5H9V5.5ZM8.5 4V6H9.5V4H8.5ZM20 5.5H15V6.5H20V5.5ZM15 5.5H9V6.5H15V5.5ZM14.5 4V6H15.5V4H14.5Z" fill="black"/>
<path d="M10 10V17" stroke="black" stroke-linecap="square" stroke-linejoin="round"/>
<path d="M14 10V17" stroke="black" stroke-linecap="square" stroke-linejoin="round"/>
</svg>
