<svg width="34" height="24" viewBox="0 0 34 24" fill="none" xmlns="http://www.w3.org/2000/svg">
<rect x="0.5" y="0.5" width="33" height="23" rx="3.5" fill="white" stroke="#E5E5E5"/>
<path d="M10.5185 5.00077H15.8767C16.6247 5.00077 17.0899 5.62835 16.9154 6.40086L14.4208 17.4262C14.2447 18.196 13.4959 18.8242 12.7474 18.8242H7.38973C6.64282 18.8242 6.17657 18.196 6.35106 17.4262L8.84672 6.40086C9.0212 5.62835 9.76968 5.00077 10.5185 5.00077Z" fill="#E21836"/>
<path d="M15.4308 5H21.5926C22.3404 5 22.0032 5.62758 21.8273 6.40009L19.333 17.4255C19.158 18.1953 19.2126 18.8234 18.4632 18.8234H12.3015C11.5521 18.8234 11.0883 18.1953 11.2644 17.4255L13.7585 6.40009C13.9356 5.62758 14.6825 5 15.4308 5Z" fill="#00447C"/>
<path d="M21.348 5H26.7062C27.4552 5 27.9204 5.62758 27.7445 6.40009L25.2503 17.4255C25.0742 18.1953 24.3248 18.8234 23.576 18.8234H18.2203C17.4709 18.8234 17.0061 18.1953 17.1816 17.4255L19.6762 6.40009C19.8507 5.62758 20.5986 5 21.348 5Z" fill="#007B84"/>
<path d="M11.9176 8.53329C11.3666 8.53907 11.2038 8.53329 11.1519 8.52065C11.1319 8.61839 10.7601 10.384 10.759 10.3855C10.679 10.7427 10.6207 10.9974 10.4228 11.1618C10.3105 11.2574 10.1794 11.3035 10.0274 11.3035C9.78303 11.3035 9.64068 11.1786 9.61678 10.9417L9.6122 10.8604C9.6122 10.8604 9.68665 10.3819 9.68665 10.3792C9.68665 10.3792 10.0769 8.77018 10.1468 8.55749C10.1504 8.54539 10.1515 8.53907 10.1524 8.53329C9.39279 8.54015 9.25814 8.53329 9.24887 8.52065C9.24378 8.538 9.22497 8.63775 9.22497 8.63775L8.82651 10.4512L8.79229 10.6051L8.72607 11.1081C8.72607 11.2574 8.75455 11.3792 8.81123 11.4822C8.99276 11.8087 9.5106 11.8577 9.80354 11.8577C10.181 11.8577 10.535 11.7751 10.7743 11.6244C11.1896 11.3718 11.2983 10.9769 11.3952 10.626L11.4401 10.446C11.4401 10.446 11.8421 8.77488 11.9104 8.55749C11.913 8.54539 11.9141 8.53907 11.9176 8.53329ZM13.2853 9.8814C13.1884 9.8814 13.0113 9.9056 12.8523 9.98586C12.7945 10.0164 12.7399 10.0516 12.6823 10.0867L12.7343 9.8935L12.7059 9.86097C12.3685 9.93128 12.293 9.94069 11.9814 9.98586L11.9553 10.0037C11.9191 10.3126 11.887 10.5447 11.7529 11.1517C11.7018 11.3755 11.6488 11.6013 11.5956 11.8245L11.61 11.8529C11.9293 11.8355 12.0262 11.8355 12.3037 11.8402L12.3262 11.8151C12.3615 11.6292 12.366 11.5856 12.4441 11.209C12.4808 11.0305 12.5574 10.6382 12.5951 10.4985C12.6644 10.4654 12.7329 10.4329 12.7982 10.4329C12.9537 10.4329 12.9348 10.5726 12.9288 10.6282C12.9221 10.7217 12.8654 11.0269 12.8073 11.2889L12.7685 11.458C12.7415 11.5829 12.7119 11.7043 12.6848 11.8281L12.6966 11.8529C13.0113 11.8355 13.1073 11.8355 13.3761 11.8402L13.4077 11.8151C13.4563 11.5247 13.4705 11.447 13.5567 11.0242L13.6001 10.8299C13.6843 10.4497 13.7266 10.2569 13.6629 10.0999C13.5955 9.92388 13.4338 9.8814 13.2853 9.8814ZM14.8133 10.2795C14.646 10.3125 14.5393 10.3346 14.4332 10.3488C14.3281 10.3662 14.2256 10.3819 14.0639 10.405L14.0511 10.417L14.0393 10.4266C14.0225 10.5505 14.0107 10.6577 13.9884 10.7836C13.9694 10.9139 13.9403 11.0619 13.8929 11.2746C13.8562 11.4374 13.8373 11.4942 13.8164 11.5514C13.796 11.6087 13.7735 11.6644 13.7323 11.8245L13.7419 11.8393L13.75 11.8529C13.9011 11.8455 14 11.8402 14.1016 11.8393C14.2031 11.8355 14.3082 11.8393 14.471 11.8402L14.4852 11.8283L14.5005 11.8151C14.524 11.6707 14.5275 11.6318 14.5419 11.5614C14.5561 11.4858 14.5807 11.3812 14.6409 11.1019C14.6693 10.9706 14.7011 10.8398 14.7306 10.7059C14.7613 10.5726 14.7934 10.4412 14.824 10.31L14.8194 10.2941L14.8133 10.2795ZM14.8168 9.74275C14.6648 9.65039 14.398 9.6797 14.2184 9.80728C14.0394 9.93231 14.019 10.1098 14.1705 10.2034C14.3199 10.2932 14.5878 10.2664 14.7658 10.1377C14.9444 10.01 14.9668 9.83417 14.8168 9.74275ZM15.7362 11.8818C16.0438 11.8818 16.359 11.7945 16.5963 11.5356C16.7789 11.3256 16.8626 11.0132 16.8916 10.8845C16.986 10.4581 16.9125 10.2589 16.8202 10.1377C16.6799 9.95282 16.432 9.89353 16.1749 9.89353C16.0203 9.89353 15.652 9.90926 15.3642 10.1823C15.1576 10.3793 15.0622 10.6465 15.0046 10.9028C14.9464 11.1639 14.8796 11.6339 15.2995 11.8088C15.429 11.8661 15.6158 11.8818 15.7362 11.8818ZM15.7122 10.9223C15.7831 10.5994 15.8668 10.3283 16.0805 10.3283C16.2479 10.3283 16.26 10.53 16.1856 10.854C16.1723 10.9259 16.1112 11.1933 16.0285 11.3072C15.9708 11.3912 15.9024 11.4422 15.827 11.4422C15.8045 11.4422 15.6709 11.4422 15.6688 11.238C15.6678 11.1371 15.6877 11.0341 15.7122 10.9223ZM17.6605 11.8403L17.6845 11.8151C17.7186 11.6292 17.7242 11.5855 17.7997 11.2091C17.8374 11.0305 17.9155 10.6382 17.9522 10.4985C18.0217 10.4653 18.089 10.4328 18.1564 10.4328C18.3109 10.4328 18.2921 10.5725 18.2859 10.6281C18.2803 10.7217 18.2236 11.0268 18.1645 11.2888L18.1278 11.4579C18.0997 11.5829 18.0691 11.7042 18.0421 11.8282L18.0538 11.8529C18.3696 11.8356 18.462 11.8356 18.7323 11.8403L18.765 11.8151C18.8124 11.5246 18.8252 11.4469 18.914 11.0242L18.9563 10.8298C19.0409 10.4496 19.0838 10.2569 19.0211 10.0999C18.9517 9.92393 18.789 9.88144 18.6426 9.88144C18.5456 9.88144 18.3675 9.90551 18.2094 9.9859C18.1528 10.0164 18.0962 10.0515 18.0405 10.0867L18.089 9.89354L18.063 9.86087C17.7258 9.93132 17.6487 9.94073 17.3375 9.9859L17.3136 10.0038C17.2759 10.3126 17.2452 10.5446 17.111 11.1518C17.06 11.3755 17.0069 11.6014 16.9539 11.8245L16.9682 11.8529C17.288 11.8356 17.3835 11.8356 17.6605 11.8403ZM19.9807 11.8528C20.0005 11.7531 20.1185 11.1618 20.1195 11.1618C20.1195 11.1618 20.2199 10.728 20.2261 10.7122C20.2261 10.7122 20.2577 10.6671 20.2893 10.6492H20.3358C20.7745 10.6492 21.2698 10.6492 21.6581 10.3551C21.9223 10.1535 22.1029 9.8557 22.1835 9.49378C22.2044 9.40504 22.2198 9.29951 22.2198 9.19397C22.2198 9.05536 22.1928 8.91823 22.1147 8.81108C21.9167 8.52592 21.5224 8.52068 21.0673 8.51853C21.0658 8.51853 20.8429 8.52068 20.8429 8.52068C20.2603 8.52808 20.0266 8.52592 19.9307 8.51382C19.9226 8.55752 19.9073 8.63523 19.9073 8.63523C19.9073 8.63523 19.6986 9.63091 19.6986 9.63252C19.6986 9.63252 19.1992 11.7495 19.1756 11.8492C19.6843 11.8429 19.8929 11.8429 19.9807 11.8528ZM20.3674 10.0841C20.3674 10.0841 20.5893 9.09045 20.5882 9.09421L20.5954 9.04326L20.5985 9.00441L20.6872 9.01382C20.6872 9.01382 21.1449 9.05428 21.1556 9.05536C21.3362 9.12729 21.4106 9.31268 21.3586 9.55468C21.3112 9.77584 21.1719 9.96177 20.9928 10.0516C20.8454 10.1277 20.6648 10.134 20.4787 10.134H20.3582L20.3674 10.0841ZM21.7489 10.9407C21.6903 11.198 21.6229 11.668 22.0407 11.8355C22.1739 11.8939 22.2933 11.9112 22.4146 11.9049C22.5427 11.8978 22.6614 11.8316 22.7714 11.7365C22.7615 11.7756 22.7516 11.8147 22.7416 11.854L22.7606 11.8791C23.0611 11.8661 23.1543 11.8661 23.4799 11.8686L23.5094 11.8455C23.557 11.5578 23.6018 11.2784 23.7253 10.728C23.7855 10.4644 23.8456 10.2033 23.9074 9.9407L23.8977 9.9118C23.5616 9.97593 23.4717 9.98964 23.1483 10.0368L23.1238 10.0574C23.1205 10.0842 23.1171 10.1098 23.114 10.1355C23.0637 10.0519 22.9908 9.9805 22.8784 9.936C22.7346 9.87778 22.3969 9.9528 22.1065 10.2249C21.9025 10.4192 21.8046 10.6854 21.7489 10.9407ZM22.455 10.9564C22.5269 10.6393 22.6096 10.3709 22.8238 10.3709C22.9592 10.3709 23.0305 10.4996 23.016 10.719C23.0045 10.7737 22.9921 10.8314 22.9774 10.8966C22.956 10.9908 22.9327 11.0843 22.9101 11.1778C22.8871 11.2418 22.8604 11.3022 22.831 11.3424C22.7759 11.4228 22.6447 11.4727 22.5692 11.4727C22.5478 11.4727 22.4157 11.4727 22.4111 11.2721C22.41 11.1722 22.43 11.0693 22.455 10.9564ZM26.1419 9.90923L26.1159 9.87871C25.7833 9.94808 25.7231 9.95911 25.4175 10.0016L25.395 10.0247C25.394 10.0285 25.393 10.0343 25.3915 10.0395L25.3904 10.0343C25.1629 10.5746 25.1696 10.458 24.9844 10.8834C24.9833 10.864 24.9833 10.8519 24.9823 10.8314L24.9359 9.90923L24.9068 9.87871C24.5584 9.94808 24.5501 9.95911 24.2283 10.0016L24.2033 10.0247C24.1997 10.0357 24.1997 10.0478 24.1976 10.061L24.1997 10.0657C24.24 10.2773 24.2303 10.2301 24.2707 10.5641C24.2895 10.728 24.3145 10.8928 24.3333 11.0547C24.3651 11.3256 24.3828 11.459 24.4216 11.8724C24.2043 12.2415 24.1529 12.3812 23.9436 12.7052L23.9451 12.7085L23.7977 12.9483C23.7809 12.9736 23.7656 12.9909 23.7442 12.9983C23.7207 13.0103 23.6901 13.0124 23.6477 13.0124H23.5661L23.4447 13.4279L23.861 13.4353C24.1053 13.4342 24.2589 13.3165 24.3416 13.1584L24.6033 12.6968H24.5991L24.6267 12.6642C24.8027 12.2741 26.1419 9.90923 26.1419 9.90923ZM21.7489 15.3652H21.5724L22.2259 13.1401H22.4427L22.5115 12.9109L22.5182 13.1658C22.5101 13.3233 22.6305 13.463 22.9468 13.4399H23.3126L23.4385 13.0114H23.3009C23.2217 13.0114 23.185 12.9909 23.1896 12.9468L23.1829 12.6874H22.5055V12.6888C22.2865 12.6935 21.6324 12.7104 21.5 12.7467C21.3398 12.7892 21.1709 12.9142 21.1709 12.9142L21.2372 12.6847H20.6035L20.4715 13.1401L19.8092 15.3993H19.6807L19.5547 15.8246H20.8168L20.7745 15.9665H21.3964L21.4377 15.8246H21.6122L21.7489 15.3652ZM21.2311 13.5922C21.1296 13.6211 20.9408 13.7088 20.9408 13.7088L21.1087 13.1401H21.6122L21.4907 13.5544C21.4907 13.5544 21.3352 13.5639 21.2311 13.5922ZM21.2408 14.4047C21.2408 14.4047 21.0826 14.4251 20.9785 14.4493C20.876 14.4813 20.6837 14.5821 20.6837 14.5821L20.8572 13.9903H21.3633L21.2408 14.4047ZM20.9587 15.3705H20.4536L20.6 14.871H21.1035L20.9587 15.3705ZM22.1749 13.9903H22.9029L22.7983 14.339H22.0606L21.9499 14.7203H22.5953L22.1066 15.4287C22.0724 15.4807 22.0417 15.4992 22.0076 15.5138C21.9734 15.5317 21.9284 15.5527 21.8765 15.5527H21.6974L21.5744 15.9702H22.0427C22.2862 15.9702 22.43 15.8562 22.5361 15.7066L22.8713 15.2344L22.9432 15.7139C22.9585 15.8037 23.0212 15.8562 23.0636 15.8767C23.1105 15.9009 23.159 15.9424 23.2274 15.9486C23.3008 15.9518 23.3538 15.9544 23.3891 15.9544H23.6192L23.7574 15.4871H23.6666C23.6145 15.4871 23.5248 15.478 23.5095 15.4612C23.4942 15.4408 23.4942 15.4093 23.486 15.3615L23.413 14.881H23.114L23.2452 14.7203H23.9814L24.0946 14.339H23.413L23.5192 13.9903H24.1987L24.3247 13.5602H22.2988L22.1749 13.9903ZM16.0264 15.4676L16.1963 14.8857H16.8947L17.0223 14.453H16.3233L16.43 14.0948H17.113L17.2396 13.6757H15.5305L15.4066 14.0948H15.7949L15.6913 14.453H15.302L15.1729 14.8931H15.5611L15.3346 15.6629C15.3041 15.7649 15.349 15.8037 15.3775 15.851C15.4066 15.8971 15.4361 15.9277 15.5024 15.945C15.5709 15.9607 15.6178 15.9701 15.6815 15.9701H16.4688L16.609 15.4907L16.2601 15.5401C16.1927 15.5401 16.006 15.5317 16.0264 15.4676ZM16.1065 12.6821L15.9295 13.0114C15.8917 13.0833 15.8576 13.1279 15.8269 13.1485C15.7999 13.1658 15.7463 13.1731 15.6687 13.1731H15.5764L15.453 13.5943H15.7596C15.9071 13.5943 16.0203 13.5386 16.0744 13.5108C16.1325 13.4788 16.1478 13.4971 16.1927 13.4525L16.2963 13.3601H17.2538L17.3809 12.9216H16.68L16.8024 12.6821H16.1065ZM17.5202 15.4761C17.5039 15.4519 17.5156 15.4092 17.5406 15.3205L17.8023 14.4287H18.7334C18.869 14.4267 18.967 14.4251 19.0307 14.4204C19.0992 14.413 19.1736 14.3879 19.2547 14.3427C19.3384 14.2954 19.3813 14.2455 19.4174 14.1882C19.4578 14.1311 19.5226 14.0061 19.5782 13.8133L19.9072 12.6848L18.941 12.6905C18.941 12.6905 18.6435 12.7357 18.5125 12.7856C18.3803 12.8412 18.1915 12.9967 18.1915 12.9967L18.2787 12.6873H17.6819L16.8463 15.54C16.8166 15.6508 16.7968 15.7312 16.7922 15.7795C16.7907 15.8315 16.856 15.883 16.8983 15.9219C16.9483 15.9607 17.0222 15.9544 17.0931 15.9607C17.1677 15.9665 17.2738 15.9701 17.4202 15.9701H17.8788L18.0196 15.4808L17.609 15.5207C17.5651 15.5207 17.5334 15.4965 17.5202 15.4761ZM17.9712 13.8264H18.9491L18.8869 14.027C18.8782 14.0317 18.8573 14.0171 18.7578 14.0292H17.911L17.9712 13.8264ZM18.1671 13.1537H19.1532L19.0823 13.3953C19.0823 13.3953 18.6175 13.3906 18.5431 13.4047C18.2155 13.463 18.0242 13.6432 18.0242 13.6432L18.1671 13.1537ZM18.9088 14.6987C18.9007 14.7287 18.8879 14.747 18.87 14.7607C18.8502 14.7739 18.8181 14.7786 18.7701 14.7786H18.6308L18.639 14.5343H18.0594L18.0359 15.7286C18.035 15.8148 18.0431 15.8646 18.1043 15.9046C18.1656 15.9544 18.3543 15.9608 18.6083 15.9608H18.9715L19.1026 15.5137L18.7865 15.5316L18.6813 15.5379C18.667 15.5316 18.6532 15.5258 18.638 15.5101C18.6246 15.4965 18.6022 15.5049 18.6058 15.4187L18.6083 15.1126L18.9399 15.0984C19.119 15.0984 19.1955 15.0385 19.2608 14.9813C19.3231 14.9266 19.3435 14.8637 19.367 14.7786L19.4226 14.5076H18.9669L18.9088 14.6987Z" fill="#FEFEFE"/>
</svg>
