<svg width="24" height="24" viewBox="0 0 24 24" fill="none" xmlns="http://www.w3.org/2000/svg">
<g clip-path="url(#clip0_198_14547)">
<path fill-rule="evenodd" clip-rule="evenodd" d="M0 0H45.6V1.84688H0V0ZM0 3.69375H45.6V5.54062H0V3.69375ZM0 7.38281H45.6V9.23438H0V7.38281ZM0 11.0766H45.6V12.9234H0V11.0766ZM0 14.7703H45.6V16.6172H0V14.7703ZM0 18.4594H45.6V20.3063H0V18.4594ZM0 22.1531H45.6V24H0V22.1531Z" fill="#BD3D44"/>
<path fill-rule="evenodd" clip-rule="evenodd" d="M0 1.84688H45.6V3.69375H0V1.84688ZM0 5.54063H45.6V7.38281H0V5.54063ZM0 9.22969H45.6V11.0766H0V9.22969ZM0 12.9234H45.6V14.7656H0V12.9234ZM0 16.6172H45.6V18.4594H0V16.6172ZM0 20.3063H45.6V22.1531H0V20.3063Z" fill="white"/>
<path fill-rule="evenodd" clip-rule="evenodd" d="M0 0H18.2391V12.9234H0V0Z" fill="#192F5D"/>
<path fill-rule="evenodd" clip-rule="evenodd" d="M1.51396 0.553177L1.70146 1.0688H2.21709L1.79053 1.38286L1.95459 1.88443L1.51396 1.57036L1.10615 1.88443L1.2749 1.38286L0.82959 1.0688H1.38271L1.51396 0.553177ZM4.56084 0.553177L4.7249 1.0688H5.25928L4.81865 1.38286L5.00615 1.88443L4.56084 1.57036L4.11553 1.88443L4.30303 1.38286L3.85771 1.0688H4.39209L4.56084 0.553177ZM7.60771 0.553177L7.77178 1.0688H8.30615L7.86553 1.38286L8.05303 1.88443L7.60771 1.57036L7.1624 1.88443L7.3499 1.38286L6.90459 1.0688H7.43896L7.60771 0.553177ZM10.6358 0.553177L10.8187 1.0688H11.3343L10.9124 1.38286L11.0765 1.88443L10.6358 1.57036L10.2093 1.88443L10.3733 1.38286L9.93271 1.0688H10.4858L10.6358 0.553177ZM13.6827 0.553177L13.8468 1.0688H14.3812L13.9405 1.38286L14.1233 1.88443L13.6593 1.57036L13.2374 1.88443L13.4015 1.38286L12.9608 1.0688H13.4952L13.6827 0.553177ZM16.7296 0.553177L16.8937 1.0688H17.428L16.9827 1.38286L17.1702 1.88443L16.7249 1.57036L16.2843 1.88443L16.4718 1.38286L16.0265 1.0688H16.5608L16.7296 0.553177ZM3.04209 1.84693L3.21084 2.36255H3.7499L3.30459 2.67661L3.49209 3.17349L3.04678 2.85943L2.60146 3.17349L2.78896 2.67661L2.34365 2.36255H2.87803L3.04209 1.84693ZM6.0749 1.84693L6.2624 2.36255H6.77803L6.35146 2.67661L6.51553 3.17349L6.0749 2.85943L5.65303 3.17349L5.81709 2.67661L5.37178 2.36255H5.9249L6.0749 1.84693ZM9.12178 1.84693L9.28584 2.36255H9.82021L9.37959 2.67661L9.56709 3.17349L9.12178 2.85943L8.67646 3.17349L8.86397 2.67661L8.41865 2.36255H8.95303L9.12178 1.84693ZM12.1687 1.84693L12.3327 2.36255H12.8671L12.4265 2.67661L12.6093 3.17349L12.164 2.85943L11.7233 3.17349L11.9108 2.67661L11.4655 2.36255H11.9999L12.1687 1.84693ZM15.1921 1.84693L15.3796 2.36255H15.8765L15.4546 2.67661L15.6187 3.17349L15.1733 2.85943L14.7515 3.17349L14.9155 2.67661L14.4749 2.36255H15.028L15.1921 1.84693ZM1.53271 3.14068L1.67803 3.6563H2.23584L1.79053 3.97036L1.95459 4.46724L1.51396 4.15318L1.10615 4.46724L1.2749 3.97036L0.82959 3.6563H1.38271L1.53271 3.14068ZM4.56084 3.14068L4.7249 3.6563H5.25928L4.8374 3.97036L5.00146 4.46724L4.56084 4.15318L4.13896 4.46724L4.30303 3.97036L3.85771 3.6563H4.39209L4.56084 3.14068ZM7.60771 3.14068L7.77178 3.6563H8.30615L7.86553 3.97036L8.05303 4.46724L7.60771 4.15318L7.1624 4.46724L7.3499 3.97036L6.90459 3.6563H7.43896L7.60771 3.14068ZM10.6358 3.14068L10.8187 3.6563H11.3343L10.9124 3.97036L11.0765 4.46724L10.6358 4.15318L10.2093 4.46724L10.3733 3.97036L9.9374 3.6563H10.4905L10.6358 3.14068ZM13.6827 3.14068L13.8468 3.6563H14.3812L13.9593 3.97036L14.1233 4.46724L13.678 4.15318L13.2562 4.46724L13.4202 3.97036L12.9843 3.6563H13.5187L13.6827 3.14068ZM16.7296 3.14068L16.8937 3.6563H17.428L16.9827 3.97036L17.1702 4.46724L16.7249 4.15318L16.2843 4.46724L16.4718 3.97036L16.0265 3.6563H16.5608L16.7296 3.14068ZM3.04209 4.42974L3.21084 4.94536H3.7499L3.30459 5.25943L3.49209 5.76099L3.04678 5.44693L2.60146 5.76099L2.78896 5.25943L2.34365 4.95005H2.87803L3.04209 4.42974ZM6.0749 4.42974L6.2624 4.94536H6.77803L6.35146 5.25943L6.51553 5.76568L6.0749 5.45161L5.65303 5.76568L5.81709 5.26411L5.37178 4.95474H5.9249L6.0749 4.42974ZM9.12178 4.42974L9.28584 4.94536H9.82021L9.39834 5.25943L9.5624 5.76568L9.12178 5.45161L8.69521 5.76568L8.85928 5.26411L8.41865 4.95474H8.95303L9.12178 4.42974ZM12.1687 4.42974L12.3327 4.94536H12.8671L12.4265 5.25943L12.6093 5.76568L12.164 5.45161L11.7233 5.76568L11.9108 5.26411L11.4655 4.95474H11.9999L12.1687 4.42974ZM15.1921 4.42974L15.3796 4.94536H15.8765L15.4546 5.25943L15.6187 5.76099L15.1733 5.44693L14.7515 5.76099L14.9155 5.25943L14.4749 4.95005H15.028L15.1921 4.42974ZM1.53271 5.72349L1.67803 6.23911H2.23584L1.79053 6.55318L1.95459 7.05474L1.51396 6.74068L1.10615 7.05474L1.2749 6.55318L0.82959 6.23911H1.38271L1.53271 5.72349ZM4.56084 5.72349L4.7249 6.23911H5.25928L4.8374 6.55318L5.00146 7.05474L4.56084 6.74068L4.13896 7.05474L4.30303 6.55318L3.85771 6.23911H4.39209L4.56084 5.72349ZM7.60771 5.72349L7.77178 6.23911H8.30615L7.86553 6.55318L8.05303 7.05474L7.60771 6.74068L7.1624 7.05474L7.3499 6.55318L6.90459 6.23911H7.43896L7.60771 5.72349ZM10.6358 5.72349L10.8187 6.23911H11.3343L10.9124 6.55318L11.0765 7.05474L10.6358 6.74068L10.2093 7.05474L10.3733 6.55318L9.93271 6.23911H10.4858L10.6358 5.72349ZM13.6827 5.72349L13.8468 6.23911H14.3812L13.9593 6.55318L14.1233 7.05474L13.678 6.74068L13.2562 7.05474L13.4202 6.55318L12.9796 6.23911H13.514L13.6827 5.72349ZM16.7296 5.72349L16.8937 6.23911H17.428L16.9827 6.55318L17.1702 7.05474L16.7249 6.74068L16.2843 7.05474L16.4718 6.55318L16.0265 6.23911H16.5608L16.7296 5.72349ZM3.04209 7.01724L3.21084 7.53286H3.7499L3.30459 7.84693L3.49209 8.3438L3.04678 8.02974L2.60146 8.3438L2.78896 7.84693L2.34365 7.53286H2.87803L3.04209 7.01724ZM6.0749 7.01724L6.2624 7.53286H6.77803L6.35146 7.84693L6.51553 8.3438L6.0749 8.02974L5.65303 8.3438L5.81709 7.84693L5.37178 7.53286H5.9249L6.0749 7.01724ZM9.12178 7.01724L9.28584 7.53286H9.82021L9.39834 7.84693L9.5624 8.3438L9.12178 8.02974L8.69521 8.3438L8.85928 7.84693L8.41865 7.53286H8.95303L9.12178 7.01724ZM12.1687 7.01724L12.3327 7.53286H12.8671L12.4265 7.84693L12.6093 8.3438L12.164 8.02974L11.7233 8.3438L11.9108 7.84693L11.4655 7.53286H11.9999L12.1687 7.01724ZM15.1921 7.01724L15.3796 7.53286H15.8765L15.4546 7.84693L15.6187 8.3438L15.1733 8.02974L14.7515 8.3438L14.9155 7.84693L14.4749 7.53286H15.028L15.1921 7.01724ZM1.53271 8.3063L1.67803 8.82193H2.23584L1.79053 9.14068L1.95459 9.63755L1.51396 9.32349L1.10615 9.63755L1.2749 9.14068L0.82959 8.82661H1.38271L1.53271 8.3063ZM4.56084 8.3063L4.7249 8.82193H5.25928L4.8374 9.14068L5.00146 9.63755L4.56084 9.32349L4.13896 9.63755L4.30303 9.14068L3.85771 8.82661H4.39209L4.56084 8.3063ZM7.60771 8.3063L7.77178 8.82193H8.30615L7.86553 9.14068L8.05303 9.63755L7.60771 9.32349L7.1624 9.63755L7.3499 9.14068L6.90459 8.82661H7.43896L7.60771 8.3063ZM10.6358 8.3063L10.8187 8.82193H11.3343L10.9124 9.14068L11.0765 9.63755L10.6358 9.32349L10.2093 9.63755L10.3733 9.14068L9.93271 8.82661H10.4858L10.6358 8.3063ZM13.6827 8.3063L13.8468 8.82193H14.3812L13.9593 9.14068L14.1233 9.63755L13.678 9.32349L13.2562 9.63755L13.4202 9.14068L12.9796 8.82661H13.514L13.6827 8.3063ZM16.7296 8.3063L16.8937 8.82193H17.428L16.9827 9.14068L17.1702 9.63755L16.7249 9.32349L16.2843 9.63755L16.4718 9.14068L16.0265 8.82661H16.5608L16.7296 8.3063ZM3.04209 9.60005L3.21084 10.1157H3.7499L3.30459 10.4297L3.49209 10.9313L3.04678 10.6172L2.60146 10.9313L2.78896 10.4297L2.34365 10.1157H2.87803L3.04209 9.60005ZM6.0749 9.60005L6.2624 10.1157H6.77803L6.35146 10.4297L6.51553 10.9313L6.0749 10.6172L5.65303 10.9313L5.81709 10.4297L5.37178 10.1157H5.9249L6.0749 9.60005ZM9.12178 9.60005L9.28584 10.1157H9.82021L9.39834 10.4297L9.5624 10.9313L9.12178 10.6172L8.69521 10.9313L8.85928 10.4297L8.41865 10.1157H8.95303L9.12178 9.60005ZM12.1687 9.60005L12.3327 10.1157H12.8671L12.4265 10.4297L12.6093 10.9313L12.164 10.6172L11.7233 10.9313L11.9108 10.4297L11.4655 10.1157H11.9999L12.1687 9.60005ZM15.1921 9.60005L15.3796 10.1157H15.8765L15.4546 10.4297L15.6187 10.9313L15.1733 10.6172L14.7515 10.9313L14.9155 10.4297L14.4749 10.1157H15.028L15.1921 9.60005ZM1.53271 10.8938L1.67803 11.4094H2.23584L1.79053 11.7235L1.95459 12.2204L1.51396 11.9063L1.10615 12.2204L1.2749 11.7235L0.82959 11.4094H1.38271L1.53271 10.8938ZM4.56084 10.8938L4.7249 11.4094H5.25928L4.8374 11.7235L5.00146 12.2204L4.56084 11.9063L4.13896 12.2204L4.30303 11.7235L3.85771 11.4094H4.39209L4.56084 10.8938ZM7.60771 10.8938L7.77178 11.4094H8.30615L7.86553 11.7235L8.05303 12.2204L7.60771 11.9063L7.1624 12.2204L7.3499 11.7235L6.90459 11.4094H7.43896L7.60771 10.8938ZM10.6358 10.8938L10.8187 11.4094H11.3343L10.9124 11.7235L11.0765 12.2204L10.6358 11.9063L10.2093 12.2204L10.3733 11.7235L9.93271 11.4094H10.4858L10.6358 10.8938ZM13.6827 10.8938L13.8468 11.4094H14.3812L13.9593 11.7235L14.1233 12.2204L13.678 11.9063L13.2562 12.2204L13.4202 11.7235L12.9796 11.4094H13.514L13.6827 10.8938ZM16.7296 10.8938L16.8937 11.4094H17.428L16.9827 11.7235L17.1702 12.2204L16.7249 11.9063L16.2843 12.2204L16.4718 11.7235L16.0265 11.4094H16.5608L16.7296 10.8938Z" fill="white"/>
</g>
<defs>
<clipPath id="clip0_198_14547">
<rect width="24" height="24" rx="12" fill="white"/>
</clipPath>
</defs>
</svg>
