<svg width="24" height="24" viewBox="0 0 24 24" fill="none" xmlns="http://www.w3.org/2000/svg">
<path d="M22.9893 7.39824C22.8917 9.53441 21.397 12.46 18.504 16.1749C15.5133 20.0588 12.9819 22 10.9111 22C9.62824 22 8.54335 20.818 7.65647 18.4539L5.88132 11.9548C5.22131 9.58933 4.51455 8.40867 3.75966 8.40867C3.59741 8.40867 3.02128 8.756 2.03539 9.4438L1 8.11213C2.07687 7.1678 3.14666 6.21547 4.20929 5.2552C5.65856 4.0059 6.7462 3.34967 7.47221 3.2824C9.18136 3.11354 10.236 4.28185 10.632 6.78732C11.0583 9.48911 11.3553 11.1667 11.5203 11.8202C12.0153 14.0594 12.5598 15.1782 13.151 15.1769C13.6103 15.1769 14.3006 14.4493 15.2246 12.9981C16.1472 11.5457 16.6408 10.4405 16.7055 9.68268C16.8375 8.42926 16.3438 7.80186 15.2246 7.80186C14.6628 7.81008 14.1085 7.93198 13.5952 8.16018C14.6801 4.62781 16.7453 2.90898 19.7938 3.00371C22.0543 3.07235 23.1199 4.5372 22.9893 7.39687V7.39824Z" fill="black"/>
</svg>
