<svg width="34" height="24" viewBox="0 0 34 24" fill="none" xmlns="http://www.w3.org/2000/svg">
<rect x="0.5" y="0.5" width="33" height="23" rx="3.5" fill="white" stroke="#E5E5E5"/>
<g clip-path="url(#clip0_32_1463)">
<path d="M14.4921 8.1414L11.2191 15.879H9.0837L7.47303 9.70404C7.37525 9.3237 7.29022 9.18436 6.99283 9.02413C6.50728 8.76313 5.70547 8.51826 5 8.36628L5.04792 8.1414H8.48527C8.92342 8.1414 9.3173 8.4304 9.41677 8.93033L10.2674 13.4077L12.3698 8.14127H14.4921V8.1414ZM22.859 13.3527C22.8676 11.3105 20.009 11.198 20.0287 10.2858C20.0348 10.0081 20.3016 9.71294 20.8856 9.6376C21.175 9.60005 21.9726 9.57141 22.8771 9.98387L23.2319 8.34305C22.7459 8.16824 22.1205 8 21.3424 8C19.3456 8 17.9404 9.05174 17.9286 10.5577C17.9157 11.6717 18.9316 12.2933 19.6969 12.6634C20.4843 13.0424 20.7485 13.286 20.7455 13.6251C20.7399 14.1441 20.1175 14.3732 19.5359 14.3823C18.5205 14.3978 17.9313 14.11 17.4617 13.8937L17.0955 15.5888C17.5675 15.8034 18.4387 15.9906 19.342 16C21.4642 16 22.8525 14.9613 22.859 13.3527ZM28.1316 15.879H30L28.3691 8.1414H26.6447C26.2569 8.1414 25.9298 8.36511 25.785 8.70907L22.7537 15.879H24.8749L25.296 14.7233H27.8878L28.1316 15.879ZM25.8776 13.1374L26.9409 10.2322L27.5529 13.1374H25.8776ZM17.3785 8.1414L15.708 15.879H13.688L15.3591 8.1414H17.3785Z" fill="#1434CB"/>
</g>
<defs>
<clipPath id="clip0_32_1463">
<rect width="25" height="8" fill="white" transform="translate(5 8)"/>
</clipPath>
</defs>
</svg>
