<svg width="34" height="24" viewBox="0 0 34 24" fill="none" xmlns="http://www.w3.org/2000/svg">
<rect x="0.5" y="0.5" width="33" height="23" rx="3.5" fill="url(#paint0_linear_32_1309)" stroke="white"/>
<path fill-rule="evenodd" clip-rule="evenodd" d="M23.4157 13.5251C23.4157 11.7266 21.6731 10.2713 19.5238 10.2713C17.3744 10.2713 15.6318 11.7266 15.6318 13.5251C15.6318 15.3172 17.3744 16.7724 19.5238 16.7789C19.9677 16.7724 20.3966 16.7088 20.8004 16.5912C20.8302 16.5832 20.8278 16.5835 20.906 16.568C20.9844 16.5526 21.0525 16.5912 21.1117 16.6225L21.9523 17.123C21.991 17.1439 22.0139 17.1543 22.0457 17.1543C22.1138 17.1543 22.1718 17.0961 22.1703 17.0292C22.1718 16.9922 22.1599 16.9629 22.1509 16.9318C22.1417 16.9009 22.0375 16.5193 21.9835 16.2783C21.9758 16.2442 21.9716 16.2245 21.9716 16.1601C21.9716 16.0954 22.0048 16.026 22.0769 15.9654C22.8912 15.3829 23.4157 14.5012 23.4157 13.5251ZM18.2008 12.9619C17.9409 12.9619 17.7178 12.7379 17.7178 12.4463C17.7178 12.1849 17.9409 11.9608 18.2008 11.9608C18.4912 11.9608 18.7141 12.185 18.7141 12.4463C18.7141 12.7379 18.4912 12.9619 18.2008 12.9619ZM20.785 12.9619C20.5252 12.9619 20.302 12.7379 20.302 12.4463C20.302 12.1849 20.5252 11.9608 20.785 11.9608C21.0754 11.9608 21.2983 12.185 21.2983 12.4463C21.2983 12.7379 21.0754 12.9619 20.785 12.9619Z" fill="white"/>
<path fill-rule="evenodd" clip-rule="evenodd" d="M10.4946 10.5842C10.4946 11.7496 11.1234 12.8075 12.1137 13.525C12.1867 13.579 12.2256 13.6407 12.2256 13.7443C12.2256 13.7802 12.2193 13.8187 12.207 13.8693C12.1242 14.2097 12.0334 14.5992 12.0202 14.6515C12.0072 14.7036 11.9865 14.7383 11.9891 14.7766C11.9865 14.8632 12.0561 14.933 12.1448 14.933C12.1758 14.933 12.2035 14.9203 12.2382 14.9017L13.2656 14.3072C13.3307 14.2677 13.4038 14.2473 13.4529 14.2473C13.5024 14.2473 13.5846 14.2626 13.6393 14.276C14.1157 14.3983 14.6299 14.4749 15.1649 14.4637C15.2476 14.4737 15.3313 14.4737 15.414 14.4637C15.3158 14.1604 15.2633 13.844 15.2583 13.5251C15.2623 11.5481 17.1682 9.95509 19.5239 9.95843C19.6047 9.95509 19.6889 9.95776 19.773 9.95843C19.4214 8.09852 17.4914 6.67326 15.1649 6.67326C12.5845 6.67326 10.4946 8.41996 10.4946 10.5842ZM13.577 9.95843C13.4952 9.95843 13.4143 9.94224 13.3387 9.9108C13.2632 9.87935 13.1945 9.83326 13.1367 9.77515C13.0789 9.71705 13.033 9.64807 13.0017 9.57215C12.9704 9.49624 12.9543 9.41487 12.9543 9.3327C12.9543 9.25052 12.9704 9.16916 13.0017 9.09324C13.033 9.01732 13.0789 8.94834 13.1367 8.89024C13.1945 8.83213 13.2632 8.78604 13.3387 8.7546C13.4143 8.72315 13.4952 8.70697 13.577 8.70697C13.6588 8.70697 13.7398 8.72315 13.8153 8.7546C13.8909 8.78604 13.9595 8.83213 14.0173 8.89024C14.0752 8.94834 14.121 9.01732 14.1523 9.09324C14.1836 9.16916 14.1997 9.25052 14.1997 9.3327C14.1997 9.41487 14.1836 9.49624 14.1523 9.57215C14.121 9.64807 14.0752 9.71705 14.0173 9.77515C13.9595 9.83326 13.8909 9.87935 13.8153 9.9108C13.7398 9.94224 13.6588 9.95843 13.577 9.95843ZM16.6906 9.95843C16.6088 9.95843 16.5279 9.94224 16.4523 9.9108C16.3768 9.87935 16.3081 9.83326 16.2503 9.77515C16.1925 9.71705 16.1466 9.64807 16.1153 9.57215C16.084 9.49624 16.0679 9.41487 16.0679 9.3327C16.0679 9.25052 16.084 9.16916 16.1153 9.09324C16.1466 9.01732 16.1925 8.94834 16.2503 8.89024C16.3081 8.83213 16.3768 8.78604 16.4523 8.7546C16.5279 8.72315 16.6088 8.70697 16.6906 8.70697C16.8542 8.70937 17.0103 8.77635 17.1251 8.89343C17.2399 9.01052 17.3043 9.16831 17.3043 9.3327C17.3043 9.49708 17.2399 9.65487 17.1251 9.77196C17.0103 9.88904 16.8542 9.95603 16.6906 9.95843Z" fill="white"/>
<defs>
<linearGradient id="paint0_linear_32_1309" x1="17" y1="0" x2="17" y2="24" gradientUnits="userSpaceOnUse">
<stop stop-color="#02E36F"/>
<stop offset="1" stop-color="#07C160"/>
</linearGradient>
</defs>
</svg>
