<svg width="24" height="24" viewBox="0 0 24 24" fill="none" xmlns="http://www.w3.org/2000/svg">
<path d="M12.0644 5H12.1756C13.2032 5.00374 18.4098 5.04111 19.8136 5.4173C20.238 5.53211 20.6247 5.7559 20.9351 6.0663C21.2455 6.3767 21.4688 6.76284 21.5825 7.18614C21.7087 7.65949 21.7975 8.28606 21.8575 8.93256L21.87 9.06211L21.8975 9.38598L21.9075 9.51553C21.9888 10.6541 21.9988 11.7203 22 11.9533V12.0467C21.9988 12.2884 21.9875 13.4269 21.8975 14.6128L21.8875 14.7436L21.8762 14.8731C21.8137 15.5856 21.7212 16.2932 21.5825 16.8139C21.4691 17.2373 21.246 17.6237 20.9355 17.9341C20.6251 18.2446 20.2382 18.4682 19.8136 18.5827C18.3635 18.9713 12.8519 18.9988 12.0881 19H11.9106C11.5243 19 9.92675 18.9925 8.25164 18.9352L8.03913 18.9278L7.93037 18.9228L7.71661 18.914L7.50284 18.9053C6.11526 18.8443 4.79392 18.7459 4.18514 18.5815C3.76072 18.4671 3.37392 18.2436 3.06347 17.9334C2.75303 17.6232 2.52984 17.2371 2.41628 16.8139C2.27752 16.2944 2.18501 15.5856 2.12251 14.8731L2.11251 14.7423L2.10251 14.6128C2.04081 13.7687 2.00663 12.9229 2 12.0766L2 11.9234C2.0025 11.6556 2.0125 10.73 2.08001 9.7086L2.08876 9.5803L2.09251 9.51553L2.10251 9.38598L2.13001 9.06211L2.14251 8.93256C2.20251 8.28606 2.29127 7.65824 2.41753 7.18614C2.5309 6.76267 2.754 6.37635 3.06446 6.06589C3.37492 5.75544 3.76182 5.53176 4.18639 5.4173C4.79517 5.25536 6.11651 5.15571 7.50409 5.09342L7.71661 5.0847L7.93162 5.07723L8.03913 5.07349L8.25289 5.06477C9.4426 5.02663 10.6328 5.00545 11.8231 5.00125H12.0644V5ZM10.0005 8.99858V15.0002L15.1971 12.0006L10.0005 8.99858Z" fill="black"/>
</svg>
